<?xml version="1.0" standalone="no"?><!DOCTYPE svg PUBLIC "-//W3C//DTD SVG 1.1//EN" "http://www.w3.org/Graphics/SVG/1.1/DTD/svg11.dtd"><svg t="1566291406525" class="icon" viewBox="0 0 1248 1024" version="1.1" xmlns="http://www.w3.org/2000/svg" p-id="19346" xmlns:xlink="http://www.w3.org/1999/xlink" width="243.75" height="200"><defs><style type="text/css"></style></defs><path d="M615.584 82.496c48.96 0 95.04 19.104 129.664 53.76a182.24 182.24 0 0 1 53.76 129.664 178.816 178.816 0 0 1-53.216 127.872 184.224 184.224 0 0 1-130.08 52.8 183.648 183.648 0 0 1-130.048-52.8 177.792 177.792 0 0 1-53.216-127.872c0-48.96 19.104-95.008 53.76-129.664a180.896 180.896 0 0 1 129.376-53.76z m0-82.496a265.792 265.792 0 0 0-265.792 265.792c0 146.848 119.072 263.04 265.792 263.04 146.88 0 265.792-116.32 265.792-263.04A265.888 265.888 0 0 0 615.584 0z m23.232 528.96c45.248 2.08 89.12 12.512 130.24 31.072a352.48 352.48 0 0 1 107.52 74.816c63.36 64.48 98.432 149.056 98.432 238.016v60.896H258.784v-60.896c0-89.12 34.912-173.664 98.432-238.016a352.48 352.48 0 0 1 107.52-74.816 354.432 354.432 0 0 1 130.24-31.04h43.84z m1.92-82.496h-47.552c-230.176 9.6-416.896 196.224-416.896 426.528v100.8c0 23.488 19.104 42.624 42.624 42.624h793.504c24.896 0 44.96-20.224 44.96-44.992v-98.432c0.128-230.304-186.464-416.896-416.64-426.528zM247.072 503.648c-7.808 0-15.808-2.176-22.816-7.008a224.928 224.928 0 0 1-100.224-187.392c0-45.792 13.6-89.792 39.456-127.488a223.552 223.552 0 0 1 101.344-81.376 41.312 41.312 0 0 1 30.944 76.576 142.016 142.016 0 0 0-89.12 132.416c0 47.84 23.808 92.256 63.68 118.944 18.976 12.64 24.064 38.208 11.392 57.184a42.496 42.496 0 0 1-34.656 18.144zM41.28 850.304c-22.816 0-41.248-18.432-41.248-41.28v-33.12c0-76.288 22.976-149.728 66.4-212.16A370.944 370.944 0 0 1 236.8 429.536a41.152 41.152 0 0 1 53.344 23.52 41.152 41.152 0 0 1-23.488 53.344 287.52 287.52 0 0 0-184.256 269.504v33.152a40.992 40.992 0 0 1-41.12 41.248z m942.144-346.656a41.216 41.216 0 0 1-22.976-75.488 142.816 142.816 0 0 0 63.68-118.912 142.208 142.208 0 0 0-89.088-132.416 41.28 41.28 0 1 1 30.944-76.608c41.088 16.64 76.16 44.832 101.312 81.408a223.808 223.808 0 0 1 39.488 127.456 225.28 225.28 0 0 1-100.256 187.424 40.128 40.128 0 0 1-23.104 7.136z m205.856 346.656c-22.848 0-41.28-18.432-41.28-41.28v-33.12a287.36 287.36 0 0 0-184.224-269.504 41.28 41.28 0 0 1-23.52-53.344 41.28 41.28 0 0 1 53.344-23.52 370.944 370.944 0 0 1 170.368 134.208 369.728 369.728 0 0 1 66.4 212.16v33.152a40.992 40.992 0 0 1-41.088 41.248z" p-id="19347"></path></svg>