<?xml version="1.0" standalone="no"?><!DOCTYPE svg PUBLIC "-//W3C//DTD SVG 1.1//EN" "http://www.w3.org/Graphics/SVG/1.1/DTD/svg11.dtd"><svg t="1564047854159" class="icon" viewBox="0 0 1024 1024" version="1.1" xmlns="http://www.w3.org/2000/svg" p-id="12423" xmlns:xlink="http://www.w3.org/1999/xlink" width="200" height="200"><defs><style type="text/css"></style></defs><path d="M817.8 795.9h20.4c13.6 0.1 23.3 9.1 23.3 21.8 0 12.6-9.8 21.8-23.3 21.8H185.5c-12.2 0-21.5-7.3-23.1-18.1-1.7-11.5 4.7-21.7 15.7-24.7 2.4-0.7 5.1-0.7 7.6-0.8 6.5-0.1 13 0 20.2 0v-6.5-538.9c0-31.8 20.3-57.9 50.6-65 5.2-1.2 10.8-1.7 16.2-1.7 101.1-0.1 202.2-0.1 303.2-0.1 38.7 0 67.1 28.6 67.1 67.4v544.3h131c0.1-1.5 0.2-3.1 0.2-4.7V470.2c0-15.4-8.8-24.3-24.1-24.3-13.9 0-27.8 0.1-41.7-0.1-11.5-0.2-20.3-8.4-21.6-19.8-1.2-10.3 5.9-20.4 16.4-23.1 2.2-0.6 4.5-0.6 6.7-0.6 13.9-0.1 27.8-0.1 41.7 0 37.5 0.1 66.3 28.8 66.3 66.4 0.1 107 0 213.9 0 320.9-0.1 2.1-0.1 4-0.1 6.3z m-568.5-0.2H599c0.1-1.7 0.2-3.2 0.2-4.7V251.6c0-15.1-8.9-24-23.9-24H273c-2.4 0-4.9 0.1-7.2 0.7-10.7 2.8-16.4 11.2-16.4 24v538.5c-0.1 1.4-0.1 2.9-0.1 4.9z m175.1-459c-21.5 0-42.9 0.1-64.3 0-12-0.1-20.8-6.9-22.8-17.4-2.7-14.1 7.4-26.2 22-26.3 23.1-0.1 46.2 0 69.3 0 20.2 0 40.5-0.1 60.7 0 9.8 0 17.9 5.8 21 14.4 3.1 8.6 0.5 18.3-6.5 24.3-4.8 4-10.4 5.1-16.5 5.1-21-0.1-41.9-0.1-62.9-0.1z m-0.4 109.4c-21.6 0-43.2 0.1-64.8 0-14.6-0.1-24.6-12.2-22-26.3 1.8-9.7 10.4-17.2 20.5-17.2 44.3-0.1 88.5-0.1 132.8 0 11.9 0 21 9.7 21 21.6 0 12.2-9.3 21.8-21.8 21.9-21.9 0.1-43.8 0-65.7 0z m-0.1 175c22.2 0 44.4-0.2 66.6 0.1 15.9 0.2 26 17 18.9 31.2-4.2 8.5-11.5 12.4-21 12.4h-130c-12.1-0.3-21.6-9.8-21.7-21.7-0.1-11.9 9.4-21.7 21.4-21.8 22-0.4 43.9-0.3 65.8-0.2z m0.2-65.8c-21.6 0-43.2 0.1-64.8 0-16.2-0.1-26.8-15.1-21-29.6 3.6-9.1 10.7-14 20.3-14 43.6-0.2 87.3-0.2 130.9 0 12.8 0.1 22.1 9.8 22 22.2-0.1 12.2-9.4 21.3-22.2 21.4-21.7 0.1-43.5 0-65.2 0z m0 0" p-id="12424" fill="#72b6ff"></path></svg>