<?xml version="1.0" standalone="no"?><!DOCTYPE svg PUBLIC "-//W3C//DTD SVG 1.1//EN" "http://www.w3.org/Graphics/SVG/1.1/DTD/svg11.dtd"><svg t="1566291606688" class="icon" viewBox="0 0 1024 1024" version="1.1" xmlns="http://www.w3.org/2000/svg" p-id="24481" xmlns:xlink="http://www.w3.org/1999/xlink" width="200" height="200"><defs><style type="text/css"></style></defs><path d="M87.386768 151.779845l44.695968 0c12.33084 0 22.347984 10.039657 22.347984 22.347984l0 44.695968c0 12.353352-10.017144 22.347984-22.347984 22.347984l-44.695968 0c-12.33084 0-22.347984-9.995655-22.347984-22.347984l0-44.695968C65.038784 161.819502 75.055928 151.779845 87.386768 151.779845zM355.5636 151.779845l581.047586 0c12.331863 0 22.349007 10.039657 22.349007 22.347984l0 44.695968c0 12.353352-10.017144 22.347984-22.349007 22.347984L355.5636 241.171782c-12.33084 0-22.347984-9.995655-22.347984-22.347984l0-44.695968C333.214593 161.819502 343.23276 151.779845 355.5636 151.779845zM87.386768 777.524422l44.695968 0c12.33084 0 22.347984 10.04068 22.347984 22.347984L154.43072 844.568375c0 12.351306-10.017144 22.347984-22.347984 22.347984l-44.695968 0c-12.33084 0-22.347984-9.996678-22.347984-22.347984l0-44.696991C65.038784 787.56408 75.055928 777.524422 87.386768 777.524422zM355.5636 777.524422l581.047586 0c12.331863 0 22.349007 10.04068 22.349007 22.347984L958.960193 844.568375c0 12.351306-10.017144 22.347984-22.349007 22.347984L355.5636 866.916359c-12.33084 0-22.347984-9.996678-22.347984-22.347984l0-44.696991C333.214593 787.56408 343.23276 777.524422 355.5636 777.524422zM87.386768 464.652646l44.695968 0c12.33084 0 22.347984 10.039657 22.347984 22.347984l0 44.695968c0 12.351306-10.017144 22.347984-22.347984 22.347984l-44.695968 0c-12.33084 0-22.347984-9.996678-22.347984-22.347984l0-44.695968C65.038784 474.691279 75.055928 464.652646 87.386768 464.652646zM355.5636 464.652646l581.047586 0c12.331863 0 22.349007 10.039657 22.349007 22.347984l0 44.695968c0 12.351306-10.017144 22.347984-22.349007 22.347984L355.5636 554.044582c-12.33084 0-22.347984-9.996678-22.347984-22.347984l0-44.695968C333.214593 474.691279 343.23276 464.652646 355.5636 464.652646z" p-id="24482" fill="#1f1f1f"></path></svg>