<?xml version="1.0" standalone="no"?><!DOCTYPE svg PUBLIC "-//W3C//DTD SVG 1.1//EN" "http://www.w3.org/Graphics/SVG/1.1/DTD/svg11.dtd"><svg t="1565601551841" class="icon" viewBox="0 0 1024 1024" version="1.1" xmlns="http://www.w3.org/2000/svg" p-id="917" xmlns:xlink="http://www.w3.org/1999/xlink" width="200" height="200"><defs><style type="text/css"></style></defs><path d="M204.8 51.2h614.4a153.6 153.6 0 0 1 153.6 153.6v614.4a153.6 153.6 0 0 1-153.6 153.6H204.8a153.6 153.6 0 0 1-153.6-153.6V204.8a153.6 153.6 0 0 1 153.6-153.6z m0 102.4a51.2 51.2 0 0 0-51.2 51.2v614.4a51.2 51.2 0 0 0 51.2 51.2h614.4a51.2 51.2 0 0 0 51.2-51.2V204.8a51.2 51.2 0 0 0-51.2-51.2H204.8z m51.2 153.6a51.2 51.2 0 1 1 102.4 0v409.6a51.2 51.2 0 0 1-102.4 0V307.2z m409.6 0a51.2 51.2 0 0 1 102.4 0v409.6a51.2 51.2 0 0 1-102.4 0V307.2z m-153.6 153.6a51.2 51.2 0 1 1 0-102.4 51.2 51.2 0 0 1 0 102.4z m0 204.8a51.2 51.2 0 1 1 0-102.4 51.2 51.2 0 0 1 0 102.4z" p-id="918"></path></svg>
