<?xml version="1.0" standalone="no"?><!DOCTYPE svg PUBLIC "-//W3C//DTD SVG 1.1//EN" "http://www.w3.org/Graphics/SVG/1.1/DTD/svg11.dtd"><svg t="1564197609402" class="icon" viewBox="0 0 1024 1024" version="1.1" xmlns="http://www.w3.org/2000/svg" p-id="3122" xmlns:xlink="http://www.w3.org/1999/xlink" width="200" height="200"><defs><style type="text/css"></style></defs><path d="M692 548H548v144h-72V548H332v-72h144V332h72v144h144v72z m36-359.9c59.6 0 108 48.3 108 108V728c0 59.6-48.3 108-108 108H296c-59.6 0-108-48.3-108-108V296c0-59.6 48.3-108 108-108h432m0-35.9H296c-79.5 0-144 64.5-144 144V728c0 79.5 64.5 144 144 144h432c79.5 0 144-64.5 144-144V296c-0.1-79.5-64.5-143.9-144-143.9z" p-id="3123"></path></svg>