<?xml version="1.0" standalone="no"?><!DOCTYPE svg PUBLIC "-//W3C//DTD SVG 1.1//EN" "http://www.w3.org/Graphics/SVG/1.1/DTD/svg11.dtd"><svg t="1565171837279" class="icon" viewBox="0 0 1024 1024" version="1.1" xmlns="http://www.w3.org/2000/svg" p-id="1049" xmlns:xlink="http://www.w3.org/1999/xlink" width="200" height="200"><defs><style type="text/css"></style></defs><path d="M456.031802 428.075589c247.269663 0 419.73155-62.661132 419.73155-139.92382l0-83.924411c0-77.253478-172.461887-139.92382-419.73155-139.92382-247.267617 0-391.729799 62.670342-391.729799 139.92382l0 83.924411C64.303027 365.414457 208.765209 428.075589 456.031802 428.075589z" p-id="1050"></path><path d="M405.238976 762.847142c-169.814594-6.302543-269.000594-45.057195-321.135998-96.939843-13.304004 13.261025-19.799952 27.347858-19.799952 41.992393L64.303027 819.824831c0 77.254501 144.462183 139.872654 391.729799 139.872654 24.74559 0 48.844451-0.774643 72.510454-2.00261C465.018477 912.026766 419.691129 842.896292 405.238976 762.847142z" p-id="1051"></path><path d="M400.135748 706.636932c0.296759-73.970712 26.625404-141.804656 70.385047-194.723913-5.311982 0.025583-10.429537 0.086981-15.898085 0.086981-200.461591 0-313.4919-41.165562-370.520755-97.94166-13.304004 13.286608-19.799952 27.365254-19.799952 41.992393l0 111.932302C64.303027 639.161145 187.276802 697.878454 400.135748 706.636932z" p-id="1052"></path><path d="M707.865411 456.050734c-139.081639 0-251.833609 112.74276-251.833609 251.847935 0 139.071406 112.75197 251.797793 251.833609 251.797793 139.079592 0 251.830539-112.725364 251.830539-251.797793C959.69595 568.793494 846.945003 456.050734 707.865411 456.050734zM865.316419 731.590254 731.56109 731.590254l-0.014326 133.74305-47.399543 0L684.14722 731.590254 550.41338 731.590254l0-47.406706 133.73384 0.004093 0-133.756353 47.434336 0-0.014326 133.756353 133.74919 0.004093L865.316419 731.590254z" p-id="1053"></path></svg>