<?xml version="1.0" standalone="no"?><!DOCTYPE svg PUBLIC "-//W3C//DTD SVG 1.1//EN" "http://www.w3.org/Graphics/SVG/1.1/DTD/svg11.dtd"><svg t="1565602260858" class="icon" viewBox="0 0 1024 1024" version="1.1" xmlns="http://www.w3.org/2000/svg" p-id="1172" xmlns:xlink="http://www.w3.org/1999/xlink" width="200" height="200"><defs><style type="text/css"></style></defs><path d="M1024 767.6928c0 7.168-2.8672 12.0832-8.4992 14.9504L571.2896 1021.8496 569.1392 1021.8496C567.7056 1023.2832 565.5552 1024 562.688 1024c-2.8672 0-5.0176-0.7168-6.4512-2.1504L554.1888 1021.8496 109.9776 782.6432C104.2432 779.776 101.376 774.8608 101.376 767.6928L101.376 255.1808 101.376 253.0304c0-1.3312 0.7168-2.8672 2.1504-4.3008L103.5264 246.5792l4.3008-4.3008 2.1504-2.1504L554.1888 1.024c5.7344-1.3312 11.3664-1.3312 17.1008 0l444.2112 239.2064 2.1504 2.1504 4.3008 4.3008 0 2.1504L1024 253.0304l0 2.1504L1024 767.6928zM135.5776 757.0432l410.0096 222.1056 0-474.112L135.5776 282.9312 135.5776 757.0432zM154.8288 255.1808 562.688 475.136l407.8592-219.9552L562.688 35.2256 154.8288 255.1808zM989.7984 757.0432l0-474.112L579.7888 505.0368l0 474.112L989.7984 757.0432z" p-id="1173"></path></svg>