<?xml version="1.0" standalone="no"?><!DOCTYPE svg PUBLIC "-//W3C//DTD SVG 1.1//EN" "http://www.w3.org/Graphics/SVG/1.1/DTD/svg11.dtd"><svg t="1565170773026" class="icon" viewBox="0 0 1024 1024" version="1.1" xmlns="http://www.w3.org/2000/svg" p-id="24878" xmlns:xlink="http://www.w3.org/1999/xlink" width="200" height="200"><defs><style type="text/css"></style></defs><path d="M898 200.715v78.57C898 348.527 726 405 514 405s-384-56.473-384-125.715v-78.57C130 131.473 302 75 514 75s384 56.473 384 125.715zM898 375v177.078C898 621.434 726 678 514 678s-384-56.566-384-125.922V375c82.5 57.059 233.5 83.621 384 83.621S815.498 432.06 898 375z m0 276v177.078C898 897.434 726 954 514 954s-384-56.566-384-125.922V651c82.5 57.059 233.5 83.621 384 83.621S815.498 708.06 898 651z" p-id="24879"></path></svg>