<?xml version="1.0" standalone="no"?><!DOCTYPE svg PUBLIC "-//W3C//DTD SVG 1.1//EN" "http://www.w3.org/Graphics/SVG/1.1/DTD/svg11.dtd"><svg t="1565171848893" class="icon" viewBox="0 0 1024 1024" version="1.1" xmlns="http://www.w3.org/2000/svg" p-id="1198" xmlns:xlink="http://www.w3.org/1999/xlink" width="200" height="200"><defs><style type="text/css"></style></defs><path d="M456.032826 428.076612c247.26864 0 419.729503-62.662155 419.729503-139.924843l0-83.924411c0-77.253478-172.460864-139.92382-419.729503-139.92382-247.270686 0-391.730823 62.670342-391.730823 139.92382l0 83.924411C64.303027 365.41548 208.763163 428.076612 456.032826 428.076612z" p-id="1199"></path><path d="M405.237953 762.847142c-169.814594-6.303566-269.000594-45.056172-321.135998-96.937796-13.302981 13.258978-19.798928 27.347858-19.798928 41.99137l0 111.923092c0 77.254501 144.460136 139.872654 391.730823 139.872654 24.743544 0 48.842405-0.774643 72.507384-2.001587C465.018477 912.026766 419.691129 842.896292 405.237953 762.847142z" p-id="1200"></path><path d="M400.134725 706.636932c0.296759-73.971735 26.626427-141.804656 70.385047-194.723913-5.310959 0.025583-10.43056 0.086981-15.898085 0.086981-200.461591 0-313.4919-41.165562-370.520755-97.940636-13.302981 13.285584-19.798928 27.365254-19.798928 41.992393l0 111.933325C64.303027 639.160121 187.275779 697.879478 400.134725 706.636932z" p-id="1201"></path><path d="M707.863365 456.050734c-139.079592 0-251.830539 112.74276-251.830539 251.848958 0 139.070382 112.750947 251.795746 251.830539 251.795746 139.080615 0 251.832586-112.724341 251.832586-251.795746C959.69595 568.793494 846.94398 456.050734 707.863365 456.050734zM835.956741 802.463418l-33.521464 33.511231-94.571912-94.571912-94.571912 94.571912-33.520441-33.511231 94.571912-94.581122-94.571912-94.571912 33.520441-33.529651 94.571912 94.579075 94.571912-94.579075 33.521464 33.529651-94.572936 94.571912L835.956741 802.463418z" p-id="1202"></path></svg>