<?xml version="1.0" standalone="no"?>
<!DOCTYPE svg PUBLIC "-//W3C//DTD SVG 1.1//EN" "http://www.w3.org/Graphics/SVG/1.1/DTD/svg11.dtd"><svg t="1564999778067"
    class="icon" viewBox="0 0 1024 1024" version="1.1" xmlns="http://www.w3.org/2000/svg" p-id="8301"
    xmlns:xlink="http://www.w3.org/1999/xlink" width="200" height="200">
    <defs>
        <style type="text/css"></style>
    </defs>
    <path
        d="M682 118v240H342V118h340m40-40H302v320h420V78zM286.2 647.8v240h-160v-240h160m40-40h-240v320h240v-320z m276.7 40v240h-160v-240h160m40-40h-240v320h240v-320z m276.7 40v240h-160v-240h160m40-40h-240v320h240v-320zM532 397.9h-40v100h40v-100z m0 110.3h-40v100h40v-100z m326.6-28H172v40h686.6v-40z m-0.1 28h-40v100h40v-100z m-646.5 0h-40v100h40v-100z"
        fill="" p-id="8302"></path>
</svg>