<?xml version="1.0" standalone="no"?>
<!DOCTYPE svg PUBLIC "-//W3C//DTD SVG 1.1//EN" "http://www.w3.org/Graphics/SVG/1.1/DTD/svg11.dtd"><svg t="1565159433457"
    class="icon" viewBox="0 0 1024 1024" version="1.1" xmlns="http://www.w3.org/2000/svg" p-id="2643"
    xmlns:xlink="http://www.w3.org/1999/xlink" width="200" height="200">
    <defs>
        <style type="text/css"></style>
    </defs>
    <path
        d="M188.3 729.4h644.8c18.4 0 33.3 14.9 33.3 33.3S851.5 796 833.1 796H188.3c-18.4 0-33.3-14.9-33.3-33.3s14.9-33.3 33.3-33.3z m389.1-300.3h124.2c5.9 0 11.6 2.3 15.7 6.5 8.7 8.7 8.7 22.8 0 31.4L526.4 657.9c-8.7 8.7-22.8 8.7-31.4 0L304.1 467c-4.2-4.2-6.5-9.8-6.5-15.7 0-12.3 10-22.2 22.2-22.2H444V151.3c0-36.8 29.9-66.7 66.7-66.7s66.7 29.9 66.7 66.7v277.8z"
        p-id="2644"></path>
</svg>