<?xml version="1.0" standalone="no"?><!DOCTYPE svg PUBLIC "-//W3C//DTD SVG 1.1//EN" "http://www.w3.org/Graphics/SVG/1.1/DTD/svg11.dtd"><svg t="1565170537479" class="icon" viewBox="0 0 1024 1024" version="1.1" xmlns="http://www.w3.org/2000/svg" p-id="24019" xmlns:xlink="http://www.w3.org/1999/xlink" width="200" height="200"><defs><style type="text/css"></style></defs><path d="M450.438411 64.310701c-243.74335 0-386.135384 60.655452-386.135384 135.459135l0 81.238232c0 74.804706 142.392034 135.487787 386.135384 135.487787 243.74335 0 413.716556-60.684104 413.716556-135.487787l0-81.238232C864.154967 124.966153 694.181761 64.310701 450.438411 64.310701zM416.300916 767.090792c-175.312818-6.186909-277.727349-44.104497-331.571674-94.858438-13.743002 12.947893-20.426215 26.736944-20.426215 41.074487l0 109.534695c0 75.584466 149.138692 136.846738 404.439262 136.846738 25.547863 0 50.411133-0.734734 74.865081-1.951445C478.018559 913.042909 431.230953 845.421812 416.300916 767.090792zM479.704968 479.994052c-5.436826 0.032746-10.682293 0.093121-16.242939 0.093121-205.013257 0-320.607972-40.540322-378.919029-96.447633-13.620206 13.08604-20.239973 26.953885-20.239973 41.352827l0 110.252033c0 70.087265 125.744889 127.931694 343.408257 136.536676C408.024415 598.927815 434.948625 532.154016 479.704968 479.994052zM703.989127 448.356494c-141.204999 0-255.674077 114.438379-255.674077 255.674077 0 141.204999 114.468055 255.658727 255.674077 255.658727s255.706823-114.453728 255.706823-255.658727C959.69595 562.794873 845.194126 448.356494 703.989127 448.356494zM863.811136 767.870552 703.894983 767.870552l0 95.948259L543.982924 703.902658 703.894983 543.990598l0 95.949282 159.91513 0L863.810113 767.870552z" p-id="24020"></path></svg>