<?xml version="1.0" standalone="no"?><!DOCTYPE svg PUBLIC "-//W3C//DTD SVG 1.1//EN" "http://www.w3.org/Graphics/SVG/1.1/DTD/svg11.dtd"><svg t="1565144483975" class="icon" viewBox="0 0 1024 1024" version="1.1" xmlns="http://www.w3.org/2000/svg" p-id="2732" xmlns:xlink="http://www.w3.org/1999/xlink" width="200" height="200"><defs><style type="text/css"></style></defs><path d="M377.344 299.008v304.128c0 24.064-24.064 43.52-53.76 43.52s-53.76-19.456-53.76-43.52V299.008h-20.992c-19.968 0-35.84-18.944-35.84-41.984 0-23.04 15.872-41.984 35.84-41.984h143.36c19.968 0 35.84 18.944 35.84 41.984 0 23.04-16.384 41.984-35.84 41.984h-14.848zM883.712 1024H140.288C62.976 1024 0 961.536 0 885.248V138.752C0 62.464 62.976 0 140.288 0h743.424C961.024 0 1024 62.464 1024 138.752v745.984c0 76.8-62.976 139.264-140.288 139.264zM140.288 69.632c-38.912 0-70.144 31.232-70.144 69.632v745.984c0 38.4 31.232 69.632 70.144 69.632h743.424c38.912 0 70.144-31.232 70.144-69.632V138.752c0-38.4-31.232-69.632-70.144-69.632H140.288z m681.472 229.376h-223.744c-22.528 0-40.448-18.944-40.448-41.984 0-23.04 17.92-41.984 40.448-41.984h224.256c22.528 0 40.448 18.944 40.448 41.984-0.512 23.552-18.432 41.984-40.96 41.984z m0 281.6h-223.744c-22.528 0-40.448-18.944-40.448-41.984 0-23.04 17.92-41.984 40.448-41.984h224.256c22.528 0 40.448 18.944 40.448 41.984-0.512 23.552-18.432 41.984-40.96 41.984z m0 281.6h-619.52c-22.528 0-40.448-18.944-40.448-41.984 0-23.04 17.92-41.984 40.448-41.984h619.52c22.528 0 40.448 18.944 40.448 41.984 0 23.552-17.92 41.984-40.448 41.984z" p-id="2733"></path></svg>