<?xml version="1.0" standalone="no"?><!DOCTYPE svg PUBLIC "-//W3C//DTD SVG 1.1//EN" "http://www.w3.org/Graphics/SVG/1.1/DTD/svg11.dtd"><svg t="1565252626227" class="icon" viewBox="0 0 1024 1024" version="1.1" xmlns="http://www.w3.org/2000/svg" p-id="2584" xmlns:xlink="http://www.w3.org/1999/xlink" width="200" height="200"><defs><style type="text/css"></style></defs><path d="M378.029346 1023.97952a64.852036 64.852036 0 0 1-48.212369-21.759564l-51.625634-56.318874-30.719386 50.34566a78.078438 78.078438 0 0 1-5.546556 6.82653 64.425378 64.425378 0 0 1-71.251908 16.213009 70.82525 70.82525 0 0 1-42.665813-66.558669V121.17091A132.264021 132.264021 0 0 1 256.00512 0h511.98976a137.383919 137.383919 0 0 1 92.584815 42.665813A114.34438 114.34438 0 0 1 895.99232 121.17091v831.130044a70.82525 70.82525 0 0 1-42.665813 66.558669 64.425378 64.425378 0 0 1-70.82525-16.213009 28.159437 28.159437 0 0 1-5.119898-7.253189l-30.292727-49.065685-52.905609 56.318874a63.99872 63.99872 0 0 1-88.318234 6.82653L512 933.954654l-93.438131 75.51849a64.852036 64.852036 0 0 1-40.532523 14.506376z m-13.226402-81.065045z m294.394112 0zM512 842.649814a63.99872 63.99872 0 0 1 40.532523 14.506376l91.731498 73.811857 58.025507-62.718745a64.425378 64.425378 0 0 1 47.359052-20.906249 61.012113 61.012113 0 0 1 47.359053 20.479591 23.466197 23.466197 0 0 1 5.546556 7.253188l8.106504 12.799744v-767.98464a30.292727 30.292727 0 0 0-10.239795-19.626275A52.905609 52.905609 0 0 0 767.99488 85.331627H256.00512c-16.639667 0-42.665813 20.052932-42.665813 35.839283v767.98464l8.95982-14.933034a42.665813 42.665813 0 0 1 5.546556-6.826531 60.158797 60.158797 0 0 1 47.359053-20.47959 64.852036 64.852036 0 0 1 47.785711 21.332907l57.17219 62.718745 91.30484-73.811857a63.99872 63.99872 0 0 1 40.532523-14.506376z m253.008273 85.331626zM597.331627 639.9872H341.336747a42.665813 42.665813 0 0 1 0-85.331626h255.99488a42.665813 42.665813 0 0 1 0 85.331626z m-85.331627-170.663253H341.336747a42.665813 42.665813 0 0 1 0-85.331627h170.663253a42.665813 42.665813 0 0 1 0 85.331627z m170.663253-170.663254H341.336747a42.665813 42.665813 0 0 1 0-85.331626h341.326506a42.665813 42.665813 0 0 1 0 85.331626z" p-id="2585"></path></svg>