<?xml version="1.0" standalone="no"?><!DOCTYPE svg PUBLIC "-//W3C//DTD SVG 1.1//EN" "http://www.w3.org/Graphics/SVG/1.1/DTD/svg11.dtd"><svg t="1565252612842" class="icon" viewBox="0 0 1024 1024" version="1.1" xmlns="http://www.w3.org/2000/svg" p-id="2454" xmlns:xlink="http://www.w3.org/1999/xlink" width="200" height="200"><defs><style type="text/css"></style></defs><path d="M896 960H128a128 128 0 0 1-128-128v-640a128 128 0 0 1 128-128h183.466667A128 128 0 0 1 426.666667 136.533333l26.453333 55.466667H896a128 128 0 0 1 128 128v512a128 128 0 0 1-128 128zM85.333333 438.613333v393.386667a42.666667 42.666667 0 0 0 42.666667 42.666667h768a42.666667 42.666667 0 0 0 42.666667-42.666667v-393.386667z m0-85.333333h853.333334V320a42.666667 42.666667 0 0 0-42.666667-42.666667H426.666667a42.666667 42.666667 0 0 1-38.4-24.32l-37.973334-79.36a42.666667 42.666667 0 0 0-38.826666-24.32H128a42.666667 42.666667 0 0 0-42.666667 42.666667z" p-id="2455"></path></svg>