<?xml version="1.0" standalone="no"?><!DOCTYPE svg PUBLIC "-//W3C//DTD SVG 1.1//EN" "http://www.w3.org/Graphics/SVG/1.1/DTD/svg11.dtd"><svg t="1565252608165" class="icon" viewBox="0 0 1024 1024" version="1.1" xmlns="http://www.w3.org/2000/svg" p-id="2324" xmlns:xlink="http://www.w3.org/1999/xlink" width="200" height="200"><defs><style type="text/css"></style></defs><path d="M841.386667 960H42.666667a42.666667 42.666667 0 0 1-27.733334-10.666667 25.6 25.6 0 0 1-3.413333-3.413333 42.666667 42.666667 0 0 1-11.52-27.306667V192a128 128 0 0 1 128-128h183.466667A128 128 0 0 1 426.666667 136.533333l26.453333 55.466667H810.666667a128 128 0 0 1 128 128v75.946667h42.666666a42.666667 42.666667 0 0 1 34.133334 17.066666 44.8 44.8 0 0 1 6.826666 37.546667l-139.946666 478.72a42.666667 42.666667 0 0 1-40.96 30.72z m-741.973334-85.333333H810.666667l113.92-393.386667H213.333333zM128 149.333333a42.666667 42.666667 0 0 0-42.666667 42.666667v426.666667L140.373333 426.666667a42.666667 42.666667 0 0 1 42.666667-30.72H853.333333V320a42.666667 42.666667 0 0 0-42.666666-42.666667h-384a42.666667 42.666667 0 0 1-38.4-24.32l-37.973334-79.36a42.666667 42.666667 0 0 0-38.826666-24.32z" p-id="2325"></path></svg>