<?xml version="1.0" standalone="no"?>
<!DOCTYPE svg PUBLIC "-//W3C//DTD SVG 1.1//EN" "http://www.w3.org/Graphics/SVG/1.1/DTD/svg11.dtd"><svg t="1564999638359"
    class="icon" viewBox="0 0 1024 1024" version="1.1" xmlns="http://www.w3.org/2000/svg" p-id="6034"
    xmlns:xlink="http://www.w3.org/1999/xlink" width="200" height="200">
    <defs>
        <style type="text/css"></style>
    </defs>
    <path
        d="M443.733333 584.533333c29.866667 0 59.733333-4.266667 89.6-4.266667 46.933333-34.133333 102.4-55.466667 166.4-59.733333 38.4-25.6 64-59.733333 64-98.133333L763.733333 332.8c0 89.6-145.066667 145.066667-320 145.066667-174.933333 0-320-55.466667-320-145.066667l0 89.6C123.733333 512 264.533333 584.533333 443.733333 584.533333z"
        p-id="6035"></path>
    <path
        d="M422.4 797.866667c-166.4-4.266667-298.666667-59.733333-298.666667-145.066667l0 89.6c0 89.6 145.066667 157.866667 320 157.866667 0 0 0 0 0 0C430.933333 870.4 422.4 836.266667 422.4 797.866667 422.4 797.866667 422.4 797.866667 422.4 797.866667z"
        p-id="6036"></path>
    <path
        d="M426.666667 742.4c8.533333-38.4 25.6-76.8 46.933333-106.666667-8.533333 0-21.333333 0-29.866667 0-174.933333 0-320-55.466667-320-145.066667l0 89.6C123.733333 669.866667 260.266667 738.133333 426.666667 742.4z"
        p-id="6037"></path>
    <path
        d="M443.733333 422.4c174.933333 0 320-72.533333 320-162.133333L763.733333 209.066667c0-89.6-145.066667-162.133333-320-162.133333-174.933333 0-320 72.533333-320 162.133333l0 51.2C123.733333 349.866667 264.533333 422.4 443.733333 422.4z"
        p-id="6038"></path>
    <path
        d="M844.8 733.866667c-4.266667-12.8-8.533333-25.6-17.066667-38.4 8.533333-8.533333 34.133333-46.933333 12.8-68.266667l-8.533333-8.533333c-17.066667-17.066667-55.466667 8.533333-68.266667 17.066667-12.8-8.533333-25.6-12.8-38.4-17.066667 0-12.8-12.8-55.466667-38.4-55.466667L682.666667 563.2c-21.333333 0-34.133333 46.933333-38.4 55.466667-12.8 4.266667-25.6 8.533333-38.4 17.066667-8.533333-8.533333-46.933333-34.133333-68.266667-12.8l-8.533333 8.533333c-17.066667 17.066667 12.8 59.733333 17.066667 68.266667-4.266667 12.8-12.8 21.333333-17.066667 34.133333-12.8 0-59.733333 12.8-59.733333 38.4l0 8.533333c0 21.333333 46.933333 34.133333 59.733333 38.4 4.266667 12.8 8.533333 25.6 17.066667 34.133333-4.266667 8.533333-29.866667 51.2-17.066667 68.266667l8.533333 8.533333c21.333333 21.333333 68.266667-12.8 68.266667-12.8l0-4.266667c12.8 8.533333 25.6 12.8 38.4 17.066667 4.266667 8.533333 17.066667 59.733333 38.4 59.733333l8.533333 0c29.866667 0 38.4-55.466667 38.4-55.466667l-4.266667 0c12.8-4.266667 25.6-8.533333 38.4-17.066667 8.533333 4.266667 51.2 29.866667 64 17.066667l8.533333-8.533333c21.333333-21.333333-12.8-64-12.8-64 8.533333-12.8 12.8-25.6 17.066667-38.4 12.8-4.266667 55.466667-17.066667 55.466667-38.4l0-8.533333C900.266667 742.4 849.066667 733.866667 844.8 733.866667zM686.933333 900.266667c-68.266667 0-119.466667-55.466667-119.466667-119.466667s55.466667-119.466667 119.466667-119.466667c68.266667 0 119.466667 55.466667 119.466667 119.466667S755.2 900.266667 686.933333 900.266667z"
        p-id="6039"></path>
    <path
        d="M686.933333 699.733333c-42.666667 0-81.066667 34.133333-81.066667 81.066667 0 42.666667 34.133333 81.066667 81.066667 81.066667 42.666667 0 81.066667-34.133333 81.066667-81.066667C768 733.866667 729.6 699.733333 686.933333 699.733333zM686.933333 819.2c-21.333333 0-38.4-17.066667-38.4-38.4s17.066667-38.4 38.4-38.4 38.4 17.066667 38.4 38.4S708.266667 819.2 686.933333 819.2z"
        p-id="6040"></path>
</svg>