<?xml version="1.0" standalone="no"?><!DOCTYPE svg PUBLIC "-//W3C//DTD SVG 1.1//EN" "http://www.w3.org/Graphics/SVG/1.1/DTD/svg11.dtd"><svg t="1565230725462" class="icon" viewBox="0 0 1024 1024" version="1.1" xmlns="http://www.w3.org/2000/svg" p-id="12072" xmlns:xlink="http://www.w3.org/1999/xlink" width="200" height="200"><defs><style type="text/css"></style></defs><path d="M872.5 941H159c-49.9 0-90.5-40.6-90.5-90.5V197.3c0-49.9 40.6-90.5 90.5-90.5h713.5c49.9 0 90.5 40.6 90.5 90.5v653.2c0 49.9-40.6 90.5-90.5 90.5zM159 176.8c-11.3 0-20.5 9.2-20.5 20.5v653.2c0 11.3 9.2 20.5 20.5 20.5h713.5c11.3 0 20.5-9.2 20.5-20.5V197.3c0-11.3-9.2-20.5-20.5-20.5H159z" p-id="12073"></path><path d="M819.4 410.8H211c-19.3 0-35-15.7-35-35s15.7-35 35-35h608.4c19.3 0 35 15.7 35 35s-15.7 35-35 35z" p-id="12074"></path><path d="M687.8 452.8c-19.3 0-35-15.7-35-35V334c0-19.3 15.7-35 35-35s35 15.7 35 35v83.8c0 19.3-15.7 35-35 35zM819.4 681.8H211c-19.3 0-35-15.7-35-35s15.7-35 35-35h608.4c19.3 0 35 15.7 35 35s-15.7 35-35 35z" p-id="12075"></path><path d="M379.8 723.8c-19.3 0-35-15.7-35-35V605c0-19.3 15.7-35 35-35s35 15.7 35 35v83.8c0 19.3-15.7 35-35 35z" p-id="12076"></path></svg>