<?xml version="1.0" encoding="utf-8"?>
<!-- Generator: Adobe Illustrator 23.0.0, SVG Export Plug-In . SVG Version: 6.00 Build 0)  -->
<svg version="1.1" id="图层_1" xmlns="http://www.w3.org/2000/svg" xmlns:xlink="http://www.w3.org/1999/xlink" x="0px" y="0px"
	 viewBox="0 0 396.9 198.4" style="enable-background:new 0 0 396.9 198.4;" xml:space="preserve">
<path d="M6,115.9V82.5c6.6,0,118.8,0,126.3,0c47.2-0.1,107.6-2.1,127.5-21.1c15.1-10.5,31-21.2,69.5-21.2v0.3c1-0.1,2.1-0.1,3.1-0.3
	h13.4l-10.5-26.6c-0.3-0.8,0-1.8,0.7-2.5c0.4-0.3,0.8-0.4,1.3-0.4c0.4,0,1,0.1,1.3,0.4l52.3,40.2c0.6,0.4,0.8,1,0.8,1.7
	s-0.3,1.3-0.8,1.7l-52.2,40c-0.7,0.6-1.8,0.6-2.5,0s-1-1.6-0.7-2.5l10.5-26.6h-18.8c-29,0.3-39.6,7.6-52.9,16.7
	c-8.5,5.8-17.4,11.9-30.8,16.7c13.4,4.8,22.4,11,30.8,16.7c13.3,9.1,23.9,16.3,52.9,16.7h18.8l-10.5-26.6c-0.3-0.8,0-1.8,0.7-2.5
	c0.7-0.6,1.8-0.6,2.5,0l52.2,40.6c0.6,0.4,0.8,1,0.8,1.7c0,0.7-0.3,1.3-0.8,1.7l-52.2,40c-0.4,0.3-0.8,0.4-1.3,0.4
	c-1.1,0-2.1-1-2.1-2.1c0-0.3,0-0.6,0.1-0.8l10.5-26.6h-13.4c0,0-1.3-0.1-3.1-0.3v0.3c-38.5,0-54.2-10.8-69.5-21.2
	c-15.8-10.9-30.7-21.1-79.1-21.1h-48.4L6,115.9z"/>
</svg>
