<?xml version="1.0" standalone="no"?><!DOCTYPE svg PUBLIC "-//W3C//DTD SVG 1.1//EN" "http://www.w3.org/Graphics/SVG/1.1/DTD/svg11.dtd"><svg t="1565779823301" class="icon" viewBox="0 0 1024 1024" version="1.1" xmlns="http://www.w3.org/2000/svg" p-id="20173" xmlns:xlink="http://www.w3.org/1999/xlink" width="200" height="200"><defs><style type="text/css"></style></defs><path d="M953.368 0h-785.75A132.437 132.437 0 0 0 35.865 131.755v759.808A132.437 132.437 0 0 0 167.619 1024h785.749a34.133 34.133 0 0 0 34.133-34.133V34.133A34.133 34.133 0 0 0 953.368 0z m-785.75 68.267h750.934v691.541H167.619a130.39 130.39 0 0 0-63.488 17.067v-645.12a64.17 64.17 0 0 1 63.488-63.488z m750.934 887.466H167.619a63.488 63.488 0 0 1 0-127.658h750.933v127.658z" p-id="20174"></path></svg>