<?xml version="1.0" standalone="no"?>
<!DOCTYPE svg PUBLIC "-//W3C//DTD SVG 1.1//EN" "http://www.w3.org/Graphics/SVG/1.1/DTD/svg11.dtd"><svg t="1565264896791"
    class="icon" viewBox="0 0 1024 1024" version="1.1" xmlns="http://www.w3.org/2000/svg" p-id="1787"
    xmlns:xlink="http://www.w3.org/1999/xlink" width="200" height="200">
    <defs>
        <style type="text/css"></style>
    </defs>
    <path
        d="M788.978889 1024H227.469469c-109.562814 0-198.774591-89.211777-198.774591-198.774591V341.280318c0-109.562814 89.211777-198.774591 198.774591-198.77459h561.50942c109.562814 0 198.774591 89.211777 198.77459 198.77459v483.945091c0 109.562814-89.211777 198.774591-198.77459 198.774591zM227.469469 189.479504C143.761431 189.479504 75.540661 257.572281 75.540661 341.408312v483.945091c0 83.708037 68.092777 151.928808 151.928808 151.928809h561.50942c83.708037 0 151.928808-68.092777 151.928808-151.928809V341.280318c0-83.708037-68.092777-151.928808-151.928808-151.928808H227.469469z"
         p-id="1788"></path>
    <path
        d="M595.324056 770.699991L554.110007 750.092966c-0.63997-0.255988-0.895958-1.023952-0.511976-1.663921L919.276721 17.071665c0.255988-0.63997 1.023952-0.895958 1.663921-0.511975L962.154691 37.166714c0.63997 0.255988 0.895958 1.023952 0.511976 1.663921L596.987977 770.188015c-0.383982 0.63997-1.023952 0.895958-1.663921 0.511976z"
         p-id="1789"></path>
    <path
        d="M586.492474 787.211209c-7.039667 0-13.95134-1.663921-20.351037-4.86377l-3.58383-1.791915c-11.007479-5.503739-19.071097-14.847297-22.910916-26.366752-3.839818-11.519455-2.943861-23.934867 2.431885-34.814352l346.863581-694.111142c5.503739-10.879485 14.847297-19.071097 26.366751-22.910916 11.519455-3.839818 23.934867-2.943861 34.814352 2.431885l3.711825 1.791915c22.526934 11.263467 31.614503 38.65417 20.351036 61.181104l-346.86358 694.111143c-5.503739 10.879485-14.847297 19.071097-26.366752 22.910915-4.735776 1.663921-9.599546 2.431885-14.463315 2.431885z m0.639969-46.845782h0.255988-0.255988z m-1.023951 0h0.895957c-0.255988-0.127994-0.63997-0.127994-0.895957 0zM929.260248 46.894254L583.932595 740.237433l1.791915 0.127994L932.332103 47.022248l-3.071855-0.127994zM447.747042 453.403011H249.100445c-12.927388 0-23.422891-10.495503-23.422891-23.422892s10.495503-23.422891 23.422891-23.422891h198.646597c12.927388 0 23.422891 10.495503 23.422891 23.422891s-10.495503 23.422891-23.422891 23.422892z"
         p-id="1790"></path>
    <path
        d="M746.4849 663.569062H265.483669c-12.927388 0-23.422891-10.495503-23.422891-23.422891s10.495503-23.422891 23.422891-23.422892h481.001231c12.927388 0 23.422891 10.495503 23.422891 23.422892s-10.495503 23.422891-23.422891 23.422891z"
         p-id="1791"></path>
</svg>