<?xml version="1.0" standalone="no"?><!DOCTYPE svg PUBLIC "-//W3C//DTD SVG 1.1//EN" "http://www.w3.org/Graphics/SVG/1.1/DTD/svg11.dtd"><svg t="1565775144415" class="icon" viewBox="0 0 1024 1024" version="1.1" xmlns="http://www.w3.org/2000/svg" p-id="4732" xmlns:xlink="http://www.w3.org/1999/xlink" width="200" height="200"><defs><style type="text/css"></style></defs><path d="M80.738462 848.738462H945.230769c17.723077 0 31.507692 13.784615 31.507693 31.507692v61.046154c0 17.723077-13.784615 31.507692-31.507693 31.507692H80.738462c-17.723077 0-31.507692-13.784615-31.507693-31.507692v-61.046154c0-17.723077 13.784615-31.507692 31.507693-31.507692z m0-277.661539H945.230769c17.723077 0 31.507692 13.784615 31.507693 31.507692v61.046154c0 17.723077-13.784615 31.507692-31.507693 31.507693H80.738462c-17.723077 0-31.507692-13.784615-31.507693-31.507693v-61.046154c0-17.723077 13.784615-31.507692 31.507693-31.507692zM630.153846 293.415385h315.076923c17.723077 0 31.507692 13.784615 31.507693 31.507692v61.046154c0 17.723077-13.784615 31.507692-31.507693 31.507692H630.153846c-17.723077 0-31.507692-13.784615-31.507692-31.507692v-61.046154c0-17.723077 13.784615-31.507692 31.507692-31.507692z m-155.569231 131.938461L328.861538 64.984615c-3.938462-5.907692-9.846154-11.815385-17.723076-11.815384h-112.246154c-5.907692 0-13.784615 3.938462-15.753846 11.815384L49.230769 425.353846c-1.969231 5.907692 1.969231 15.753846 9.846154 15.753846h70.892308c5.907692 0 13.784615-5.907692 15.753846-11.815384l27.569231-76.8h171.323077l29.538461 76.8c1.969231 5.907692 9.846154 11.815385 15.753846 11.815384h70.892308c9.846154 0 15.753846-7.876923 13.784615-15.753846z m-267.815384-167.384615l45.292307-114.215385h9.846154l49.23077 114.215385h-104.369231z" p-id="4733"></path></svg>