<?xml version="1.0" standalone="no"?>
<!DOCTYPE svg PUBLIC "-//W3C//DTD SVG 1.1//EN" "http://www.w3.org/Graphics/SVG/1.1/DTD/svg11.dtd"><svg t="1565265122129"
    class="icon" viewBox="0 0 1024 1024" version="1.1" xmlns="http://www.w3.org/2000/svg" p-id="23227"
    xmlns:xlink="http://www.w3.org/1999/xlink" width="200" height="200">
    <defs>
        <style type="text/css"></style>
    </defs>
    <path
        d="M938.7 85.3H85.3C38.2 85.3 0 123.5 0 170.7v682.7c0 47.1 38.2 85.3 85.3 85.3h853.3c47.1 0 85.3-38.2 85.3-85.3V170.7c0.1-47.2-38.1-85.4-85.2-85.4z m21.3 768c0 11.8-9.6 21.3-21.3 21.3H85.3c-11.8 0-21.3-9.6-21.3-21.3V170.7c0-11.8 9.6-21.3 21.3-21.3h853.3c11.8 0 21.3 9.6 21.3 21.3v682.6z"
        p-id="23228"></path>
    <path
        d="M512 266.1c30.7 0 94.1 16.5 94.1 67.7 0 148.8-27.8 209.4-36.2 224.5-18.9 33.4-10.9 74.9 18.8 98.7 17.1 13.7 36.3 23.9 54.9 33.8 32 17 62.5 33.2 86.9 67.3h-437c24.4-34.1 54.9-50.3 86.9-67.3 18.6-9.9 37.8-20.1 54.9-33.8 29.8-23.8 37.7-65.3 18.9-98.7-8.5-15-36.2-75.7-36.2-224.5-0.1-51.2 63.3-67.7 94-67.7m0-51.2c-65.7 0-145.3 39.6-145.3 118.9 0 152.7 27.6 222.6 42.9 249.7 6.4 11.3 3.9 25.4-6.2 33.5C360.3 651.4 288 664.2 240 746.7c-3.6 6.2-5.3 13.5-5.3 20.7 0 23.1 18.7 41.8 41.9 41.8h471c23.1 0 41.9-18.7 41.9-41.8 0-7.2-1.6-14.5-5.3-20.7-48-82.5-120.4-95.3-163.4-129.7-10.1-8.1-12.6-22.2-6.2-33.5 15.3-27.1 42.9-97 42.9-249.7-0.2-79.3-80-118.9-145.5-118.9z"
        p-id="23229"></path>
</svg>