<?xml version="1.0" standalone="no"?>
<!DOCTYPE svg PUBLIC "-//W3C//DTD SVG 1.1//EN" "http://www.w3.org/Graphics/SVG/1.1/DTD/svg11.dtd"><svg t="1565264933075"
    class="icon" viewBox="0 0 1024 1024" version="1.1" xmlns="http://www.w3.org/2000/svg" p-id="22278"
    xmlns:xlink="http://www.w3.org/1999/xlink" width="200" height="200">
    <defs>
        <style type="text/css"></style>
    </defs>
    <path
        d="M767.820925 153.901869v35.814929h-102.32837v-35.814929h-306.98511v35.814929h-102.32837v-35.814929h-102.32837v716.298591h716.29859v-716.298591h-102.32837z m68.253023 680.483661H188.02838v-537.223943H836.073948v537.223943z"
        fill="" p-id="22279"></path>
    <path
        d="M256.179075 368.791446h102.32837v35.81493h-102.32837v-35.81493zM324.432098 404.606376h34.075347v71.629859H324.432098v-71.629859zM256.179075 440.421305H324.432098v35.81493h-68.253023v-35.81493z"
        fill="" p-id="22280"></path>
    <path
        d="M256.179075 476.236235h34.075347v71.629859h-34.075347v-71.629859zM290.35675 512.051164h68.253023v35.81493h-68.253023v-35.81493zM392.68512 404.606376H426.760468v107.444788h-34.075348v-107.444788zM460.835815 404.606376h34.075347v107.444788h-34.075347v-107.444788zM426.760468 368.791446h34.075347v35.81493H426.760468v-35.81493zM426.760468 512.051164h34.075347v35.81493H426.760468v-35.81493zM392.68512 368.791446H426.760468v35.81493h-34.075348v-35.81493z"
        fill="" p-id="22281"></path>
    <path
        d="M392.68512 512.051164H426.760468v35.81493h-34.075348v-35.81493zM460.835815 512.051164h34.075347v35.81493h-34.075347v-35.81493zM460.835815 368.791446h34.075347v35.81493h-34.075347v-35.81493zM529.088838 368.791446h68.253023v35.81493H529.088838v-35.81493zM563.164185 404.606376h34.075347v143.259718h-34.075347v-143.259718z"
        fill="" p-id="22282"></path>
    <path
        d="M529.088838 512.051164h102.32837v35.81493H529.088838v-35.81493zM665.492555 368.791446h34.075347v71.629859h-34.075347v-71.629859zM665.492555 440.421305h102.32837v35.81493h-102.32837v-35.81493z"
        fill="" p-id="22283"></path>
    <path
        d="M733.745578 476.236235h34.075347v71.629859H733.745578v-71.629859zM665.492555 512.051164h68.253023v35.81493h-68.253023v-35.81493zM699.670231 368.791446h68.253023v35.81493h-68.253023v-35.81493zM426.760468 619.495953h170.581393v35.814929H426.760468v-35.814929zM392.68512 726.940741H631.417208v35.81493H392.68512v-35.81493z"
        fill="" p-id="22284"></path>
</svg>