<?xml version="1.0" standalone="no"?>
<!DOCTYPE svg PUBLIC "-//W3C//DTD SVG 1.1//EN" "http://www.w3.org/Graphics/SVG/1.1/DTD/svg11.dtd"><svg t="1565264913443"
    class="icon" viewBox="0 0 1024 1024" version="1.1" xmlns="http://www.w3.org/2000/svg" p-id="2063"
    xmlns:xlink="http://www.w3.org/1999/xlink" width="200" height="200">
    <defs>
        <style type="text/css"></style>
    </defs>
    <path
        d="M944 896h-112V544a320 320 0 0 0-640 0v352H80a16 16 0 0 0-16 16v64a16 16 0 0 0 16 16h864a16 16 0 0 0 16-16v-64a16 16 0 0 0-16-16z"
        fill="" p-id="2064"></path>
    <path d="M464 32l96 0 0 128-96 0 0-128Z" fill="" p-id="2065"></path>
    <path d="M214.490073 124.635656l83.138439-48 64 110.851252-83.138439 48-64-110.851252Z" fill="" p-id="2066"></path>
    <path d="M44.500805 329.537794l48-83.138439 110.851252 64-48 83.138439-110.851252-64Z" fill="" p-id="2067"></path>
    <path d="M820.641513 310.361345l110.851251-64 48 83.138438-110.851251 64-48-83.138438Z" fill="" p-id="2068"></path>
    <path d="M662.335355 187.388344l64-110.851252 83.138439 48-64 110.851252-83.138439-48Z" fill="" p-id="2069"></path>
    <path
        d="M638.72 528h-101.6l19.04-132.96a8 8 0 0 0-13.92-6.24L379.2 578.88a8 8 0 0 0 6.08 13.12h101.6l-19.04 132.96a8 8 0 0 0 13.92 6.24L644.8 541.12a8 8 0 0 0-6.08-13.12z"
        p-id="2070"></path>
</svg>