<?xml version="1.0" standalone="no"?><!DOCTYPE svg PUBLIC "-//W3C//DTD SVG 1.1//EN" "http://www.w3.org/Graphics/SVG/1.1/DTD/svg11.dtd"><svg t="1565763360854" class="icon" viewBox="0 0 1024 1024" version="1.1" xmlns="http://www.w3.org/2000/svg" p-id="816" xmlns:xlink="http://www.w3.org/1999/xlink" width="200" height="200"><defs><style type="text/css"></style></defs><path d="M175.36 960C125.696 960 64 894.016 64 840.64V320h896v513.024c1.152 54.592-65.152 126.976-116.16 126.976H175.424zM768 0v128h-128l-0.256-128H384v128H256V0H169.92C75.904 0 0 90.496 0 202.24v619.52C0 933.568 75.904 1024 169.92 1024h684.096C948.096 1024 1024 933.632 1024 821.76V202.24C1024 91.904 948.032 0 854.016 0H768zM192 832h128v-128H192v128z m0-256h128V448H192v128z m256 0h128V448H448v128z m256 0h128V448h-128v128z m0 256h128v-128h-128v128z m-256 0h128v-128H448v128z" p-id="817"></path></svg>