<?xml version="1.0" encoding="utf-8"?>
<!-- Generator: Adobe Illustrator 23.0.0, SVG Export Plug-In . SVG Version: 6.00 Build 0)  -->
<svg version="1.1" id="图层_1" xmlns="http://www.w3.org/2000/svg" xmlns:xlink="http://www.w3.org/1999/xlink" x="0px" y="0px"
	 viewBox="0 0 200 200" style="enable-background:new 0 0 200 200;" xml:space="preserve">
<path d="M135.2,107H107H93H64.8V93H93H107h28.1V107z M142.2,36.7c11.6,0,21.1,9.4,21.1,21.1v84.4c0,11.6-9.4,21.1-21.1,21.1H57.8
	c-11.6,0-21.1-9.4-21.1-21.1V57.8c0-11.6,9.4-21.1,21.1-21.1L142.2,36.7 M142.2,29.7H57.8c-15.5,0-28.1,12.6-28.1,28.1v84.4
	c0,15.5,12.6,28.1,28.1,28.1h84.4c15.5,0,28.1-12.6,28.1-28.1V57.8C170.3,42.3,157.7,29.7,142.2,29.7z"/>
</svg>
