<?xml version="1.0" standalone="no"?><!DOCTYPE svg PUBLIC "-//W3C//DTD SVG 1.1//EN" "http://www.w3.org/Graphics/SVG/1.1/DTD/svg11.dtd"><svg t="1564135756843" class="icon" viewBox="0 0 1024 1024" version="1.1" xmlns="http://www.w3.org/2000/svg" p-id="64349" xmlns:xlink="http://www.w3.org/1999/xlink" width="200" height="200"><defs><style type="text/css"></style></defs><path d="M606.208 256c21.504 0 39.424-17.92 39.424-39.424v-39.424c0-21.504-17.92-39.424-39.424-39.424s-39.424 17.92-39.424 39.424v39.424c0 22.016 17.408 39.424 39.424 39.424z" fill="" p-id="64350"></path><path d="M1012.224 169.472L854.528 11.776C846.848 4.096 837.12 0 826.88 0H118.272C53.248 0 0 53.248 0 118.272v787.456c0 65.024 52.736 117.76 118.272 118.272H906.24c65.024 0 118.272-53.248 118.272-118.272V197.12c-0.512-10.752-5.12-20.48-12.288-27.648zM334.848 78.848h354.304v210.432c0 13.824-11.776 25.6-25.6 25.6H360.448c-13.824 0-25.6-11.776-25.6-25.6V78.848z m413.184 866.304H275.968v-271.872c0-24.064 19.456-43.008 43.52-43.52h386.048c24.064 0 43.008 19.456 43.52 43.52v271.872z m197.12-39.424c0 21.504-17.408 39.424-39.424 39.424h-76.8v-271.872c0-67.072-55.296-121.856-122.368-121.856H318.976c-67.072 0-121.856 55.296-121.856 121.856v271.872H118.272c-21.504 0-39.424-17.92-39.424-39.424V118.272c0-21.504 17.408-39.424 39.424-39.424H256v210.944C256 346.624 303.104 394.24 360.448 394.24h303.104c56.832 0 104.448-47.104 104.448-104.448V78.848h43.52l133.632 134.144v692.736z" fill="" p-id="64351"></path></svg>