<?xml version="1.0" standalone="no"?><!DOCTYPE svg PUBLIC "-//W3C//DTD SVG 1.1//EN" "http://www.w3.org/Graphics/SVG/1.1/DTD/svg11.dtd"><svg t="1566377279706" class="icon" viewBox="0 0 1024 1024" version="1.1" xmlns="http://www.w3.org/2000/svg" p-id="2660" xmlns:xlink="http://www.w3.org/1999/xlink" width="200" height="200"><defs><style type="text/css"></style></defs><path d="M1024 402.432c0-18.432-19.456-25.6-34.304-28.16L680.96 329.728 542.72 50.688c-6.144-11.776-16.384-25.088-30.72-25.088s-24.576 13.312-30.208 25.088l-138.24 279.04-309.248 44.544C18.944 376.832 0 384 0 402.432c0 11.264 8.192 21.504 15.36 29.184l224.256 217.088-52.736 306.688c-0.512 4.096-1.024 7.68-1.024 12.288 0 15.872 8.192 30.72 25.6 30.72 8.704 0 16.896-3.072 24.576-7.168l276.48-144.896 276.48 144.896c7.168 4.096 15.872 7.168 24.576 7.168 17.92 0 25.088-14.336 25.088-30.72 0-4.096 0-7.68-0.512-12.288l-52.736-306.688L1008.64 431.616c7.168-7.68 15.36-17.92 15.36-29.184z" p-id="2661"></path></svg>