<?xml version="1.0" standalone="no"?><!DOCTYPE svg PUBLIC "-//W3C//DTD SVG 1.1//EN" "http://www.w3.org/Graphics/SVG/1.1/DTD/svg11.dtd"><svg t="1563264223801" class="icon" viewBox="0 0 1024 1024" version="1.1" xmlns="http://www.w3.org/2000/svg" p-id="5599" xmlns:xlink="http://www.w3.org/1999/xlink" width="200" height="200"><defs><style type="text/css"></style></defs><path d="M791.02558815 972.80303408a36.33607111 36.33607111 0 0 1-16.99081482-4.18702223L513.96608 831.86422518 253.86097778 968.61601185a36.40888889 36.40888889 0 0 1-52.82929778-38.38710518L250.70554075 640.64474075 40.27429925 435.54133333a36.40888889 36.40888889 0 0 1 20.18266075-62.10142815L351.26689185 331.16918518l130.05255112-263.58821926a36.40888889 36.40888889 0 0 1 65.30541036 0L676.67740445 331.16918518l290.80993185 42.25858371a36.40888889 36.40888889 0 0 1 20.18266073 62.10142814L777.23875555 640.64474075l49.67386075 289.6327111a36.40888889 36.40888889 0 0 1-35.88702815 42.5741274zM143.93040592 434.82529185L315.24636445 601.80859259a36.40888889 36.40888889 0 0 1 10.4614874 32.23400296l-40.43813926 235.79610075 211.76623408-111.33838222a36.40888889 36.40888889 0 0 1 33.87240296 0l211.76623407 111.33838222-40.45027555-235.79610075a36.40888889 36.40888889 0 0 1 10.4736237-32.23400296l171.31595852-166.98330074-236.75486815-34.4064a36.40888889 36.40888889 0 0 1-27.40375704-19.91566222l-105.88918518-214.53330963-105.87704889 214.53330963a36.40888889 36.40888889 0 0 1-27.41589333 19.91566222z" p-id="5600"></path></svg>