<?xml version="1.0" standalone="no"?>
<!DOCTYPE svg PUBLIC "-//W3C//DTD SVG 1.1//EN" "http://www.w3.org/Graphics/SVG/1.1/DTD/svg11.dtd" >
<svg xmlns="http://www.w3.org/2000/svg">
<metadata>Generated by IcoMoon</metadata>
<defs>
<font id="bpm-icon" horiz-adv-x="1024">
<font-face units-per-em="1024" ascent="1024" descent="0" />
<missing-glyph horiz-adv-x="1024" />
<glyph unicode="&#x20;" horiz-adv-x="0" d="" />
<glyph unicode="&#xe900;" glyph-name="excel" d="M903.402 694.857h-159.451v-97.69h159.451v97.69zM903.402 569.344h-159.451v-99.679h159.451v99.679zM903.402 820.487h-159.451v-97.69h159.451v97.69zM903.402 324.315h-159.451v-99.679h159.451v99.679zM977.13 920.049h-382.508c-3.979 0-7.987 0-11.995-1.989v105.531l-567.852-113.518v-771.131l565.921-111.528v101.522c3.979-1.96 7.987-1.96 11.966-1.96h382.479c19.953 0 33.938 15.945 33.938 35.781v721.481c0.098 0.949 0.154 2.050 0.154 3.164 0 17.84-14.307 32.338-32.074 32.646h-0.029zM397.4 360.126l-67.76 4.008-51.785 129.492-55.764-121.505-63.751 3.979 81.715 147.456-73.728 161.441 63.781 4.008 43.769-121.534h7.987l47.777 129.492 67.76 4.008-85.723-171.301 85.723-169.545zM967.153 170.891h-386.487v53.745h129.492v99.679h-129.492v21.943h129.492v97.719h-129.492v25.951h129.492v99.679h-129.492v27.941h129.492v97.69h-129.492v25.951h129.492v97.69h-129.492v55.764h386.487v-703.781zM903.402 443.86h-159.451v-97.719h159.451v97.719z" />
<glyph unicode="&#xe901;" glyph-name="shuaxin" d="M688 257.728c-48.634-35.087-109.434-56.118-175.146-56.118-10.443 0-20.762 0.531-30.932 1.568l1.278-0.106c-3.392 0.32-6.72 0.896-10.176 1.344-6.528 0.896-13.056 1.728-19.392 3.008-5.391 1.074-9.311 2.004-13.189 3.037l1.541-0.349c-8.039 1.762-14.241 3.416-20.348 5.288l1.852-0.488c-2.88 0.896-5.76 1.92-8.704 2.944-10.638 3.54-19.002 6.833-27.173 10.484l1.893-0.756c-9.714 4.236-17.384 8.068-24.854 12.218l1.494-0.762-1.024 0.512c-34.921 19.684-64.464 44.534-88.73 73.905l-0.422 0.527c-1.216 1.472-2.368 3.136-3.584 4.672-41.92 52.547-67.264 119.927-67.264 193.226 0 0.086 0 0.173 0 0.259v-0.013h71.168c0.001 0 0.003 0 0.005 0 1.962 0 3.667 1.104 4.526 2.724l0.013 0.028c0.393 0.697 0.624 1.53 0.624 2.417 0 1.058-0.329 2.040-0.891 2.847l0.011-0.016-119.488 181.632c-0.923 1.435-2.512 2.372-4.32 2.372s-3.397-0.937-4.308-2.352l-0.012-0.020-119.552-181.632c-1.024-1.472-1.216-3.52-0.256-5.248s2.688-2.752 4.544-2.752h71.168c0-86.016 26.496-165.696 71.424-231.552 0.576-0.96 0.96-1.92 1.536-2.816 4.672-6.72 9.856-12.992 14.848-19.392 1.856-2.368 3.648-4.864 5.568-7.232 7.36-9.088 15.168-17.472 23.232-25.856l2.24-2.304c34.368-34.889 75.063-63.432 120.241-83.788l2.511-1.012 7.424-3.328c8.512-3.584 17.344-6.72 26.112-9.728 4.16-1.408 8.256-2.88 12.48-4.16 7.744-2.304 15.616-4.224 23.552-6.144 5.312-1.28 10.496-2.624 15.936-3.648 2.176-0.512 4.288-1.152 6.528-1.472 7.488-1.344 14.976-2.112 22.528-3.008l8.064-1.152c12.076-1.303 26.084-2.047 40.265-2.047 86.61 0 166.745 27.726 232.012 74.787l-1.173-0.805c12.562 9.074 20.641 23.679 20.641 40.17 0 10.49-3.269 20.216-8.844 28.215l0.106-0.161c-8.776 12.723-23.271 20.955-39.689 20.955-10.464 0-20.146-3.344-28.038-9.021l0.143 0.098zM915.776 512.128c0 0.097 0 0.211 0 0.326 0 86.161-26.587 166.112-72.004 232.097l0.9-1.383c-0.704 1.152-1.152 2.304-1.792 3.264-6.416 8.961-12.212 16.464-18.245 23.763l0.581-0.723-2.112 2.752c-39.972 49.029-90.442 87.948-148.113 113.613l-2.543 1.011c-2.601 1.137-4.178 1.887-5.741 2.662l0.941-0.422c-5.917 2.618-15.304 6.195-24.82 9.494l-3.532 1.066c-3.648 1.152-7.040 2.432-10.624 3.456-5.693 1.867-14.187 4.159-22.794 6.157l-2.55 0.499c-4.672 1.088-9.408 2.304-14.208 3.264-2.368 0.448-4.544 1.152-6.912 1.6-6.4 1.152-12.8 1.6-19.2 2.432-4.352 0.576-8.768 1.28-13.184 1.728-9.386 0.889-20.515 1.468-31.752 1.598l-0.248 0.002c-1.92 0-3.84 0.32-5.824 0.32-0.2 0-0.437 0.001-0.675 0.001-86.593 0-166.716-27.702-231.99-74.727l1.176 0.806c-12.603-9.071-20.714-23.699-20.714-40.222 0-10.495 3.272-20.225 8.852-28.227l-0.106 0.161c8.794-12.684 23.277-20.886 39.676-20.886 10.467 0 20.154 3.342 28.052 9.016l-0.144-0.098c48.75 35.086 109.662 56.111 175.485 56.111 10.436 0 20.75-0.529 30.914-1.56l-1.278 0.105 8.128-1.152c7.36-0.832 14.592-1.92 21.696-3.328 3.136-0.576 6.272-1.408 9.344-2.112 6.976-1.6 14.016-3.328 20.8-5.376l6.4-2.24c7.808-2.56 15.424-5.312 22.976-8.512l2.368-1.088c45.12-19.648 84.736-49.92 115.648-87.808l0.576-0.768c43.398-53.052 69.696-121.561 69.696-196.212 0-0.184 0-0.368 0-0.552v0.029h-71.104c-0.016 0-0.036 0-0.055 0-2.828 0-5.12-2.292-5.12-5.12 0-1.076 0.332-2.074 0.898-2.898l-0.011 0.017 119.616-181.568c0.928-1.407 2.501-2.322 4.288-2.322s3.36 0.916 4.276 2.303l0.012 0.019 119.488 181.568c2.804 0.031 5.065 2.311 5.065 5.12 0 2.828-2.292 5.12-5.12 5.12-1.752 0-3.299-0.88-4.222-2.222l-0.011-0.017-71.104 0.064z" />
<glyph unicode="&#xe902;" glyph-name="WORD" d="M1023.232 882.112c0.212 1.538 0.333 3.316 0.333 5.122s-0.121 3.584-0.356 5.326l0.022-0.203c-2.554 20.143-19.583 35.561-40.213 35.561-1.641 0-3.26-0.098-4.85-0.287l0.192 0.019c-124.318 2.407-248.739 0-373.314 1.076v95.275h-69.663c-178.461-32.527-356.973-63.619-535.383-95.531v-833.655c177.59-31.758 355.129-62.134 532.72-94.763h72.276v93.482h349.341c19.875 1.178 41.798 0 58.804 12.037 13.625 21.565 10.245 48.201 11.32 72.276-1.229 234.397 0.82 469.562-1.229 704.266zM388.885 349.649c-19.414-10.245-48.201 0-71.712-1.229-15.982 79.14-33.961 157.562-47.791 236.855-13.625-76.835-31.349-153.208-46.869-229.582-22.436 1.178-44.82 2.51-67.358 4.098-19.26 104.802-42.054 208.99-60.238 314.049 19.875 0.973 39.903 1.793 60.238 2.51 12.037-75.861 25.612-151.415 36.163-227.43 16.135 77.808 32.885 155.616 49.43 233.68 22.128 1.332 44.205 2.254 66.59 3.483 15.367-80.471 31.297-160.738 48.15-240.748 13.318 82.469 27.712 164.887 41.798 247.51 23.255 0.82 46.511 2.151 69.766 3.586-26.534-115.508-49.379-231.989-78.166-346.78zM989.066 130.516h-384.173v95.275h302.626v48.201h-302.523v59.111h302.626v48.201h-302.626v59.009h302.626v48.201h-302.626v60.238h302.626v46.408h-302.626v60.187h302.626v47.023h-302.626v59.624h302.626v47.586h-302.626v83.34h384.173z" />
<glyph unicode="&#xe903;" glyph-name="uniE903" d="M837.874 522.654c-54.452 54.45-126.847 84.437-203.849 84.437-77.008 0-149.405-29.987-203.853-84.437-54.448-54.449-84.435-126.845-84.435-203.851s29.988-149.402 84.438-203.852 126.845-84.438 203.85-84.438c48.126 0 95.786 12.117 137.829 35.041 1.617 0.719 3 1.507 4.295 2.413l-0.082-0.054c4.637 3.212 8.119 7.97 9.801 13.401 0.732 2.279 1.153 4.9 1.153 7.62 0 0.010 0 0.020 0 0.031v-0.002c0 14.052-11.235 25.485-25.047 25.485-4.645-0.005-8.989-1.291-12.698-3.524l0.111 0.062c-0.802-0.472-1.47-0.917-2.114-1.392l0.066 0.047c-34.654-18.228-73.836-27.864-113.317-27.864-132.89 0-241.006 106.585-241.006 237.597 0 131.010 108.113 237.594 241.006 237.594 132.894 0 241.010-106.582 241.010-237.594 0-38.421-9.018-75.092-26.807-109.001-0.804-1.093-1.553-2.332-2.186-3.637l-0.062-0.142c-1.635-3.381-2.463-7.028-2.463-10.843 0-13.587 10.838-24.642 24.158-24.642 5.799 0.011 11.113 2.083 15.248 5.523l-0.039-0.031c2.269 1.872 4.177 4.141 5.698 6.79l0.757 1.447c21.573 41.022 32.976 87.345 32.976 133.967 0.001 77.002-29.988 149.398-84.44 203.849zM729.266 185.203c4.012-3.613 9.35-5.823 15.203-5.823 0.003 0 0.006 0 0.009 0v0c12.568 0 22.793 10.225 22.793 22.793 0 6.473-2.676 12.495-7.409 16.813l0.057 0.041-66.131 53.67-40.626 33.223v159.28l-0.035 1.535h-0.114c-1.25 11.485-10.93 20.28-22.649 20.28-11.718 0-21.395-8.797-22.643-20.28h-0.143v-172.991l0.001-0.349 0.127-0.268c0.321-2.508 0.949-4.784 1.853-6.915l-0.064 0.171c1.385-3.302 3.295-6.121 5.658-8.491l-0.001 0.001 4.103-3.347-0.027-0.037 110.037-89.305zM678.096 734.814l0.001-90.568c14.115-1.713 35.75-5.362 56.603-14.913v105.479c0 45.647-33.707 90.566-79.246 90.566h-45.282v-56.602h33.961c22.784 0 33.963-11.123 33.963-33.963zM553.569 712.171c18.728-4.245 33.961 11.664 33.961 22.643v124.526c-6.368 30.503-33.961 22.643-33.961 22.643-10.944 0-22.643-11.664-22.643-22.643v-124.526c0-21.569 22.643-22.643 22.643-22.643zM338.475 168.782h-169.807c-22.774 0-33.961 11.12-33.961 33.961v532.070c0 22.839 11.188 33.961 33.961 33.963h33.961v56.602h-45.285c-45.537 0-79.244-42.409-79.244-88.057v-537.333c0-45.648 33.707-87.813 79.244-87.813h215.094c-11.378 10.366-13.002 13.159-33.963 56.606zM304.514 825.379h203.774v-56.602h-203.774zM247.911 712.171c16.606-4.245 33.961 11.664 33.961 22.643v124.526c-9.441 27.838-22.642 22.643-22.642 22.643-10.944 0-32.546 0.362-33.961-22.643v-124.526c0.001-17.69 22.642-22.643 22.642-22.643z" />
<glyph unicode="&#xe904;" glyph-name="1" d="M606.208 768c21.504 0 39.424 17.92 39.424 39.424v39.424c0 21.504-17.92 39.424-39.424 39.424s-39.424-17.92-39.424-39.424v-39.424c0-22.016 17.408-39.424 39.424-39.424zM1012.224 854.528l-157.696 157.696c-7.68 7.68-17.408 11.776-27.648 11.776h-708.608c-65.024 0-118.272-53.248-118.272-118.272v-787.456c0-65.024 52.736-117.76 118.272-118.272h787.968c65.024 0 118.272 53.248 118.272 118.272v708.608c-0.512 10.752-5.12 20.48-12.288 27.648zM334.848 945.152h354.304v-210.432c0-13.824-11.776-25.6-25.6-25.6h-303.104c-13.824 0-25.6 11.776-25.6 25.6v210.432zM748.032 78.848h-472.064v271.872c0 24.064 19.456 43.008 43.52 43.52h386.048c24.064 0 43.008-19.456 43.52-43.52v-271.872zM945.152 118.272c0-21.504-17.408-39.424-39.424-39.424h-76.8v271.872c0 67.072-55.296 121.856-122.368 121.856h-387.584c-67.072 0-121.856-55.296-121.856-121.856v-271.872h-78.848c-21.504 0-39.424 17.92-39.424 39.424v787.456c0 21.504 17.408 39.424 39.424 39.424h137.728v-210.944c0-56.832 47.104-104.448 104.448-104.448h303.104c56.832 0 104.448 47.104 104.448 104.448v210.944h43.52l133.632-134.144v-692.736z" />
<glyph unicode="&#xe905;" glyph-name="2" d="M943.104 807.936q-8.192-9.216-15.36-16.384l-12.288-12.288q-6.144-6.144-11.264-10.24l-138.24 139.264q8.192 8.192 20.48 19.456t20.48 17.408q20.48 16.384 44.032 14.336t37.888-9.216q15.36-8.192 34.304-28.672t29.184-43.008q5.12-14.336 6.656-33.792t-15.872-36.864zM551.936 694.272l158.72 158.72 138.24-138.24q-87.040-87.040-158.72-157.696-30.72-29.696-59.904-58.88t-53.248-52.224-39.424-38.4l-18.432-18.432q-7.168-7.168-16.384-14.336t-20.48-12.288-31.232-12.288-41.472-13.824-40.96-12.288-29.696-6.656q-19.456-2.048-20.992 3.584t1.536 25.088q1.024 10.24 5.12 30.208t8.192 40.448 8.704 38.4 7.68 25.088q5.12 11.264 10.752 19.456t15.872 18.432zM899.072 545.792q21.504 0 40.96-10.24t19.456-41.984v-232.448q0-28.672-10.752-52.736t-29.184-41.984-41.984-27.648-48.128-9.728h-571.392q-24.576 0-48.128 10.752t-41.472 29.184-29.184 43.52-11.264 53.76v570.368q0 20.48 11.264 42.496t29.184 39.936 40.448 29.696 45.056 11.776h238.592q28.672 0 40.448-20.992t11.776-42.496-11.776-41.472-40.448-19.968h-187.392q-21.504 0-34.816-14.848t-13.312-36.352v-481.28q0-20.48 13.312-34.304t34.816-13.824h474.112q21.504 0 36.864 13.824t15.36 34.304v190.464q0 14.336 6.656 24.576t16.384 16.384 21.504 8.704 23.040 2.56z" />
<glyph unicode="&#xe906;" glyph-name="3" d="M266.284 310.984l-200.871 200.87 200.871 200.87 52.564-52.564-148.306-148.306 148.306-148.307-52.564-52.563zM758.135 310.984l-52.563 52.564 148.305 148.307-148.306 148.306 52.563 52.564 200.871-200.87-200.87-200.871zM336.306 140.451l281.971 770.404 70.511-25.813-281.97-770.404-70.512 25.813z" />
<glyph unicode="&#xe907;" glyph-name="4" d="M64 960h896v-896h-896v896zM144 880v-736h736v736h-736zM257 720h511v-80h-511v80zM257 552h511v-80h-511v80zM352 384h320v-80h-320v80z" />
<glyph unicode="&#xe908;" glyph-name="5" d="M743.619 170.667h-463.238c-60.594 0-109.714 49.121-109.714 109.714v0 463.238c0 60.594 49.121 109.714 109.714 109.714h463.238c60.594 0 109.714-49.121 109.714-109.714v0-463.238c0-60.594-49.121-109.714-109.714-109.714v0zM280.381 780.19c-20.198 0-36.571-16.374-36.571-36.571v0-463.238c0-20.198 16.374-36.571 36.571-36.571h463.238c20.198 0 36.571 16.374 36.571 36.571v0 463.238c0 20.198-16.374 36.571-36.571 36.571v0zM202.118 664.625h614.644v-73.143h-614.644zM382.050 628.053h73.143v-420.815h-73.143z" />
<glyph unicode="&#xe909;" glyph-name="11" d="M64 960h192v-192h-192v192zM416 960h192v-192h-192v192zM768 960h192v-192h-192v192zM64 608h192v-192h-192v192zM416 608h192v-192h-192v192zM768 608h192v-192h-192v192zM64 256h192v-192h-192v192zM416 256h192v-192h-192v192zM768 256h192v-192h-192v192z" />
<glyph unicode="&#xe90a;" glyph-name="6" d="M832.2 759.4h-639.9c-35.2 0-64 28.8-64 64s28.8 64 64 64h639.8c35.2 0 64-28.8 64-64 0.1-35.2-28.7-64-63.9-64zM832.2 446.1h-636.1c-35.2 0-64 28.8-64 64s28.8 64 64 64h636.1c35.2 0 64-28.8 64-64s-28.8-64-64-64zM832.2 127.1h-639.9c-35.2 0-64 28.8-64 64s28.8 64 64 64h639.8c35.2 0 64-28.8 64-64 0.1-35.2-28.7-64-63.9-64z" />
<glyph unicode="&#xe90b;" glyph-name="-" d="M87.387 872.22h44.696c12.331 0 22.348-10.040 22.348-22.348v-44.696c0-12.353-10.017-22.348-22.348-22.348h-44.696c-12.331 0-22.348 9.996-22.348 22.348v44.696c0 12.308 10.017 22.348 22.348 22.348zM355.564 872.22h581.048c12.332 0 22.349-10.040 22.349-22.348v-44.696c0-12.353-10.017-22.348-22.349-22.348h-581.048c-12.331 0-22.348 9.996-22.348 22.348v44.696c-0.001 12.308 10.017 22.348 22.348 22.348zM87.387 246.476h44.696c12.331 0 22.348-10.041 22.348-22.348v-44.696c0-12.351-10.017-22.348-22.348-22.348h-44.696c-12.331 0-22.348 9.997-22.348 22.348v44.697c0 12.307 10.017 22.347 22.348 22.347zM355.564 246.476h581.048c12.332 0 22.349-10.041 22.349-22.348v-44.696c0-12.351-10.017-22.348-22.349-22.348h-581.048c-12.331 0-22.348 9.997-22.348 22.348v44.697c-0.001 12.307 10.017 22.347 22.348 22.347zM87.387 559.347h44.696c12.331 0 22.348-10.040 22.348-22.348v-44.696c0-12.351-10.017-22.348-22.348-22.348h-44.696c-12.331 0-22.348 9.997-22.348 22.348v44.696c0 12.309 10.017 22.348 22.348 22.348zM355.564 559.347h581.048c12.332 0 22.349-10.040 22.349-22.348v-44.696c0-12.351-10.017-22.348-22.349-22.348h-581.048c-12.331 0-22.348 9.997-22.348 22.348v44.696c-0.001 12.309 10.017 22.348 22.348 22.348z" />
<glyph unicode="&#xe90c;" glyph-name="7" d="M672 608v64c0 35.346-28.654 64-64 64v0h-256c-35.346 0-64-28.654-64-64v0-320c0-35.346 28.654-64 64-64v0h96v-64h-160c-35.346 0-64 28.654-64 64v0 448c0 35.346 28.654 64 64 64v0h384c35.346 0 64-28.654 64-64v0-128h-64zM352 672h128v-32h-128v32zM352 576h192v-32h-192v32zM352 480h128v-32h-128v32zM576 512h32v-288h-32v288zM640 512h192v-32h-192v32zM640 384h32v-160h-32v160zM800 384h32v-160h-32v160zM544 448h160v-32h-160v32zM672 480h128v-32h-128v32zM672 416h96v-32h-96v32zM672 352h96v-32h-96v32zM736 320h32v-64h-32v64zM512 352h96v-32h-96v32zM576 384h96v-32h-96v32zM544 512h64v-32h-64v32zM640 320h64v-32h-64v32zM704 288h64v-32h-64v32zM768 384h64v-32h-64v32zM768 256h64v-32h-64v32zM512 320h32v-32h-32v32zM608 544h32v-32h-32v32zM704 544h32v-32h-32v32zM768 448h32v-32h-32v32z" />
<glyph unicode="&#xe90d;" glyph-name="8" d="M864 448l-352 363.968-352-363.968-64 64 416 416 416-416zM256 224h256v320h192v-320h64v256h63.488v-320h-640v320h64.512v-256zM576 224h64v256h-64v-256z" />
<glyph unicode="&#xe90e;" glyph-name="9" d="M751.646 617.634c0 15.535-15.535 31.070-31.070 31.070h-484.673c-15.535 0-31.070-15.535-31.070-31.070s15.535-31.069 31.070-31.069h484.675c15.534 0 31.069 15.535 31.069 31.070zM394.353 474.717h-152.238c-18.641 0-34.175-12.427-34.175-31.069 0-15.534 15.534-31.069 34.175-31.069h152.238c18.641 0 34.176 15.535 34.176 31.070 0 18.64-15.535 31.068-34.176 31.068zM394.353 300.731h-152.238c-18.641 0-34.175-12.427-34.175-31.069 0-15.534 15.534-31.068 34.175-31.068h152.238c18.641 0 34.176 15.534 34.176 31.068 0 18.642-15.535 31.070-34.176 31.070zM720.577 822.69h-484.675c-15.535 0-31.070-15.534-31.070-31.069s15.535-31.069 31.070-31.069h484.675c15.534 0 31.069 15.535 31.069 31.070s-15.535 31.068-31.070 31.068zM490.667 64.609h-385.255v888.569h770.51v-410.11c0-18.64 12.427-31.068 31.068-31.068s31.070 12.428 31.070 31.069v441.179c0 15.534-15.535 31.068-31.070 31.068h-832.647c-15.534 0-31.069-15.534-31.069-31.068v-950.71c0-15.534 15.535-31.068 31.070-31.068h416.323c18.641 0 31.069 12.427 31.069 31.069s-12.428 31.069-31.070 31.069zM751.646 499.573c-136.704 0-248.552-111.848-248.552-248.55s111.848-248.552 248.552-248.552 248.55 111.848 248.55 248.551-111.847 248.551-248.55 248.551zM751.646 64.609c-102.528 0-186.414 83.886-186.414 186.413s83.886 186.414 186.414 186.414 186.413-83.886 186.413-186.414-83.886-186.413-186.413-186.413zM844.852 282.091h-62.137v62.138c0 15.534-15.535 31.069-31.070 31.069s-31.068-15.535-31.068-31.070v-93.206c0-15.534 15.534-31.069 31.069-31.069h93.206c15.535 0 31.070 15.535 31.070 31.070s-15.535 31.068-31.070 31.068z" />
<glyph unicode="&#xe90f;" glyph-name="10" d="M644.608 749.504h-444.288v-55.872h444.288v55.872zM644.608 602.624h-444.288v-55.872h444.288v55.872zM200.32 392h444.288v55.872h-444.288v-55.872zM66.368 969.856h715.84v-610.496h62.848v664.64h-845.056v-1021.44h463.104v69.888h-396.8v897.408zM699.776 313.088c-131.008 0-237.184-68.032-237.184-151.872 0-83.968 106.176-152 237.184-152 131.072 0 237.184 68.032 237.184 152 0 83.84-106.176 151.872-237.184 151.872zM699.776 64.64c-99.008 0-179.264 43.2-179.264 96.576 0 53.248 80.256 96.512 179.264 96.512 99.072 0 179.392-43.264 179.392-96.512-0.064-53.376-80.384-96.576-179.392-96.576zM699.84 224.768c-35.134 0-63.616-28.482-63.616-63.616s28.482-63.616 63.616-63.616v0c35.134 0 63.616 28.482 63.616 63.616s-28.482 63.616-63.616 63.616v0z" />
<glyph unicode="&#xe910;" glyph-name="12" d="M485.547 273.067c4.008-5.375 10.349-8.819 17.493-8.819s13.485 3.443 17.452 8.761l0.041 0.057c6.4 8.96 160 223.147 199.253 291.84 20.925 35.771 33.28 78.761 33.28 124.636 0 138.086-111.941 250.027-250.027 250.027s-250.027-111.941-250.027-250.027c0-45.876 12.355-88.866 33.92-125.824l-0.64 1.187c39.253-68.693 192.853-282.88 199.253-291.84zM503.040 896c114.189-0.242 206.691-92.745 206.933-206.91v-0.023c-0.131-37.827-10.247-73.262-27.847-103.845l0.541 1.019c-30.72-53.76-137.813-204.8-180.053-264.107-42.667 59.307-149.333 210.347-180.053 264.107-17.042 29.569-27.154 65.001-27.307 102.782v0.045c0.243 114.338 92.988 206.934 207.36 206.934 0.15 0 0.3 0 0.45 0h-0.023zM503.040 579.84c0.127-0.001 0.277-0.001 0.427-0.001 55.611 0 100.693 45.082 100.693 100.693s-45.082 100.693-100.693 100.693c-55.611 0-100.693-45.081-100.693-100.692v0c0 0 0-0.001 0-0.001 0-55.461 44.839-100.45 100.243-100.692h0.023zM503.040 738.133c0.126 0.001 0.276 0.002 0.425 0.002 32.047 0 58.027-25.979 58.027-58.027s-25.979-58.027-58.027-58.027c-32.047 0-58.027 25.979-58.027 58.027 0 0.149 0.001 0.299 0.002 0.448v-0.023c0 31.812 25.788 57.6 57.6 57.6v0zM919.040 182.613l-98.987 231.253c-3.25 7.586-10.652 12.803-19.272 12.803-0.125 0-0.249-0.001-0.373-0.003h-85.314c-11.782 0-21.333-9.551-21.333-21.333v0c0.234-11.687 9.647-21.099 21.311-21.333h72.129l80.64-188.16h-728.747l80.213 188.16h72.107c11.782 0 21.333 9.551 21.333 21.333v0c0 11.782-9.551 21.333-21.333 21.333h-85.333c-8.691-0.084-16.155-5.25-19.571-12.665l-0.056-0.135-101.12-231.253c-1.612-2.895-2.561-6.35-2.561-10.027s0.949-7.132 2.616-10.134l-0.054 0.107c3.98-5.703 10.509-9.387 17.9-9.387 0.007 0 0.014 0 0.021 0h796.159c0.006 0 0.013 0 0.020 0 7.39 0 13.92 3.684 17.853 9.316l0.047 0.071c2.095 3.325 3.338 7.369 3.338 11.703 0 3.010-0.599 5.88-1.685 8.497l0.054-0.147z" />
<glyph unicode="&#xe911;" glyph-name="13" horiz-adv-x="1147" d="M1064.925 1024h-983.013c-45.239 0-81.912-36.673-81.912-81.912v0-655.3c0-45.239 36.673-81.912 81.912-81.912v0h409.594v-122.884h-204.796c-22.612-0.018-40.938-18.345-40.956-40.955v-40.958h655.346v40.956c-0.018 22.618-18.353 40.948-40.971 40.957h-204.782v122.884h409.578c0.005 0 0.010 0 0.016 0 45.239 0 81.912 36.673 81.912 81.912v0 655.3c0 45.239-36.673 81.912-81.912 81.912-0.006 0-0.011 0-0.017 0h0.001zM532.462 286.773c-0.020 0.474-0.031 1.031-0.031 1.59 0 22.628 18.344 40.972 40.972 40.972s40.972-18.344 40.972-40.972c0-0.571-0.012-1.138-0.035-1.703l0.003 0.081c-0.902-21.914-18.886-39.337-40.939-39.337-22.064 0-40.055 17.441-40.938 39.289l-0.003 0.080zM81.912 942.088h983.012v-573.388h-983.012v573.388z" />
<glyph unicode="&#xe912;" glyph-name="_1" horiz-adv-x="1034" d="M287.978 327.695c0-9.231 3.211-13.244 8.829-14.85 2.213-0.737 4.763-1.176 7.411-1.204h200.684c3.033 0.071 5.922 0.58 8.641 1.465l-0.213-0.060c4.013 1.204 6.823 5.217 7.625 12.241s1.003 14.248 1.605 22.074h-235.587c0.401-6.221 0.401-13.244 1.003-19.666zM521.759 436.056h-234.383v-33.311h234.383zM295.001 519.736c-2.597-1.792-4.561-4.339-5.588-7.322l-0.031-0.103c-1.41-4.856-2.221-10.433-2.221-16.2 0-1.785 0.078-3.552 0.23-5.298l-0.016 0.227h234.383c1.605 20.067-3.211 30.101-15.251 30.903h-200.67c-0.596 0.070-1.287 0.11-1.986 0.11-3.252 0-6.303-0.859-8.939-2.364l0.089 0.047zM561.893 732.246c-15.997 24.723-30.207 53.13-41.183 83.097l-0.958 2.99c-0.901 2.958-3.474 5.125-6.592 5.416l-0.030 0.002c-6.888 2.005-12.811 4.394-18.431 7.291l0.571-0.268c-1.309 0.722-2.424 1.453-3.48 2.257l0.068-0.050c0.062-0.686 0.098-1.485 0.098-2.291 0-8.579-4.018-16.22-10.274-21.144l-0.058-0.044c-5.533-4.503-12.668-7.23-20.44-7.23-0.221 0-0.442 0.002-0.663 0.007l0.033-0.001h-104.349v-30.301h140.469c15.431-0.823 27.631-13.535 27.631-29.097 0-16.091-13.045-29.136-29.136-29.136-0.529 0-1.055 0.014-1.578 0.042l0.073-0.003h-68.429c28.469-23.010 49.298-54.454 58.731-90.508l0.266-1.198c4.214 2.207 8.829 4.816 13.846 7.023 17.659 7.826 35.519 15.050 52.776 23.278s33.512 17.458 50.569 26.689l-4.013 5.017c-11.84 15.452-24.482 31.505-35.519 48.161zM475.404 579.536l-4.816 22.475h-1.405c-3.942-2.588-8.773-4.128-13.964-4.128-7.491 0-14.233 3.207-18.929 8.323l-0.017 0.019c-4.179 4.427-8.011 9.28-11.395 14.452l-0.244 0.397q-15.652 22.475-30.703 45.351c-2.691 3.763-5.17 8.045-7.227 12.56l-0.197 0.484c-1.535 3.28-2.431 7.122-2.431 11.173 0 8.9 4.324 16.79 10.985 21.684l0.075 0.052 2.007 2.207h-28.495v-69.031c0.337-6.207 0.528-13.472 0.528-20.781 0-15.371-0.848-30.543-2.5-45.474l0.165 1.84zM581.96 822.748c18.337-41.264 40.718-76.827 67.398-108.665l-0.575 0.705c34.831 28.134 61.917 64.508 78.453 106.213l0.611 1.747h-145.887zM662.228 622.078c-6.421 4.415-12.241 9.432-18.662 14.248-28.235-19.843-60.521-38.882-94.299-55.332l-4.23-1.859h118.797c0.251 0.002 0.549 0.003 0.846 0.003 7.57 0 14.986-0.658 22.194-1.92l-0.766 0.111c19.057-2.576 35.061-13.746 44.194-29.413l0.154-0.286q17.258 9.632 35.519 17.458c-4.866 1.216-8.816 2.453-12.673 3.883l0.833-0.271c-35.084 15.137-65.326 33.015-92.949 54.143l1.042-0.765zM501.692 160.536c0.002 33.201 3.657 65.548 10.585 96.661l-0.551-2.948h-208.496c-2.098-0.115-4.553-0.18-7.023-0.18s-4.926 0.065-7.364 0.194l0.341-0.014c-25.61 0.383-47.436 16.184-56.639 38.516l-0.151 0.414c-3.69 9.294-5.83 20.062-5.83 31.33 0 0.485 0.004 0.969 0.012 1.452l-0.001-0.073v190.436c0.767 33.6 27.805 60.638 61.333 61.404l0.072 0.001 20.067 1.003c0 8.227-1.605 16.054-1.605 23.88v109.767h-42.743l4.013-3.612c5.843-5.139 9.511-12.63 9.511-20.979 0-0.738-0.029-1.47-0.085-2.194l0.006 0.096c-0.533-6.141-2.105-11.794-4.543-16.958l0.128 0.302c-15.772-32.418-33.757-60.351-54.595-85.861l0.615 0.776c-6.824-8.986-15.24-16.377-24.881-21.863l-0.403-0.211c-4.018-2.43-8.871-3.867-14.060-3.867-7.303 0-13.94 2.847-18.863 7.492l0.013-0.013c-5.539 4.913-9.012 12.049-9.012 19.996 0 5.065 1.411 9.801 3.861 13.835l-0.067-0.118c3.881 7.167 8.072 13.342 12.799 19.058l-0.157-0.195c13.115 15.215 25.308 32.071 36.008 49.925l0.915 1.647c7.267 17.357 17.975 31.992 31.362 43.625l0.143 0.121h-52.576c-5.133 0.082-10.018 1.032-14.552 2.707l0.304-0.099c-9.576 3.938-16.617 12.305-18.63 22.481l-0.032 0.195v6.823c3.114 15.313 16.47 26.675 32.479 26.675 1.781 0 3.53-0.141 5.235-0.411l-0.188 0.025h106.355v106.355c-0.045 0.644-0.070 1.397-0.070 2.155 0 10.826 5.196 20.438 13.229 26.48l0.085 0.061c3.117 1.999 6.74 3.944 10.514 5.613l0.523 0.206h11.639c14.69-4.422 25.206-17.828 25.206-33.69 0-2.135-0.191-4.226-0.556-6.256l0.032 0.213v-12.442h104.951c0.014 0 0.031 0 0.047 0 7.668 0 14.679-2.811 20.059-7.458l-0.039 0.033 2.609-1.806c0.173 7.864 3.439 14.933 8.626 20.065l0.003 0.003c6.433 6.005 15.096 9.691 24.621 9.691 0.728 0 1.45-0.022 2.167-0.064l-0.099 0.005h218.129c5.486-0.040 10.836-0.476 16.065-1.282l-0.613 0.078c22.604-1.993 40.198-20.835 40.198-43.787 0-0.833-0.023-1.66-0.069-2.482l0.005 0.114c-0.718-18.736-5.608-36.175-13.761-51.627l0.316 0.657c-15.579-29.759-34.294-55.325-56.24-77.713l0.052 0.053c-9.432-10.234-20.067-20.067-29.699-30.301l3.211-2.609c22.85-17.162 48.876-32.231 76.627-44.030l2.437-0.921c12.046-5.095 22.001-10.133 31.582-15.743l-1.28 0.693c7.417-3.984 12.575-11.34 13.436-19.961l0.009-0.106c0.138-1.024 0.217-2.209 0.217-3.411s-0.079-2.387-0.232-3.548l0.015 0.136c33.479 9.931 72.050 16.033 111.918 16.849l0.457 0.007-1.204 9.833c-1.806 14.85-5.619 34.114-10.034 56.388-7.826 40.134-18.462 93.312-14.448 116.79 11.442 53.976 30.033 101.822 55.062 145.507l-1.282-2.429c2.497 4.204 3.973 9.269 3.973 14.678 0 7.968-3.203 15.188-8.391 20.443l-51.77 51.77c-5.224 5.196-12.425 8.407-20.376 8.407-3.788 0-7.407-0.729-10.722-2.054l0.195 0.069c-1.204 0-115.987-46.355-183.413-45.151-71.304 4.266-137.744 20.314-198.993 46.23l3.941-1.481c-3.613 1.747-7.858 2.768-12.341 2.768s-8.728-1.021-12.514-2.843l0.173 0.075c-54.455-26.784-118.274-43.297-185.732-45.335l-0.691-0.017c-80.268 0-193.045 45.953-194.249 46.355-3.12 1.257-6.739 1.986-10.527 1.986-7.951 0-15.153-3.212-20.378-8.408l0.001 0.001-48.362-45.953c-5.577-5.311-9.045-12.793-9.045-21.085 0-4.205 0.892-8.201 2.497-11.81l-0.074 0.185c20.439-43.181 39.284-94.491 53.649-147.642l1.536-6.673c5.619-43.345-12.642-141.673-20.067-177.593-5.217-16.856-46.154-160.536 20.067-279.734 37.124-67.425 100.335-112.977 189.031-135.452 108.964-27.291 214.918-122.008 216.122-123.613 5.099-4.607 11.89-7.426 19.34-7.426 8.161 0 15.531 3.383 20.786 8.823l0.008 0.008 7.023 6.823c-5.233 25.566-8.229 54.951-8.229 85.034 0 0.37 0 0.741 0.001 1.111v-0.058zM662.228 186.021h277.928v-33.311h-277.928zM662.228 284.149h277.928v-33.311h-277.928zM776.61 379.066h163.546v-33.311h-163.546zM962.029 511.91h-328.698c-39.479-0.114-71.439-32.144-71.439-71.639 0 0 0 0 0 0v0-368.631c0 0 0 0 0 0 0-39.495 31.96-71.525 71.428-71.639h328.709c39.409 0.114 71.325 32.030 71.439 71.428v368.843c0 0 0 0 0 0 0 39.495-31.96 71.525-71.428 71.639h-0.011zM993.334 71.639c0-0.060 0.001-0.13 0.001-0.201 0-17.289-14.016-31.305-31.305-31.305 0 0 0 0-0.001 0h-328.698c0 0 0 0-0.001 0-17.289 0-31.305 14.016-31.305 31.305 0 0.071 0 0.141 0.001 0.212v-0.011 368.631c0 17.289 14.016 31.305 31.305 31.305h328.698c17.289 0 31.305-14.016 31.305-31.305v0z" />
<glyph unicode="&#xe913;" glyph-name="14" d="M102.1 491.6l237-295.5s14.6-20.5 43.9 0c29.3 20.5 520.8 582.2 520.8 582.2s36.6 42.4 10.2 56.3c-26.3 13.9-74.6-38-74.6-38l-476.9-427.9-215 180.7s-57.1 24.1-45.4-57.8z" />
<glyph unicode="&#xe914;" glyph-name="-1" d="M777.2 367h-507.8c-22.7 0-41.1 18.4-41.1 41.1v250.8c0 22.7 18.4 41.1 41.1 41.1h507.8c22.7 0 41.1-18.4 41.1-41.1v-250.8c0-22.7-18.4-41.1-41.1-41.1z" />
<glyph unicode="&#xe915;" glyph-name="15" d="M872.5 83h-713.5c-49.9 0-90.5 40.6-90.5 90.5v653.2c0 49.9 40.6 90.5 90.5 90.5h713.5c49.9 0 90.5-40.6 90.5-90.5v-653.2c0-49.9-40.6-90.5-90.5-90.5zM159 847.2c-11.3 0-20.5-9.2-20.5-20.5v-653.2c0-11.3 9.2-20.5 20.5-20.5h713.5c11.3 0 20.5 9.2 20.5 20.5v653.2c0 11.3-9.2 20.5-20.5 20.5h-713.5zM819.4 613.2h-608.4c-19.3 0-35 15.7-35 35s15.7 35 35 35h608.4c19.3 0 35-15.7 35-35s-15.7-35-35-35zM687.8 571.2c-19.3 0-35 15.7-35 35v83.8c0 19.3 15.7 35 35 35s35-15.7 35-35v-83.8c0-19.3-15.7-35-35-35zM819.4 342.2h-608.4c-19.3 0-35 15.7-35 35s15.7 35 35 35h608.4c19.3 0 35-15.7 35-35s-15.7-35-35-35zM379.8 300.2c-19.3 0-35 15.7-35 35v83.8c0 19.3 15.7 35 35 35s35-15.7 35-35v-83.8c0-19.3-15.7-35-35-35z" />
<glyph unicode="&#xe916;" glyph-name="16" d="M256 320v-64h-192v704h704v-704h-320v64h256v576h-576v-576h128zM832 640v64h192v-704h-704v704h320v-64h-256v-576h576v576h-128z" />
<glyph unicode="&#xe917;" glyph-name="--" d="M366.592 61.952l-154.624 150.016 300.032 300.032-300.032 300.032 154.624 150.016 445.44-450.048-445.44-450.048z" />
<glyph unicode="&#xe918;" glyph-name="--1" d="M657.425 962l154.575-150-300-300 300-300-154.575-150-445.425 450z" />
<glyph unicode="&#xe919;" glyph-name="17" d="M817.788 569.617l-291.665 247.045c-19.854 16.784-48.918 17.193-69.181 0.819l-291.153-235.276c-9.722-7.778-11.155-22.003-3.377-31.623 7.778-9.722 22.003-11.155 31.623-3.377l291.256 235.276c3.48 2.763 8.392 2.763 11.769-0.102l291.665-247.045c4.196-3.582 9.415-5.322 14.532-5.322 6.345 0 12.69 2.661 17.193 7.982 7.982 9.313 6.754 23.538-2.661 31.623zM730.698 511.284c-12.485 0-22.514-10.029-22.514-22.514v-220.028c0-5.117-4.094-9.21-9.21-9.21h-93.128c-5.117 0-9.21 4.094-9.21 9.21v151.461c0 29.883-24.357 54.239-54.239 54.239h-111.549c-29.883 0-54.239-24.357-54.239-54.239v-151.461c0-5.117-4.094-9.21-9.21-9.21h-96.198c-5.117 0-9.21 4.094-9.21 9.21v220.028c0 12.485-10.029 22.514-22.514 22.514s-22.514-10.029-22.514-22.514v-220.028c0-29.883 24.357-54.239 54.239-54.239h96.198c29.883 0 54.239 24.357 54.239 54.239v151.461c0 5.117 4.094 9.21 9.21 9.21h111.549c5.117 0 9.21-4.094 9.21-9.21v-151.461c0-29.883 24.357-54.239 54.239-54.239h93.128c29.883 0 54.239 24.357 54.239 54.239v220.028c0 12.485-10.029 22.514-22.514 22.514z" />
<glyph unicode="&#xe91a;" glyph-name="18" horiz-adv-x="1025" d="M920.91 17.7l-145.602 145.431c-80.46-62.838-183.042-100.756-294.48-100.756-265.491 0-480.715 215.223-480.715 480.715s215.223 480.715 480.715 480.715c265.491 0 480.715-215.223 480.715-480.715 0-111.949-38.267-214.96-102.435-296.666l0.786 1.039 145.431-145.261c10.788-10.809 17.458-25.729 17.458-42.208 0-33-26.752-59.752-59.752-59.752-16.521 0-31.476 6.705-42.292 17.542l-0.001 0.001zM93.169 541.474c0-0.051 0-0.11 0-0.17 0-214.546 173.924-388.469 388.469-388.469s388.469 173.924 388.469 388.469c0 214.546-173.924 388.469-388.469 388.469v0c-214.427-0.145-388.227-173.885-388.469-388.276v-0.023zM481.808 331.965c-0.334-0.009-0.727-0.014-1.122-0.014-24.354 0-44.174 19.413-44.83 43.608l-0.001 0.061v113.435h-115.903c-24.366 0.52-43.918 20.395-43.918 44.837 0 0.303 0.003 0.605 0.009 0.906l-0.001-0.045v6.467c-0.011 0.372-0.017 0.809-0.017 1.247 0 23.563 18.138 42.89 41.214 44.78l0.161 0.011h118.455v111.563c0.672 24.762 20.905 44.579 45.767 44.579 23.963 0 43.625-18.41 45.616-41.857l0.012-0.169v-114.116h118.711c23.193-1.948 41.28-21.253 41.28-44.783 0-0.292-0.003-0.583-0.008-0.873l0.001 0.044v-6.467c0.005-0.256 0.008-0.557 0.008-0.859 0-24.472-19.601-44.365-43.959-44.838l-0.044-0.001h-115.817v-116.583c-1.907-23.184-21.192-41.277-44.704-41.277-0.23 0-0.459 0.002-0.687 0.005h0.035z" />
<glyph unicode="&#xe91b;" glyph-name="19" d="M870.441 223.846l-176.415 176.497c-2.089 2.089-4.342 3.604-6.472 5.284 29.778 45.711 47.145 100.188 47.145 158.925 0 161.219-130.621 291.84-291.881 291.84-161.137 0-291.881-130.621-291.881-291.84 0-161.26 130.744-291.881 291.881-291.881 58.655 0 113.213 17.449 159.007 47.268 1.679-2.253 3.195-4.383 5.243-6.472l176.456-176.497c12.001-12.001 27.73-17.94 43.459-17.94s31.416 5.939 43.459 17.94c23.921 24.003 23.921 62.874 0 86.876zM442.86 364.79c-110.1 0-199.68 89.62-199.68 199.721s89.62 199.68 199.68 199.68 199.721-89.62 199.721-199.68-89.661-199.721-199.721-199.721z" />
<glyph unicode="&#xe91c;" glyph-name="20" d="M446.208 105.216l112.896 154.368-112.896 32.512v-186.88zM47.104 468.48l321.024-97.28 395.264 335.616-306.432-361.472 343.040-105.984 176.64 679.168-929.536-450.048z" />
<glyph unicode="&#xe91d;" glyph-name="21" d="M663.933 723.673h-526.52c-40.503 0-73.431-35.136-73.431-78.331v-502.901c0-43.195 32.927-78.331 73.431-78.331h526.52c40.498 0 73.421 35.136 73.421 78.331v502.9c0 43.196-32.922 78.332-73.421 78.332zM674.405 142.441c0-6.273-4.686-11.372-10.541-11.372h-526.246c-5.581 0-8.75 4-9.849 7.582l-0.895 2.686v504.004c0 6.268 4.686 11.362 10.541 11.362h526.52c5.577 0 10.471-5.367 10.471-11.362v-502.9zM885.864 959.552h-470.52c-17.222 0-31.061-14.536-31.061-32.932 0-18.252 13.839-33.067 31.197-32.998h471.142c5.577 0 10.536-5.372 10.536-11.436v-502.353c-0.037-0.578-0.057-1.253-0.057-1.933 0-8.378 3.161-16.017 8.356-21.791l-0.026 0.030 0.064-0.070c5.654-6.361 13.757-10.438 22.816-10.744l0.053-0.001c17.222 0 31.067 14.74 31.067 33.067v502.901c0 43.264-32.927 78.395-73.565 78.261zM774.481 841.886h-470.52c-17.217 0-31.127-14.74-31.127-33.137 0-18.326 13.909-33.137 31.127-33.137h471.421c5.577 0 10.541-5.372 10.541-11.367v-502.906c0-19.287 13.427-33.753 30.853-33.753 17.292 0 31.131 14.74 31.131 33.067v502.9c0.001 43.196-32.922 78.332-73.425 78.332z" />
<glyph unicode="&#xe91e;" glyph-name="22" d="M540.4 539.5v191.2c0 42.5 12 81.2 37.1 115.6 26.4 36 61.1 60.7 104.4 71.7 69.3 17.5 131.3 2.6 184-46.1 29.4-26.7 49-62.5 55.9-101.6 12.7-70.1-6.7-130.5-58.8-179.5-28.3-26.6-62.5-42.2-100.8-48.3-11-1.8-22.1-2.7-33.3-2.7-61.5-0.2-122.9-0.1-184.4-0.1l-4.1-0.2zM483.9 539.5h-189.9c-50 0-93.8 16.3-131 49.6-30.1 26.5-51 62-59.6 101.2-15.6 69.2 8.1 141.3 61.7 187.7 28.6 24.7 61.6 40 99 44.9 60.6 7.9 113.6-9 158.2-50.9 32.3-30.4 51.7-68 59-111.6 1.7-9.9 2.5-19.9 2.6-29.9 0.2-62.6 0.1-125.1 0.1-187.7l-0.1-3.3zM483.9 483.1v-190.3c0.1-50-16.4-93.8-49.8-131-29.5-32.8-66.1-53.9-109.8-61-66.9-10.9-124.4 8.6-171.9 56.7-25.8 25.8-43.2 58.9-49.9 94.8-11.6 61 2.2 115.9 42.7 163.2 29.8 34.8 68 55.6 113 64.1 12.3 2.3 24.9 3.4 37.4 3.4l188.3 0.1zM540.4 480.9h191.5c38.8 0 74.8-9.8 107.4-31 40-26.1 67.1-62.1 79.3-108.2 16.3-61.3 5-117.9-33.4-168.5-26.4-34.7-61.3-57.5-103.4-68.9-20.8-5.8-42.5-7.7-64-5.6-73.1 7.6-125.8 45-158.9 110.3-10 19.6-15.3 40.7-17.6 62.6-0.7 6.9-0.9 13.8-0.9 20.8-0.1 61.7-0.1 123.4 0 185.2v3.3z" />
<glyph unicode="&#xe91f;" glyph-name="23" d="M640 768h-448c-32 0-64-32-64-64v-576c0-32 32-64 64-64h448c32 0 64 32 64 64v576c0 32-32 64-64 64zM640 128h-448v576h448v-576zM288 512h256c19.2 0 32 12.8 32 32s-12.8 32-32 32h-256c-19.2 0-32-12.8-32-32s12.8-32 32-32zM288 384h256c19.2 0 32 12.8 32 32s-12.8 32-32 32h-256c-19.2 0-32-12.8-32-32s12.8-32 32-32zM288 256h256c19.2 0 32 12.8 32 32s-12.8 32-32 32h-256c-19.2 0-32-12.8-32-32s12.8-32 32-32zM832 960h-448c-32 0-64-32-64-64v-64c0-19.2 12.8-32 32-32s32 12.8 32 32v64h448v-576h-64c-19.2 0-32-12.8-32-32s12.8-32 32-32h64c32 0 64 32 64 64v576c0 32-32 64-64 64z" />
<glyph unicode="&#xe920;" glyph-name="24" d="M589.605 522.338c4.779-4.437 11.118-7.192 18.139-7.192 14.824 0 26.843 12.020 26.843 26.868 0 9.387-4.852 17.603-12.142 22.382l0.317 0.414c-6.875 4.486-14.068 8.485-21.48 12.117 30.452 25.6 49.835 63.927 49.835 106.837 0 77.044-62.44 139.508-139.508 139.508s-139.532-62.464-139.532-139.508c0-42.862 19.358-82.651 49.737-108.227-62.927-30.988-107.544-88.113-113.298-168.448h0.024c0 0-0.024 1.17-0.024 1 0-14.799 11.995-26.063 26.843-26.063 14.799 0 26.819 10.898 26.819 25.722 0 0.171-0.049-0.61-0.049-0.61h0.122c8.046 80.311 71.826 135.631 149.358 135.631 28.599 0 55.223-7.363 77.946-21.236l0.049 0.805zM425.74 683.715c0 47.421 38.449 85.845 85.845 85.845s85.845-38.424 85.845-85.845c0-47.397-38.424-85.845-85.845-85.845s-85.845 38.449-85.845 85.845v0 0zM661.845 410.039c0 7.022 2.877 13.995 7.826 18.968 4.974 4.974 11.947 7.851 18.968 7.851s13.995-2.877 18.968-7.851 7.826-11.947 7.826-18.968h-53.589zM776.094 625.25c6.558-6.193 6.485-6.095 11.947-11.288 5.51-5.193 10.874-19.139 0-30.013-10.85-10.874-142.19-142.19-142.19-142.19s-60.245-25.039-63.439-26.405c-3.145-1.365-5.9 1.707-4.51 4.949s26.405 60.733 26.405 60.733 133.681 134.363 142.434 143.067c8.728 8.728 22.796 7.29 29.355 1.146v0 0zM916.48 945.396h-808.96c-45.934 0-83.139-37.864-83.139-84.553v-507.904c0-46.763 37.205-84.699 83.139-84.699h562.371v73.167l-565.736 0.171v530.554h814.787l0.244-530.603-290.962-0.122v-73.167h288.256c45.909 0 83.139 37.937 83.139 84.699v507.904c0 46.69-37.205 84.553-83.139 84.553v0zM478.013 269.019h79.774v-117.784h-79.774v117.784zM274.822 151.869h488.448v-73.289h-488.448v73.289z" />
<glyph unicode="&#xe921;" glyph-name="25" d="M79.737 422.633c11.171 1.862 18.618 7.447 26.065 13.033 7.447 7.447 11.171 14.895 9.309 24.204v7.447c0 143.36 80.058 275.549 204.8 346.298 9.309 5.585 13.033 13.033 16.756 20.48 1.862 9.309 1.862 18.618-3.724 26.065-5.585 9.309-11.171 14.895-20.48 16.756-11.171 3.724-18.618 1.862-27.927-3.724-148.945-83.782-240.175-240.175-240.175-407.738v-14.895c1.862-14.895 16.756-27.927 35.375-27.927zM703.446 811.753c126.604-70.749 206.662-202.938 206.662-346.298v-5.585c-1.862-9.309 0-16.756 5.585-22.342 7.447-9.309 14.895-14.895 27.927-14.895h3.724c16.756 0 31.651 13.033 33.513 31.651v13.033c0 167.564-91.229 323.956-240.175 405.876-9.309 5.585-16.756 5.585-27.927 3.724-9.309-1.862-14.895-9.309-22.342-16.756-5.585-9.309-7.447-18.618-3.724-26.065 3.724-11.171 9.309-18.618 16.756-22.342zM731.373 132.189h-9.309l-9.309-3.724c-122.88-70.749-284.858-70.749-407.738 0l-3.724 1.862h-11.171c-20.48 0-33.513-14.895-33.513-35.375 0-13.033 5.585-22.342 16.756-31.651 70.749-40.96 152.669-63.302 238.313-63.302 83.782 0 167.564 22.342 238.313 65.164 16.756 13.033 20.48 22.342 20.48 31.651-3.724 18.618-18.618 35.375-39.098 35.375zM1010.646 282.996c-7.447 33.513-29.789 63.302-59.578 80.058-22.342 14.895-46.545 14.895-63.302 14.895-33.513 0-63.302-13.033-87.505-35.375l-1.862-1.862-106.124 61.44v1.862c7.447 22.342 11.171 42.822 11.171 61.44 0 89.367-63.302 165.702-152.669 184.32h-1.862v124.742h1.862c53.993 14.895 91.229 65.164 91.229 122.88-3.724 68.887-59.578 126.604-130.327 126.604s-126.604-57.716-126.604-128.465c0-55.855 35.375-104.262 91.229-122.88h1.862v-121.018h-3.724c-89.367-16.756-152.669-94.953-152.669-184.32 0-22.342 3.724-42.822 11.171-61.44v-1.862l-106.124-61.44-1.862 1.862c-24.204 20.48-57.716 33.513-87.505 33.513-26.065 0-50.269-9.309-63.302-14.895-29.789-14.895-50.269-42.822-57.716-76.335s-7.447-68.887 9.309-96.815c18.618-40.96 61.44-65.164 109.847-65.164 29.789 0 52.131 11.171 63.302 14.895 48.407 26.065 72.611 81.92 57.716 139.636v1.862l104.262 59.578 1.862-1.862c35.375-40.96 89.367-65.164 141.498-65.164 55.855 0 106.124 22.342 143.36 65.164l1.862 1.862 104.262-59.578v-1.862c-11.171-52.131 11.171-106.124 57.716-137.775 18.618-13.033 48.407-20.48 76.335-20.48 5.585 0 11.171 0 14.895 1.862 39.098 5.585 68.887 24.204 91.229 59.578 24.204 40.96 24.204 67.025 16.756 100.538zM193.308 238.313c-3.724-14.895-14.895-26.065-27.927-33.513-9.309-7.447-16.756-9.309-29.789-9.309-20.48 0-40.96 13.033-50.269 29.789-7.447 13.033-11.171 27.927-7.447 42.822s13.033 26.065 27.927 35.375c9.309 5.585 16.756 9.309 27.927 9.309 20.48 0 40.96-13.033 50.269-29.789 11.171-14.895 11.171-31.651 9.309-44.684zM452.101 895.535c0 31.651 26.065 57.716 57.716 57.716s57.716-26.065 57.716-57.716c0-31.651-26.065-57.716-57.716-57.716s-57.716 27.927-57.716 57.716zM511.679 348.16c-65.164 0-121.018 52.131-121.018 119.156s53.993 119.156 121.018 119.156c65.164 0 121.018-52.131 121.018-119.156-1.862-65.164-53.993-119.156-121.018-119.156zM938.035 225.28c-11.171-18.618-27.927-27.927-46.545-27.927-11.171 0-24.204 1.862-33.513 9.309-13.033 9.309-24.204 20.48-27.927 37.236-3.724 13.033-1.862 26.065 7.447 37.236 11.171 18.618 29.789 29.789 48.407 31.651h5.585c11.171 0 22.342-1.862 33.513-13.033 22.342-18.618 26.065-46.545 13.033-74.473z" />
<glyph unicode="&#xe922;" glyph-name="26" horiz-adv-x="1113" d="M538.212 261.78c13.983 1.626 24.735 13.401 24.735 27.687 0 0.181-0.002 0.362-0.005 0.542v-0.027 49.29c0.003 0.151 0.005 0.328 0.005 0.506 0 14.269-10.759 26.026-24.607 27.6l-0.127 0.012h-43.277c-4.15 8.469-9.909 27.186-16.938 40.228l30.15 29.811c4.469 4.384 7.238 10.486 7.238 17.235s-2.77 12.851-7.235 17.231l-0.004 0.004-34.977 34.723c-4.475 4.476-10.659 7.245-17.489 7.245s-13.013-2.769-17.489-7.245v0l-28.88-30.658c-12.958 7.368-31.336 13.127-40.059 16.938v43.616c-1.667 13.99-13.46 24.733-27.763 24.733-0.155 0-0.309-0.001-0.463-0.004h-49.267c-0.128 0.002-0.279 0.003-0.43 0.003-14.286 0-26.060-10.751-27.675-24.603l-0.012-0.13v-43.362c-8.469-4.15-27.101-9.909-40.144-17.362l-29.811 30.658c-4.384 4.469-10.486 7.238-17.235 7.238s-12.851-2.77-17.231-7.235l-0.004-0.004-34.723-34.977c-4.476-4.475-7.245-10.659-7.245-17.489s2.769-13.013 7.245-17.489v0l30.658-28.88c-7.368-13.042-13.127-31.336-16.938-40.228h-43.531c-13.975-1.586-24.733-13.342-24.733-27.611 0-0.148 0.001-0.296 0.003-0.444v0.022-49.46c-0.002-0.128-0.003-0.279-0.003-0.43 0-14.286 10.751-26.060 24.603-27.675l0.13-0.012h43.362c4.065-8.469 9.909-27.101 16.938-40.228l-30.573-29.727c-4.473-4.398-7.245-10.514-7.245-17.277s2.772-12.879 7.242-17.274l0.003-0.003 34.893-34.723c4.475-4.476 10.659-7.245 17.489-7.245s13.013 2.769 17.489 7.245v0l28.88 30.658c13.042-7.368 31.336-13.127 40.144-16.938v-43.87c1.586-13.976 13.342-24.734 27.611-24.734 0.178 0 0.356 0.002 0.533 0.005h49.348c0.254-0.008 0.553-0.013 0.853-0.013 14.289 0 26.066 10.756 27.676 24.613l0.012 0.13v43.362c8.469 4.065 27.016 9.909 40.144 16.938l29.727-30.573c4.364-4.511 10.472-7.312 17.235-7.312s12.871 2.801 17.228 7.305l0.006 0.007 34.469 35.57c4.456 4.485 7.21 10.665 7.21 17.489s-2.754 13.004-7.212 17.49l0.001-0.001-30.489 28.964c7.368 13.042 13.127 31.336 16.938 40.059zM316.491 203.343c-0.050 0-0.11 0-0.169 0-61.461 0-111.284 49.824-111.284 111.284s49.824 111.284 111.284 111.284c61.46 0 111.284-49.823 111.284-111.284v0c0-0.025 0-0.055 0-0.085 0-61.384-49.737-111.151-111.11-111.199h-0.005zM447.338 794.572h397.709v-84.691h-397.709zM942.104 963.615h-591.737c-42.096 0-76.222-34.126-76.222-76.222v0-240.777c12.72 1.781 27.414 2.798 42.346 2.798s29.626-1.017 44.018-2.985l-1.672 0.187v232.308h574.798v-720.637h-321.064c-17.463-32.589-38.709-60.506-63.673-84.595l-0.1-0.096h393.305c42.096 0 76.222 34.126 76.222 76.222v0 737.575c0 42.096-34.126 76.222-76.222 76.222v0zM845.048 604.186h-360.615c38.078-22.432 70.168-50.689 96.157-83.946l0.56-0.745h263.897zM845.048 329.025v84.691h-208.679c8.002-25.055 13.233-54.011 14.542-83.985l0.025-0.706z" />
<glyph unicode="&#xe923;" d="M832 229.304c0-85.21-73.275-152.504-158.505-152.504h-314.79c-85.217 0-156.465 67.295-156.465 152.504v3.121c0 85.225 71.247 154.135 156.465 154.135h314.79c85.23 0 158.505-68.91 158.505-154.135v-3.121z" />
<glyph unicode="&#xe924;" d="M126.487 562.821c0-212.913 172.6-385.513 385.513-385.513s385.513 172.6 385.513 385.513v0c0 212.913-172.6 385.513-385.513 385.513s-385.513-172.6-385.513-385.513v0z" />
<glyph unicode="&#xe925;" d="M191.424 566.075c0-178.843 144.981-323.825 323.825-323.825s323.825 144.981 323.825 323.825v0c0 178.843-144.981 323.825-323.825 323.825s-323.825-144.981-323.825-323.825v0z" />
<glyph unicode="&#xe926;" d="M538.87 774.164l-24.348 12.782-24.335-12.803 4.631 27.1-19.704 19.195 27.21 3.958 12.168 24.673 12.18-24.655 27.213-3.935-19.684-19.21zM369.907 737.613l-19.341 10.153-19.325-10.173 3.676 21.53-15.652 15.258 21.612 3.136 9.672 19.604 9.672-19.587 21.622-3.133-15.636-15.255zM707.574 737.613l-19.341 10.153-19.325-10.173 3.676 21.53-15.652 15.258 21.614 3.136 9.664 19.604 9.687-19.587 21.614-3.133-15.642-15.255zM603.679 659.689l-19.348 10.158-19.325-10.171 3.684 21.532-15.657 15.242 21.614 3.139 9.661 19.604 9.695-19.584 21.612-3.133-15.636-15.255zM460.82 659.689l-19.346 10.158-19.325-10.171 3.681 21.532-15.652 15.242 21.614 3.139 9.664 19.604 9.679-19.584 21.619-3.133-15.636-15.255z" />
<glyph unicode="&#xe927;" d="M261.12 373.76h514.724l-17.324 66.56h-471.8z" />
<glyph unicode="&#xe928;" d="M351.572 439.803l30.269 74.757h277.117l29.258-77.414z" />
<glyph unicode="&#xe929;" glyph-name="28" d="M950.3 626.3l-220.5 258.5c-11.5 13.4-31.7 15-45.1 3.6-2.1-1.8-3.8-3.7-5.3-5.8-1.9-2.4-3.6-5.1-4.8-8-26.9-64.8-90.6-106.6-162.5-106.6s-135.6 41.8-162.5 106.5c-0.7 1.7-1.6 3.4-2.5 4.9-1.8 3.3-4.2 6.3-7.2 8.9-13.4 11.5-33.6 10-45.1-3.4l-222.6-258.5c-9.8-11.4-10.4-28.1-1.3-40.1l95-126c6-8 15.5-12.7 25.6-12.7h32.2v-286.8c0-17.7 14.3-32 32-32h511.3c17.7 0 32 14.3 32 32v286.2l32.5 0.5c9.9 0.2 19.1 4.9 25 12.7l95 126c9.1 12 8.6 28.7-1.2 40.1zM814.9 511.2l-15.9-0.2v32.8c0 17.7-14.3 32-32 32s-32-14.3-32-32v-351.1h-447.3v351.1c0 17.7-14.3 32-32 32s-32-14.3-32-32v-32.3h-16.2l-69.9 92.7 175.5 203.9c43.7-64.4 117.6-104.1 199-104.1s155.3 39.7 199 104.1l173.9-203.8-70.1-93.1z" />
<glyph unicode="&#xe92a;" glyph-name="-5" d="M867.145 243.438l-0.145 6.362c-25.95 147.33-147.75 254.282-289.537 254.282h-20.188c37.322 9.692 72.357 29.22 100.389 57.198l1.957 2.030c76.397 76.745 83.437 199.040 16.384 284.525-40.284 50.597-98.432 81.189-160.147 84.407v0.33l-10.44-0.037-5.962 0.036-4.389-0.11v-0.2c-64.914-3.255-124.36-35.566-163.456-89.070-60.708-81.92-54.473-199.826 13.88-273.554l2.504-3.95c29.184-30.684 65.043-51.511 103.9-61.605h-17.426c-145.098 0-267.758-109.769-291.621-261.065-5.906-37.778 4.279-76.178 27.867-105.417 23.735-29.312 58.314-46.171 94.867-46.171h478.701c36.901 0 71.662 17.152 95.47 47.049 23.845 29.897 33.81 68.443 27.392 104.96zM504.942 574.428c-39.57 0-77.897 16.987-105.18 46.683-44.8 47.086-49.152 120.43-10.477 174.336 27.483 37.778 69.833 59.538 116.187 59.703 44.507-0.165 85.778-20.864 113.39-56.814 42.020-53.193 37.32-131.95-10.752-179.401l-1.829-1.902c-28.087-27.465-64.073-42.606-101.34-42.606zM434.487 426.66h142.007c107.154 0 198.51-80.421 217.325-191.58l0.878-3.566c2.706-15.945-1.353-32.018-11.264-44.233-8.795-11.74-23.040-18.487-39.095-18.487h-477.714c-16.018 0-28.928 6.382-38.583 19.2-9.307 10.57-13.568 26.204-11.721 42.698 16.823 113.573 108.599 195.968 218.167 195.968zM258.999 547.035c-55.424 2.743-98.834 50.56-98.834 108.855 0 48.238 30.793 91.337 74.898 104.796 8.082 2.468 14.738 8.064 18.761 15.799 2.474 4.607 3.927 10.081 3.927 15.894 0 3.267-0.459 6.426-1.316 9.417l0.059-0.241c-4.517 16.53-23.095 27.41-38.894 22.6-70.839-21.613-120.302-90.805-120.302-168.245 0-51.164 21.175-99.621 58.112-132.92l2.103-1.901-2.468-1.262c-84.352-43.52-136.76-132.187-136.76-231.35 0-18.213 14.117-33.043 31.47-33.043 17.335 0 31.434 14.83 31.434 33.042 0 103.936 77.385 188.197 176.091 191.836 5.778 0.128 11.154 2.011 15.598 5.303 9.856 6.308 15.56 15.835 16.073 26.825 0.384 8.832-2.505 17.262-8.156 23.808-5.65 6.546-13.366 10.35-21.796 10.788zM868.974 519.826l-2.469 1.262 2.066 1.902c36.974 33.298 58.167 81.737 58.167 132.919 0 77.44-49.48 146.633-120.192 168.21-15.835 4.974-34.487-5.943-39.021-22.51-2.341-8.503-1.408-17.444 2.651-25.070 4.041-7.771 10.697-13.385 18.798-15.853 44.050-13.477 74.861-56.576 74.861-104.814 0-58.295-43.392-106.112-98.834-108.855-8.393-0.439-16.11-4.242-21.76-10.752-5.632-6.491-8.521-14.958-8.155-23.844 0.512-10.643 6.272-20.499 15.104-26.13 5.412-3.914 10.77-5.834 16.329-5.962 98.87-3.639 176.347-87.936 176.347-191.835 0-18.213 14.099-33.043 31.433-33.043 17.354 0 31.452 14.83 31.452 33.043-0.037 99.163-52.389 187.812-136.777 231.332z" />
<glyph unicode="&#xe92b;" glyph-name="110" horiz-adv-x="1111" d="M1032.777 114.103h-953.783c-43.886 0-78.994 35.109-78.994 78.994s35.109 78.994 78.994 78.994h953.783c43.886 0 78.994-35.109 78.994-78.994s-35.109-78.994-78.994-78.994zM409.6 760.686c0-81.92 67.291-149.211 149.211-149.211s149.211 67.291 149.211 149.211-67.291 149.211-149.211 149.211c-84.846 0-149.211-67.291-149.211-149.211zM833.829 386.194c0-8.777-5.851-14.629-11.703-20.48s-14.629-11.703-26.331-11.703h-479.817c-17.554 0-35.109 14.629-35.109 32.183v14.629c8.777 81.92 55.589 155.063 119.954 198.949 14.629 8.777 35.109 8.777 46.811 0 11.703-5.851 20.48-14.629 35.109-17.554 23.406-8.777 49.737-14.629 76.069-14.629s49.737 5.851 76.069 14.629c11.703 5.851 23.406 11.703 32.183 17.554 14.629 8.777 32.183 8.777 46.811 0 64.366-43.886 111.177-117.029 119.954-198.949v-14.629zM348.16 669.989c0-2.926 2.926-5.851 2.926-8.777-32.183-20.48-58.514-49.737-81.92-78.994-46.811 20.48-78.994 64.366-78.994 117.029 0 70.217 58.514 128.731 128.731 128.731 5.851 0 14.629 0 20.48-2.926-5.851-23.406-11.703-43.886-11.703-67.291 0-29.257 5.851-58.514 20.48-87.771zM225.28 564.663c8.777-2.926 14.629-8.777 23.406-11.703-23.406-40.96-40.96-87.771-46.811-134.583l-2.926-5.851v-38.034c0-5.851 2.926-14.629 5.851-20.48h-93.623c-14.629 0-29.257 11.703-32.183 26.331v14.629c8.777 70.217 49.737 131.657 105.326 169.691 11.703 8.777 29.257 8.777 40.96 0zM924.526 702.171c0-52.663-32.183-99.474-81.92-119.954-23.406 29.257-49.737 55.589-78.994 78.994 2.926 2.926 2.926 5.851 2.926 8.777 11.703 29.257 17.554 58.514 17.554 87.771 0 23.406-2.926 46.811-11.703 67.291 5.851 0 11.703 2.926 20.48 2.926 73.143 2.926 131.657-55.589 131.657-125.806zM1032.777 380.343c0-5.851-2.926-11.703-8.777-17.554s-14.629-8.777-23.406-8.777h-93.623c2.926 5.851 2.926 14.629 5.851 20.48v17.554c0 5.851 0 14.629-2.926 20.48-5.851 49.737-20.48 99.474-46.811 143.36 8.777 2.926 17.554 8.777 23.406 14.629 11.703 8.777 29.257 8.777 40.96 0 55.589-38.034 93.623-99.474 102.4-169.691 2.926-11.703 2.926-14.629 2.926-20.48z" />
<glyph unicode="&#xe92c;" glyph-name="29" horiz-adv-x="1025" d="M320.512 437.248c-4.608 2.048-7.68 3.584-7.68 3.584l-0.512 46.592s18.432 13.824 24.576 58.368c11.776-3.072 15.36 13.312 16.384 24.064 0.512 10.24 6.656 43.008-7.168 39.936 3.072 21.504 5.12 40.96 4.096 51.712-3.584 36.352-28.672 74.24-92.672 76.8-54.272-2.56-89.6-40.96-93.184-76.8-1.024-10.24 1.024-29.696 4.096-51.712-14.336 3.072-8.192-29.696-7.68-39.936 0.512-10.752 4.608-27.648 16.384-24.064 5.632-44.032 24.576-58.368 24.576-58.368l-0.512-47.104s-11.776-7.168-61.44-27.648-34.304-4.096-74.752-24.064c-64-31.744-64-118.272-64-118.272 0-13.312 10.752-23.552 24.064-23.552h115.712c0 80.896 72.192 151.552 179.712 190.464zM757.76 382.976c-51.712 25.6-31.744 6.144-94.72 31.744-62.976 26.112-78.336 34.304-78.336 34.304l-0.512 59.392s23.552 17.92 31.232 74.24c14.848-4.096 19.968 17.408 20.48 30.72 1.024 13.312 8.704 54.272-9.216 50.688 3.584 27.648 6.656 52.224 5.12 65.536-4.608 46.080-36.864 94.72-118.272 97.792-69.12-3.584-114.176-51.712-118.784-97.792-1.536-13.312 1.536-37.888 5.12-65.536-17.92 3.584-10.24-37.376-9.728-50.688 1.024-13.824 5.632-35.328 20.48-30.72 7.168-56.32 31.232-74.24 31.232-74.24l-0.512-59.904s-14.848-9.216-78.336-34.816c-62.976-26.112-43.52-5.632-94.72-30.72-81.408-39.936-81.408-150.528-81.408-150.528 0-16.896 13.824-30.208 30.72-30.208h590.848c16.896 0 30.72 13.312 30.72 30.208 0 0 0 110.592-81.408 150.528zM1025.024 270.848s0 86.528-64 118.272c-40.448 19.968-25.088 3.584-74.752 24.064s-61.44 27.648-61.44 27.648l-0.512 47.104s18.432 14.336 24.576 58.368c11.776-3.584 15.36 13.312 16.384 24.064 0.512 10.24 6.656 43.008-7.68 39.936 3.072 21.504 5.12 40.96 4.096 51.712-3.584 36.352-38.912 74.24-93.184 76.8-64-2.56-89.088-40.448-92.672-76.8-1.024-10.24 1.024-29.696 4.096-51.712-14.336 3.072-8.192-29.696-7.168-39.936 0.512-10.752 4.608-27.648 16.384-24.064 5.632-44.032 24.576-58.368 24.576-58.368l-0.512-46.592s-2.56-1.536-7.68-3.584c107.52-39.424 180.224-109.568 180.224-190.464h115.712c12.8-0.512 23.552 10.24 23.552 23.552z" />
<glyph unicode="&#xe92d;" glyph-name="30" d="M357.4 248.6c0-47.2-38.2-85.4-85.4-85.4s-85.4 38.2-85.4 85.4 38.2 85.4 85.4 85.4c47.2-0.1 85.4-38.3 85.4-85.4zM874.2 248.6c0-47.2-38.2-85.4-85.4-85.4s-85.4 38.2-85.4 85.4 38.2 85.4 85.4 85.4c47.2-0.1 85.4-38.3 85.4-85.4zM963.6 563.1l-82.5 110c-16.9 20.3-28.3 36.9-55.4 36.9h-166c-20.3 0-36.9-16.6-36.9-36.9v-369.1c0-20.3 16.5-36.7 36.7-36.9 9.1 63.6 63.4 112.8 129.4 112.8 66.1 0 120.4-49.2 129.4-112.8h36.7c20.3 0 36.9 16.6 36.9 36.9v184.5c0 35-28.3 74.6-28.3 74.6zM733.5 488.5v147.7h90.3c6 0 14.2-8.7 14.2-8.7l77.7-107.6c6.9-10.1 14.3-22.1 14.3-31.4h-196.5zM548.9 857.7h-479.9c-20.3 0-36.9-16.6-36.9-36.9v-516.8c0-20.3 16.6-36.9 36.9-36.9h73.6c9 63.6 63.3 112.8 129.4 112.8s120.4-49.2 129.4-112.8h147.4c20.3 0 36.9 16.6 36.9 36.9v516.7c0.1 20.4-16.5 37-36.8 37z" />
<glyph unicode="&#xe92e;" glyph-name="31" d="M817.8 228.1h20.4c13.6-0.1 23.3-9.1 23.3-21.8 0-12.6-9.8-21.8-23.3-21.8h-652.7c-12.2 0-21.5 7.3-23.1 18.1-1.7 11.5 4.7 21.7 15.7 24.7 2.4 0.7 5.1 0.7 7.6 0.8 6.5 0.1 13 0 20.2 0v545.4c0 31.8 20.3 57.9 50.6 65 5.2 1.2 10.8 1.7 16.2 1.7 101.1 0.1 202.2 0.1 303.2 0.1 38.7 0 67.1-28.6 67.1-67.4v-544.3h131c0.1 1.5 0.2 3.1 0.2 4.7v320.5c0 15.4-8.8 24.3-24.1 24.3-13.9 0-27.8-0.1-41.7 0.1-11.5 0.2-20.3 8.4-21.6 19.8-1.2 10.3 5.9 20.4 16.4 23.1 2.2 0.6 4.5 0.6 6.7 0.6 13.9 0.1 27.8 0.1 41.7 0 37.5-0.1 66.3-28.8 66.3-66.4 0.1-107 0-213.9 0-320.9-0.1-2.1-0.1-4-0.1-6.3zM249.3 228.3h349.7c0.1 1.7 0.2 3.2 0.2 4.7v539.4c0 15.1-8.9 24-23.9 24h-302.3c-2.4 0-4.9-0.1-7.2-0.7-10.7-2.8-16.4-11.2-16.4-24v-538.5c-0.1-1.4-0.1-2.9-0.1-4.9zM424.4 687.3c-21.5 0-42.9-0.1-64.3 0-12 0.1-20.8 6.9-22.8 17.4-2.7 14.1 7.4 26.2 22 26.3 23.1 0.1 46.2 0 69.3 0 20.2 0 40.5 0.1 60.7 0 9.8 0 17.9-5.8 21-14.4s0.5-18.3-6.5-24.3c-4.8-4-10.4-5.1-16.5-5.1-21 0.1-41.9 0.1-62.9 0.1zM424 577.9c-21.6 0-43.2-0.1-64.8 0-14.6 0.1-24.6 12.2-22 26.3 1.8 9.7 10.4 17.2 20.5 17.2 44.3 0.1 88.5 0.1 132.8 0 11.9 0 21-9.7 21-21.6 0-12.2-9.3-21.8-21.8-21.9-21.9-0.1-43.8 0-65.7 0zM423.9 402.9c22.2 0 44.4 0.2 66.6-0.1 15.9-0.2 26-17 18.9-31.2-4.2-8.5-11.5-12.4-21-12.4h-130c-12.1 0.3-21.6 9.8-21.7 21.7s9.4 21.7 21.4 21.8c22 0.4 43.9 0.3 65.8 0.2zM424.1 468.7c-21.6 0-43.2-0.1-64.8 0-16.2 0.1-26.8 15.1-21 29.6 3.6 9.1 10.7 14 20.3 14 43.6 0.2 87.3 0.2 130.9 0 12.8-0.1 22.1-9.8 22-22.2-0.1-12.2-9.4-21.3-22.2-21.4-21.7-0.1-43.5 0-65.2 0z" />
<glyph unicode="&#xe92f;" glyph-name="32" d="M341.862 801.447l168.711-94.638c0.845-0.472 1.852-0.758 2.923-0.778h0.006c0.021 0 0.046 0 0.070 0 1.054 0 2.040 0.289 2.884 0.793l-0.026-0.014 168.707 94.638c1.819 1.053 3.029 2.982 3.051 5.195v0.003c0 0.006 0 0.012 0 0.019 0 2.217-1.218 4.15-3.022 5.165l-0.030 0.015-168.707 94.587c-0.834 0.48-1.835 0.763-2.901 0.763s-2.067-0.283-2.93-0.779l0.029 0.015-168.765-94.58c-1.802-1.062-2.992-2.993-2.992-5.202s1.19-4.14 2.964-5.187l0.028-0.015zM685.138 529.487l-168.707 94.641c-0.834 0.48-1.835 0.763-2.901 0.763s-2.067-0.283-2.93-0.779l0.029 0.015-168.772-94.641c-1.801-1.058-2.99-2.986-2.99-5.191 0-0.003 0-0.005 0-0.008v0c0-0.177 0.058-0.341 0.058-0.536-0.040-0.309-0.063-0.667-0.063-1.030 0-0.1 0.002-0.2 0.005-0.299v0.014-358.95c0.012-5.329 2.916-9.977 7.225-12.459l0.070-0.037 160.345-89.917c2.014-1.147 4.422-1.832 6.988-1.853h0.006c0.015 0 0.032 0 0.049 0 2.556 0 4.951 0.688 7.011 1.889l-0.066-0.036 160.345 89.917c4.383 2.475 7.295 7.102 7.295 12.41 0 0.030 0 0.061 0 0.091v-0.005 358.946c0.002 0.074 0.003 0.161 0.003 0.249 0 0.375-0.022 0.746-0.066 1.109l0.004-0.044c0 0.177 0.058 0.341 0.058 0.536 0 0.004 0 0.008 0 0.013 0 2.205-1.188 4.132-2.959 5.177l-0.028 0.015zM499.214 98.017l-131.755 73.895v332.824l131.707-73.895v-332.82h0.058zM659.558 171.913l-131.71-73.895v332.882l131.71 73.895v-332.882zM438.835 665.139c0 0.006 0 0.012 0 0.019 0 2.217-1.218 4.15-3.022 5.165l-0.030 0.015-168.639 94.641c-0.834 0.48-1.835 0.764-2.901 0.764s-2.067-0.283-2.93-0.779l0.029 0.015-168.786-94.624c-1.82-1.053-3.030-2.982-3.051-5.195v-0.003c0-0.119 0.058-0.177 0.058-0.297s-0.058-0.177-0.058-0.297c0-0.177 0.058-0.341 0.058-0.536 0-0.362-0.058-0.782-0.058-1.26v-358.967c0.012-5.329 2.916-9.977 7.224-12.459l0.070-0.037 160.345-89.917c2.014-1.147 4.422-1.832 6.987-1.853h0.006c0.015 0 0.032 0 0.049 0 2.556 0 4.951 0.688 7.011 1.889l-0.066-0.036 7.277 4.127v366.251l157.297 88.235c1.859 0.97 3.106 2.884 3.106 5.088 0 0.020 0 0.039 0 0.058v-0.003zM249.849 238.275l-131.707 73.895v332.824l131.71-73.895v-332.824zM937.492 664.552c0 0.119-0.058 0.177-0.058 0.297s0.058 0.177 0.058 0.297c0 0.531-0.065 1.046-0.187 1.539l0.009-0.044v0.119c-0.463 1.554-1.463 2.827-2.781 3.63l-0.028 0.016-168.714 94.583c-0.478 0.239-0.956 0.416-1.434 0.601-0.449 0.113-0.964 0.177-1.495 0.177v0c-0.021 0-0.045 0-0.070 0-1.055 0-2.043-0.289-2.888-0.793l0.026 0.014-168.711-94.638c-1.385-0.774-2.403-2.065-2.8-3.605l-0.009-0.040c-0.152-0.431-0.24-0.928-0.24-1.445 0-0.038 0-0.076 0.001-0.113v0.006c0-0.006 0-0.012 0-0.019 0-2.217 1.218-4.15 3.022-5.165l0.030-0.015 157.297-88.245v-366.316l7.294-4.127c2.014-1.147 4.422-1.832 6.987-1.853h0.006c0.015 0 0.032 0 0.049 0 2.556 0 4.951 0.688 7.011 1.889l-0.066-0.036 160.345 89.917c4.383 2.475 7.295 7.102 7.295 12.41 0 0.030 0 0.061 0 0.091v-0.005 359.083c0.002 0.074 0.003 0.161 0.003 0.249 0 0.375-0.022 0.746-0.066 1.109l0.004-0.044c0.068 0.14 0.111 0.303 0.116 0.476v0.002zM908.851 312.17l-131.703-73.892v332.882l131.703 73.895v-332.885z" />
<glyph unicode="&#xe930;" glyph-name="111" d="M984.294 588.39h-393.83v393.826h-157.53v-393.828h-393.829v-157.531h393.827v-393.831h157.531v393.832h393.83v157.531z" />
<glyph unicode="&#xe931;" glyph-name="33" d="M902.947 452.973h-332.293v-332.346c0-32.387-26.267-58.628-58.655-58.628s-58.654 26.241-58.654 58.628v332.346h-332.295c-32.414 0-58.654 26.241-58.654 58.628 0 32.375 26.243 58.628 58.654 58.628h332.293v332.346c0 32.375 26.267 58.628 58.654 58.628s58.655-26.254 58.655-58.628v-332.347h332.293c32.414 0 58.655-26.252 58.655-58.626-0.001-32.387-26.241-58.626-58.655-58.626z" />
<glyph unicode="&#xe932;" glyph-name="34" d="M819.2 665.6c87.040 0 153.6 66.56 153.6 153.6s-66.56 153.6-153.6 153.6c-76.8 0-138.24-56.32-153.6-133.12l-225.28-46.080c-30.72 46.080-76.8 76.8-133.12 76.8-87.040 0-153.6-66.56-153.6-153.6 0-56.32 30.72-102.4 76.8-133.12l-46.080-225.28c-76.8-15.36-133.12-76.8-133.12-153.6 0-87.040 66.56-153.6 153.6-153.6s153.6 66.56 153.6 153.6c0 56.32-30.72 102.4-76.8 133.12l46.080 225.28c66.56 10.24 122.88 66.56 133.12 133.12l230.4 46.080c25.6-46.080 71.68-76.8 128-76.8zM819.2 870.4c30.72 0 51.2-20.48 51.2-51.2s-20.48-51.2-51.2-51.2-51.2 20.48-51.2 51.2 20.48 51.2 51.2 51.2zM204.8 153.6c-30.72 0-51.2 20.48-51.2 51.2s20.48 51.2 51.2 51.2 51.2-20.48 51.2-51.2-20.48-51.2-51.2-51.2zM921.6 204.8h-307.2c-30.72 0-51.2 20.48-51.2 51.2s20.48 51.2 51.2 51.2h307.2c30.72 0 51.2-20.48 51.2-51.2s-20.48-51.2-51.2-51.2z" />
<glyph unicode="&#xe933;" glyph-name="35" d="M692.224 476.16h-360.448v71.68h359.936v-71.68zM728.064 836.096c59.392 0 108.032-48.128 108.032-108.032v-432.128c0-59.392-48.128-108.032-108.032-108.032h-432.128c-59.392 0-108.032 48.128-108.032 108.032v432.128c0 59.392 48.128 108.032 108.032 108.032h432.128zM728.064 871.936h-432.128c-79.36 0-143.872-64.512-143.872-143.872v-432.128c0-79.36 64.512-143.872 143.872-143.872h432.128c79.36 0 143.872 64.512 143.872 143.872v432.128c0 79.36-64.512 143.872-143.872 143.872z" />
<glyph unicode="&#xe934;" glyph-name="36" d="M791.2 749.9c0.1 0.2 0.3 0.3 0.4 0.4 0.1 0.2 0.2 0.4 0.3 0.5l1.1 1.3c-0.2-0.3-0.5-0.4-0.7-0.7 0.5 0.7 0.9 1.5 1.5 2.2 1.2 1.7 2.3 3.3 3.4 5.1 1.7 2.8 3.3 5.7 4.7 8.7 0.9 1.8 1.7 3.6 2.5 5.5 1.3 3.3 2.3 6.8 3.2 10.4 0.4 1.7 1 3.3 1.3 5.1 1 5.3 1.7 10.8 1.7 16.5 0 31.1-16.4 58.3-41 73.7l-109.4-133.8-145.2-177.2-254.6 310.9c-24.5-15.5-41-42.6-41-73.7 0-21.2 7.9-40.4 20.5-55.6-1 1.2-2.2 2.1-3.2 3.3l278.3-339.9 276.2 337.3zM780.9 739.7c0.3 0.2 0.5 0.4 0.8 0.6-1-0.9-1.9-2-3-2.9 0.8 0.7 1.5 1.6 2.2 2.3zM765.9 729l0.6 0.3c-1.4-0.8-2.7-1.9-4.2-2.6 1.3 0.7 2.4 1.6 3.6 2.3zM748.1 721.5c0.1 0 0.3 0.1 0.4 0.1-1.6-0.5-3.1-1.3-4.7-1.7 1.5 0.4 2.8 1.2 4.3 1.6zM515.8 468.8c-18.2 0-33 14.8-33 33s14.8 33 33 33 33-14.8 33-33-14.8-33-33-33zM313.5 499.7c-95.5 0-172.9-77.4-172.9-172.9s77.4-172.9 172.9-172.9 172.9 77.4 172.9 172.9c0 95.4-77.4 172.9-172.9 172.9zM313.5 229.3c-53.8 0-97.5 43.7-97.5 97.5s43.7 97.5 97.5 97.5 97.5-43.7 97.5-97.5c0-53.9-43.6-97.5-97.5-97.5zM716.5 499.7c-95.5 0-172.9-77.4-172.9-172.9s77.4-172.9 172.9-172.9 172.9 77.4 172.9 172.9c0 95.4-77.4 172.9-172.9 172.9zM716.5 229.3c-53.8 0-97.5 43.7-97.5 97.5s43.7 97.5 97.5 97.5 97.5-43.7 97.5-97.5c0-53.9-43.6-97.5-97.5-97.5z" />
<glyph unicode="&#xe935;" glyph-name="37" d="M209.067 181.381v0c59.733 0 115.2 38.4 149.333 89.6 38.4-51.2 89.6-89.6 149.333-89.6s110.933 38.4 149.333 89.6c38.4-51.2 89.6-89.6 149.333-89.6v0l89.6 290.133c4.267 12.8 0 25.6 0 34.133-4.267 12.8-12.8 17.067-21.333 21.333l-68.267 29.867v204.8c0 51.2-34.133 89.6-76.8 89.6h-110.933l-25.6 110.933h-166.4l-29.867-110.933h-110.933c-42.667 0-76.8-42.667-76.8-89.6v-204.8l-68.267-25.6c-8.533-4.267-17.067-12.8-21.333-21.333-4.267-12.8-4.267-21.333 0-34.133l89.6-294.4zM285.867 761.647h443.733v-174.933l-221.867 85.333-221.867-85.333v174.933zM661.333 181.381c-98.133-76.8-204.8-72.533-302.933 4.267 0 0-162.133-123.733-256-123.733h42.667c55.467 0 153.6 25.6 204.8 55.467 102.4-59.733 221.867-59.733 324.267 0 51.2-29.867 149.333-55.467 204.8-55.467h42.667c-93.867-4.267-260.267 119.467-260.267 119.467v0z" />
<glyph unicode="&#xe936;" d="M440.32 816.128c6.144 0 12.288-2.56 16.896-6.656 4.608-4.608 7.168-10.24 7.168-16.384v-258.048h95.744v163.84c0 6.144 2.56 12.288 7.168 16.384s10.752 6.656 16.896 6.656h239.104c6.144 0 12.288-2.56 16.896-6.656s7.168-10.24 7.168-16.384v-164.352h47.616v-47.104h-47.616v-164.352c0-6.144-2.56-12.288-7.168-16.384-4.608-4.608-10.752-6.656-16.896-6.656h-239.616c-6.144 0-12.288 2.56-16.896 6.656s-7.168 10.24-7.168 16.384v164.352h-95.744v-258.048c0-6.144-2.56-12.288-7.168-16.384-4.608-4.608-10.752-6.656-16.896-6.656h-239.104c-6.144 0-12.288 2.56-16.896 6.656-4.608 4.608-7.168 10.24-7.168 16.384v258.048h-47.616v47.104h47.616v258.048c0 6.144 2.56 12.288 7.168 16.384 4.608 4.608 10.752 6.656 16.896 6.656h239.616z" />
<glyph unicode="&#xe937;" d="M328.704 769.024v-516.096h-103.936v516.096h103.936z" />
<glyph unicode="&#xe938;" d="M416.256 769.024v-516.096h-87.552v516.096h87.552z" />
<glyph unicode="&#xe939;" d="M798.72 675.328v-328.704h-191.488v328.704h191.488z" />
<glyph unicode="&#xe93a;" d="M183.808 809.472c-4.608-4.608-7.168-10.24-7.168-16.384v-258.048h-47.616v-47.104h47.616v-258.048c0-6.144 2.56-12.288 7.168-16.384 4.608-4.608 10.752-6.656 16.896-6.656h127.488v47.104h-103.424v515.072h103.936v47.104h-128c-6.144 0-12.288-2.56-16.896-6.656z" />
<glyph unicode="&#xe93b;" d="M416.256 769.024v-516.096h-87.552v-47.104h111.616c6.144 0 12.288 2.56 16.896 6.656 4.608 4.608 7.168 10.24 7.168 16.384v258.048h95.744v-164.352c0-6.144 2.56-12.288 7.168-16.384 4.608-4.608 10.752-6.656 16.896-6.656h239.104c6.144 0 12.288 2.56 16.896 6.656 4.608 4.608 7.168 10.24 7.168 16.384v164.352h47.616v47.104h-47.616v164.864c0 6.144-2.56 12.288-7.168 16.384s-10.752 6.656-16.896 6.656h-239.616c-6.144 0-12.288-2.56-16.896-6.656s-7.168-10.24-7.168-16.384v-164.352h-95.744v258.048c0 6.144-2.56 12.288-7.168 16.384-4.608 4.608-10.752 6.656-16.896 6.656h-111.104v-47.104l87.552 0.512zM583.68 698.88h239.104v-375.296h-239.104v375.296z" />
<glyph unicode="&#xe93c;" d="M822.784 323.584v375.296h-239.104v-375.296h239.104zM607.744 346.624v328.704h190.976v-328.704h-190.976z" />
<glyph unicode="&#xe93d;" d="M206.8 439.4c0 6.3 2.5 12.5 6.9 16.9s10.4 7 16.6 7h258.1v95.7h-164.2c-6.2 0-12.2 2.6-16.6 7s-6.9 10.6-6.9 16.9v239.2c0 6.3 2.5 12.5 6.9 16.9s10.4 7 16.6 7h164.2v47.8h46.9v-47.8h164.2c6.2 0 12.2-2.6 16.6-7s6.9-10.6 6.9-16.9v-239.2c0-6.3-2.5-12.5-6.9-16.9s-10.4-7-16.6-7h-164.2v-95.7h258.1c6.2 0 12.2-2.6 16.6-7s6.9-10.6 6.9-16.9v-239.2c0-6.3-2.5-12.5-6.9-16.9s-10.4-7-16.6-7h-258.1v-47.8h-46.9v47.8h-258.1c-6.2 0-12.2 2.6-16.6 7s-6.9 10.6-6.9 16.9v239.2z" />
<glyph unicode="&#xe93e;" d="M253.8 327.7h516.2v-103.7h-516.2z" />
<glyph unicode="&#xe93f;" d="M253.8 415.4h516.2v-87.7h-516.2z" />
<glyph unicode="&#xe940;" d="M347.6 798.2h328.5v-191.4h-328.5z" />
<glyph unicode="&#xe941;" d="M213.7 183.2c4.4-4.4 10.4-7 16.6-7h258.1v-47.8h46.9v47.8h258.1c6.2 0 12.2 2.6 16.6 7s6.9 10.6 6.9 16.9v127.6h-46.9v-103.7h-516.2v103.7h-46.9v-127.6c-0.1-6.3 2.4-12.4 6.8-16.9z" />
<glyph unicode="&#xe942;" d="M253.8 415.4h516.2v-87.7h46.9v111.7c0 6.3-2.5 12.5-6.9 16.9s-10.4 7-16.6 7h-258.1v95.7h164.2c6.2 0 12.2 2.6 16.6 7s6.9 10.6 6.9 16.9v239.2c0 6.3-2.5 12.5-6.9 16.9s-10.4 7-16.6 7h-164.2v47.8h-46.9v-47.8h-164.2c-6.2 0-12.2-2.6-16.6-7s-6.9-10.6-6.9-16.9v-239.2c0-6.3 2.5-12.5 6.9-16.9s10.4-7 16.6-7h164.2v-95.7h-258.1c-6.2 0-12.2-2.6-16.6-7s-6.9-10.6-6.9-16.9v-111.6h46.9v87.6zM324.2 582.9v239.2h375.4v-239.2h-375.4z" />
<glyph unicode="&#xe943;" d="M699.6 822.1h-375.4v-239.2h375.4v239.2zM676.1 606.8h-328.5v191.4h328.5v-191.4z" />
<glyph unicode="&#xe944;" glyph-name="38" d="M961.371 778.236h-20.426v102.405c0 33.792-24.663 73.809-54.804 88.914 0 0-108.605 54.446-374.146 54.446s-374.135-54.451-374.135-54.451c-30.148-15.104-54.813-55.122-54.813-88.914v-102.405h-20.426c-33.84-0.147-61.223-27.586-61.278-61.433v-61.444c0.056-33.853 27.438-61.292 61.264-61.439h20.44v-419.836c0.075-26.51 16.889-49.075 40.424-57.687l0.428-0.137v-34.335c0-45.124 36.58-81.704 81.704-81.704s81.704 36.58 81.704 81.704v0 30.72h449.374v-30.72c0-45.124 36.58-81.704 81.704-81.704s81.704 36.58 81.704 81.704v0 34.335c23.961 8.752 40.772 31.315 40.852 57.814v419.85h20.426c33.84 0.147 61.223 27.586 61.278 61.433v61.445c-0.057 33.853-27.439 61.291-61.264 61.439h-0.014zM307.736 921.595c0.019 11.284 9.146 20.431 20.421 20.48h367.675c11.28-0.049 20.408-9.195 20.426-20.478v-40.962c-0.019-11.284-9.146-20.431-20.421-20.48h-367.675c-11.28 0.049-20.408 9.195-20.426 20.478v40.962zM215.816 194.557c-0.040 0-0.087 0-0.134 0-28.277 0-51.2 22.923-51.2 51.2s22.923 51.2 51.2 51.2c28.277 0 51.199-22.923 51.2-51.199v0c0-0.020 0-0.043 0-0.066 0-28.216-22.854-51.095-51.062-51.134h-0.004zM808.173 194.557c-0.040 0-0.087 0-0.134 0-28.277 0-51.2 22.923-51.2 51.2s22.923 51.2 51.2 51.2c28.277 0 51.199-22.923 51.2-51.199v0c0-0.020 0-0.043 0-0.066 0-28.215-22.853-51.093-51.059-51.134h-0.004zM859.24 430.074c-0.019-11.284-9.146-20.431-20.421-20.48h-653.64c-11.28 0.049-20.408 9.195-20.426 20.478v327.683c0.019 11.284 9.146 20.431 20.421 20.48h653.64c11.28-0.049 20.408-9.195 20.426-20.478v-0.002z" />
<glyph unicode="&#xe945;" glyph-name="39" d="M75.78 911.87h319.9v-799.74h-319.9zM482.92 911.87h465.3v-348.98h-465.3zM482.92 475.65v-348.98h465.3v348.98h-465.3zM920.53 154.36h-409.92v293.6h409.92v-293.6z" />
<glyph unicode="&#xe946;" glyph-name="40" d="M509.952 1007.616c-275.456 0-498.688-222.208-498.688-497.664s223.232-497.664 497.664-497.664 497.664 223.232 497.664 497.664-221.184 497.664-496.64 497.664zM532.48 229.376h-217.088v217.088h217.088v-217.088zM532.48 493.568h-312.32v311.296h312.32v-311.296zM793.6 229.376h-217.088v217.088h217.088v-217.088zM793.6 493.568h-217.088v216.064h217.088v-216.064zM280.576 745.472h190.464v-190.464h-190.464z" />
<glyph unicode="&#xe947;" glyph-name="41" d="M913.646 770.84l-150.681-255.056c-23.775-40.234-76.41-54.040-117.604-30.774l-37.294 21.029 43.079 72.862c20.581-11.632 46.914-4.73 58.802 15.404l107.601 182.19c11.889 20.102 4.827 45.859-15.755 57.46l-149.115 84.144c-20.58 11.632-46.913 4.731-58.802-15.403l-107.632-182.159c-11.889-20.134-4.825-45.859 15.755-57.492l-43.047-72.863-37.263 21.028c-41.194 23.233-55.287 74.685-31.51 114.952l150.649 255.054c23.775 40.234 76.442 54.041 117.604 30.807l223.703-126.232c41.164-23.233 55.288-74.684 31.511-114.951zM404.37 329.473c-20.581 11.631-27.644 37.359-15.755 57.491l172.189 291.486c11.888 20.134 38.222 27.004 58.802 15.404 20.612-11.633 27.642-37.358 15.755-57.492l-172.189-291.486c-11.89-20.101-38.191-27.003-58.802-15.403zM372.858 444.425v0c-20.581 11.633-46.914 4.731-58.802-15.405l-107.632-182.19c-11.855-20.101-4.825-45.827 15.756-57.46l149.146-84.112c20.582-11.633 46.914-4.731 58.802 15.339l107.633 182.193c11.888 20.133 4.825 45.89-15.788 57.491v0l43.047 72.863 37.293-21.030c41.194-23.232 55.286-74.684 31.511-114.951l-150.649-255.054c-23.775-40.267-76.442-54.072-117.636-30.808l-223.67 126.233c-41.194 23.201-55.287 74.684-31.511 114.951l150.682 255.054c23.745 40.235 76.41 54.042 117.604 30.808l37.263-21.060-43.049-72.863z" />
<glyph unicode="&#xe948;" glyph-name="112" d="M513.8 710.7c69.1 0 125.1 56 125.1 125.1s-56 125.2-125.1 125.2-125.1-56-125.1-125.1 56-125.2 125.1-125.2zM513.8 897c33.7 0 61.1-27.4 61.1-61.1s-27.4-61.1-61.1-61.1-61.1 27.4-61.1 61.1 27.4 61.1 61.1 61.1zM298.1 340.9c-23.2 40.1-65.2 62.6-108.5 62.6-21.2 0-42.7-5.4-62.5-16.8-59.9-34.6-80.4-111.1-45.8-170.9 23.2-40.1 65.2-62.6 108.5-62.6 21.2 0 42.7 5.4 62.5 16.8 59.8 34.5 80.3 111 45.8 170.9zM220.3 225.4c-9.4-5.4-19.7-8.2-30.5-8.2-10.6 0-21.1 2.8-30.3 8-9.4 5.3-17.3 13.1-22.8 22.6-16.9 29.2-6.8 66.7 22.4 83.5 9.4 5.4 19.7 8.2 30.5 8.2 10.6 0 21.1-2.8 30.3-8 9.4-5.3 17.3-13.1 22.8-22.6 16.8-29.2 6.8-66.7-22.4-83.5zM897.2 384.8c-19.7 11.4-41.2 16.8-62.5 16.8-43.2 0-85.3-22.4-108.5-62.6-34.6-59.9-14-136.4 45.8-170.9 19.7-11.4 41.2-16.8 62.5-16.8 43.2 0 85.3 22.4 108.5 62.6 34.5 59.8 14 136.3-45.8 170.9zM887.6 245.8c-5.5-9.5-13.3-17.3-22.8-22.6-9.2-5.2-19.7-8-30.3-8-10.8 0-21 2.8-30.5 8.2-29.2 16.9-39.2 54.3-22.4 83.5 5.5 9.5 13.3 17.3 22.8 22.6 9.2 5.2 19.7 8 30.3 8 10.8 0 21-2.8 30.4-8.2 29.3-16.8 39.3-54.3 22.5-83.5zM670.2 771c113.1-59 183.4-174.9 183.4-302.4 0-7.4-0.2-15-0.7-22.4-1.1-17.6 12.2-32.9 29.9-34 0.7 0 1.4-0.1 2.1-0.1 16.7 0 30.8 13 31.9 29.9 0.6 8.8 0.9 17.8 0.9 26.6 0 75.4-20.9 149-60.4 212.8-38.4 62-92.8 112.6-157.4 146.3-15.7 8.2-35 2.1-43.2-13.6-8.3-15.6-2.2-35 13.5-43.1zM140.4 414.2c0.6 0 1.3 0 1.9 0.1 17.6 1 31.1 16.2 30.1 33.8-0.4 6.8-0.6 13.7-0.6 20.4 0 128.4 71 244.6 185.3 303.4 15.7 8.1 21.9 27.4 13.8 43.1s-27.4 21.9-43.1 13.8c-65.2-33.5-120.1-84.1-159-146.4-39.9-64.1-61-138-61-213.9 0-8 0.2-16.1 0.7-24.2 1-16.9 15.1-30.1 31.9-30.1zM693.9 179.7c-54.2-34.1-116.8-52.1-181.2-52.1-65 0-128.3 18.4-182.9 53.1-14.9 9.5-34.7 5.1-44.2-9.8s-5.1-34.7 9.8-44.2c64.9-41.3 140-63.2 217.3-63.2 76.4 0 150.8 21.4 215.2 61.9 15 9.4 19.5 29.2 10.1 44.1-9.4 15.1-29.2 19.6-44.1 10.2z" />
<glyph unicode="&#xe949;" glyph-name="42" d="M926.9 593.2l-335.1 335.4c-42.6 42.7-117.3 42.6-159.8 0l-335.1-335.4c-44-44.1-44-115.8 0-159.9l335.1-335.5c21.3-21.3 49.7-33 80-33s58.6 11.8 80 33l335 335.4c43.9 44.2 43.9 115.8-0.1 160zM874 486.1l-335.1-335.5c-14.3-14.3-39.9-14.3-54.1 0l-335.1 335.5c-15 15-15 39.4 0 54.3l335.1 335.4c7.2 7.2 16.8 11.2 27.1 11.2s19.8-3.9 27.1-11.2l335-335.4c15-15 15-39.4 0-54.3zM436.3 625.7h149.3c20.5 0 37.3 16.8 37.3 37.3s-16.8 37.3-37.3 37.3h-149.3c-20.5 0-37.3-16.8-37.3-37.3s16.7-37.3 37.3-37.3zM698.5 550.6h-375.2c-19.9 0-36.4-16.4-36.4-36.4v-2c0-20 16.4-36.4 36.4-36.4h375.3c20 0 36.4 16.4 36.4 36.4v2c-0.1 19.9-16.4 36.4-36.5 36.4zM585.6 400.6h-149.3c-20.5 0-37.3-16.8-37.3-37.3s16.8-37.3 37.3-37.3h149.3c20.5 0 37.3 16.8 37.3 37.3s-16.8 37.3-37.3 37.3z" />
<glyph unicode="&#xe94a;" glyph-name="43" d="M837.923 543.75c-14.369 0-26.062-11.691-26.062-26.063v-286.321c0-52.687-39.424-95.552-87.886-95.552h-504.296c-48.459 0-87.883 42.865-87.883 95.552v517.024c0 52.699 39.424 95.573 87.883 95.573h347.403c14.371 0 26.063 11.691 26.063 26.062 0 14.369-11.691 26.061-26.063 26.061h-347.402c-77.198 0-140.005-66.256-140.005-147.695v-517.022c0-81.428 62.805-147.676 140.005-147.676h504.296c77.165 0 139.973 66.244 140.008 147.676v286.321c0.001 14.369-11.69 26.061-26.062 26.061zM243.583 618.811h275.631c14.369 0 26.061 11.692 26.061 26.062s-11.691 26.062-26.061 26.062h-275.631c-14.369 0-26.061-11.691-26.061-26.062 0-14.369 11.69-26.062 26.061-26.062zM243.583 433.789h275.631c14.369 0 26.061 11.691 26.061 26.062s-11.691 26.063-26.061 26.063h-275.631c-14.369 0-26.061-11.692-26.061-26.063s11.69-26.062 26.061-26.062zM973.192 832.334l-186.615 149.658c-6.498 5.224-13.772 7.985-21.036 7.985-6.202 0-10.971-1.939-13.892-3.577-4.146-2.297-17.121-11.228-14.852-31.709l5.835-53.446c-0.032-1.319-0.929-4.403-1.611-5.538l-30.612-38.143c-0.969-0.913-3.804-2.446-5.078-2.747l-53.254-5.851c-13.985-1.533-29.87-10.271-38.576-21.176l-7.142-8.811c-6.428-8.051-9.332-18.137-8.175-28.395 1.154-10.247 6.216-19.421 14.225-25.808l74.713-59.904-113.992-142.209c-4.224-5.24-6.15-11.811-5.42-18.499 0.726-6.668 4.001-12.646 9.224-16.845 4.445-3.605 10.041-5.591 15.761-5.591 7.705 0 14.87 3.464 19.61 9.446l129.803 161.859c8.669 10.829 6.926 26.693-3.851 35.333l-84.732 68.518c1.279 0.87 3.197 1.851 4.19 2.080l53.313 5.856c14.081 1.568 29.972 10.322 38.592 21.218l30.804 38.358c8.835 11.042 13.873 28.441 12.263 42.335l-0.705 6.471 112.889-90.535-6.474-0.714c-13.866-1.534-29.741-10.225-38.668-21.21l-30.671-38.328c-8.781-10.877-13.876-28.283-12.385-42.369l5.831-53.324c-0.010-1.322-0.919-4.458-1.619-5.575l-1.372-1.71c-1.563 0.303-3.158 0.458-4.76 0.458-7.68 0-14.834-3.434-19.639-9.439-8.649-10.841-6.898-26.698 3.944-35.382 6.831-5.425 15.384-8.412 24.086-8.411 11.79 0.001 22.777 5.266 30.162 14.466l6.864 8.588c8.837 10.895 13.933 28.317 12.395 42.377l-5.881 53.285c0.003 1.329 0.918 4.505 1.627 5.649l30.516 38.076c0.963 0.941 3.882 2.541 5.2 2.851l53.299 5.853c20.568 2.277 26.451 16.986 27.789 21.525 3.417 11.917-1.036 24.252-11.923 33.001zM243.583 248.771h413.441c14.369 0 26.061 11.691 26.061 26.061s-11.691 26.063-26.061 26.063h-413.441c-14.369 0-26.061-11.691-26.061-26.063s11.69-26.061 26.061-26.061z" />
<glyph unicode="&#xe94b;" glyph-name="44" d="M512.103 1024c-282.734 0-512.103-229.266-512.103-512 0-100.163 29.248-193.347 79.022-272.266l-46.079-171.693c-5.644-21.038 13.649-40.332 34.688-34.688l171.693 45.976c91.337-57.676 201.66-87.848 320.090-77.072 247.636 22.475 445.601 224.135 463.355 472.181 21.346 299.667-215.514 549.561-510.666 549.561z" />
<glyph unicode="&#xe94c;" glyph-name="45" d="M797.9 144.5v525.7c0 157.4-128.8 254.9-286.1 254.9-157.4 0-286.1-97.1-286.1-254.9v-412.1l-47 47.5c-18.6 18.4-49 18.4-67.5-0.3-18.4-18.6-18.4-49 0.3-67.5l126.3-127.6c9.3-9.2 21.6-13.8 33.9-13.7 12.3-0.1 24.6 4.5 34 13.7l129.2 128.6c18.7 18.5 18.7 48.9 0.3 67.5-18.5 18.7-47.9 18.7-66.5 0.3l-48.6-48v381.4c0 128 104.9 192.2 192 192.4 95.4 0 192-64.4 192-192.2v-496.9c0-25.9 21-46.9 46.9-46.9s46.9 21 46.9 46.9v1.2z" />
<glyph unicode="&#xe94d;" glyph-name="113" horiz-adv-x="1246" d="M787.808 546.972c62.324 48.975 102.515 124.755 102.515 209.961-0.001 147.27-119.78 267.067-267.067 267.067-147.256 0-267.031-119.796-267.031-267.067 0-85.205 40.232-160.987 102.515-209.961-164.142-65.569-280.599-225.913-280.599-413.213v-88.985c0-24.632 19.952-44.547 44.511-44.547h801.2c24.668 0 44.548 19.915 44.548 44.548v88.984c0.004 187.302-116.416 347.647-280.595 413.213zM445.213 756.932c0 98.209 79.837 178.061 178.048 178.061 98.199 0 178.040-79.858 178.040-178.061 0-98.187-79.839-178.040-178.040-178.040-98.204 0.001-178.048 79.858-178.048 178.040zM979.381 89.246h-712.212v44.511c0 196.376 159.79 356.126 356.162 356.126 196.335 0 356.050-159.753 356.050-356.126v-44.511zM325.19 531.965c1.218 2.672 1.218 5.549 1.842 8.33 0.405 1.696 0.884 3.303 1.144 5.091 0.333 3.521 0.11 6.858-0.374 10.307-0.185 1.825 0.256 3.559-0.185 5.383-0.256 1.030-0.996 1.793-1.291 2.823-0.702 2.011-1.66 3.801-2.621 5.661-1.84 3.819-3.8 7.3-6.528 10.381-0.44 0.425-0.884 0.736-1.362 1.177-4.019 4.22-8.667 7.431-13.977 9.735-48.127 21.467-79.286 69.296-79.286 121.975 0 61.992 41.966 115.371 102.154 129.824 23.934 5.79 38.612 29.832 32.858 53.749-5.789 23.895-29.946 38.424-53.693 32.856-100.306-24.171-170.301-113.199-170.301-216.437 0-56.328 21.387-109.137 57.822-149.317-115.826-60.030-191.392-180.083-191.392-315.941v-68.849c0-24.602 19.912-44.511 44.469-44.511 24.67 0 44.548 19.912 44.548 44.51v68.85c0 123.134 82.752 228.753 201.537 258.659 14.787 2.089 28.211 11.086 34.63 25.745l0.005-0.001zM1054.812 563.518c36.397 40.178 57.821 92.984 57.821 149.317 0 100.529-67.712 188.959-164.695 214.981-23.71 6.363-48.163-7.673-54.54-31.399-6.414-23.788 7.673-48.163 31.42-54.56 58.153-15.601 98.796-68.684 98.796-129.019 0-52.682-31.087-100.42-79.211-121.937-5.348-2.341-10.104-5.583-14.199-9.845-0.372-0.405-0.773-0.686-1.105-1.051-2.802-3.096-4.796-6.659-6.678-10.531-0.923-1.884-1.917-3.595-2.544-5.57-0.295-0.997-1.071-1.792-1.33-2.822-0.441-1.824 0-3.56-0.186-5.384-0.478-3.45-0.701-6.789-0.333-10.307 0.224-1.792 0.705-3.392 1.107-5.091 0.628-2.782 0.628-5.661 1.846-8.334 6.416-14.658 19.88-23.661 34.629-25.737 118.785-29.907 201.537-135.528 201.537-258.659v-68.85c0-24.598 19.915-44.51 44.548-44.51 24.561 0 44.47 19.912 44.47 44.51v68.85c0.005 135.851-75.518 255.905-191.351 315.938l-0.003 0.009z" />
<glyph unicode="&#xe94e;" glyph-name="46" d="M654.57 450.1c79.35 48.37 132.51 135.46 132.51 235.19 0 152.18-123.37 275.55-275.55 275.55s-275.53-123.38-275.53-275.55c0-99.73 53.17-186.83 132.52-235.19-138.22-56.47-235.88-192.19-235.86-350.83 0-19.020 15.41-33.99 34.43-33.99s34.43 15.88 34.43 34.9c0 170.42 139.070 309.080 310.020 309.080 170.65 0 309.55-138.17 310.040-308.18-0.030-0.64-0.050-1.29-0.050-1.81 0-19.020 15.42-34.44 34.44-34.44 18.48 0 33.57 14.56 34.41 32.84 0.050 0.84 0.080 1.8 0.080 2.51 0 157.94-97.66 293.5-235.89 349.92zM304.88 685.29c0 113.95 92.71 206.66 206.66 206.66s206.66-92.71 206.66-206.66-92.71-206.66-206.66-206.66-206.66 92.7-206.66 206.66z" />
<glyph unicode="&#xe94f;" glyph-name="47" d="M376.6 754c11.9 0 21.6 9.7 21.6 21.6v85.5c0 11.9-9.7 21.6-21.6 21.6s-21.6-9.7-21.6-21.6v-85.5c0-11.9 9.7-21.6 21.6-21.6zM660 754c11.9 0 21.6 9.7 21.6 21.6v85.5c0 11.9-9.7 21.6-21.6 21.6s-21.6-9.7-21.6-21.6v-85.5c0-11.9 9.7-21.6 21.6-21.6zM679 318.8h-332c-11.9 0-21.6-9.7-21.6-21.6s9.7-21.6 21.6-21.6h332c11.9 0 21.6 9.7 21.6 21.6s-9.7 21.6-21.6 21.6zM679 459.4h-332c-11.9 0-21.6-9.7-21.6-21.6s9.7-21.6 21.6-21.6h332c11.9 0 21.6 9.7 21.6 21.6s-9.7 21.6-21.6 21.6zM437.5 781.3h151.1c11.9 0 21.6 9.7 21.6 21.6s-9.7 21.6-21.6 21.6h-151.1c-11.9 0-21.6-9.7-21.6-21.6-0.1-11.9 9.6-21.6 21.6-21.6zM761.5 824.5h-38.6c-11.9 0-21.6-9.7-21.6-21.6s9.7-21.6 21.6-21.6h38.6c15.3 0 27.7-12.1 27.7-26.9v-139.3h-552.4v139.4c0 14.8 12.4 26.9 27.7 26.9h38.6c11.9 0 21.6 9.7 21.6 21.6s-9.7 21.6-21.6 21.6h-38.6c-39.1 0-70.9-31.4-70.9-70.1v-542.7c0-38.7 31.8-70.1 71-70.1h497c39.1 0 71 31.5 71 70.1v542.7c-0.2 38.6-32 70-71.1 70zM761.5 184.9h-497c-15.3 0-27.7 12-27.7 26.9v360.2h552.4v-360.2c0-14.8-12.4-26.9-27.7-26.9z" />
<glyph unicode="&#xe950;" glyph-name="48" d="M259.582 793.139h488.818v-54.129h-488.818v54.129zM258.063 686.4h488.818v-54.129h-488.818v54.129zM258.063 579.661h125.242v-54.129h-125.242v54.129zM258.063 472.922h55.648v-54.129h-55.648v54.129zM870.742 954.007h-733.226c-33.969 0-60.343-23.198-60.343-54.129v-747.173c0-29.412 27.893-54.129 60.343-54.129h286.11v54.129h-286.248v748.692h733.226v-323.255h60.343v323.255c0.138 29.412-26.236 52.61-60.205 52.61zM712.912 70.683c-129.937 0-235.157 105.22-235.157 235.157s105.22 235.157 235.157 235.157 235.157-105.22 235.157-235.157-106.739-235.157-235.157-235.157zM712.912 489.907c-102.044 0-184.066-82.022-184.066-184.066s82.022-184.066 184.066-184.066 184.066 82.022 184.066 184.066-83.541 184.066-184.066 184.066zM714.846 265.658c-14.499 0-26.236 11.875-26.236 26.236v96.521c0 14.499 11.875 26.236 26.236 26.236 14.499 0 26.236-11.875 26.236-26.236v-96.521c0-14.499-11.875-26.236-26.236-26.236zM688.471 291.894c0 14.499 11.875 26.236 26.236 26.236h96.521c14.499 0 26.236-11.875 26.236-26.236 0-14.499-11.875-26.236-26.236-26.236h-96.521c-14.361 0-26.236 11.737-26.236 26.236z" />
<glyph unicode="&#xe951;" glyph-name="-2" d="M746.579 841.386h-467.875c-43.076 0-77.98-34.902-77.98-77.976v-25.993h623.833v25.993c0.001 43.075-34.902 77.976-77.979 77.976zM610.37 893.37l11.474-82.037h-218.403l11.472 82.037h195.457zM616.615 945.354h-207.944c-21.449 0-41.401-17.362-44.396-38.632l-15.204-108.766c-2.97-21.244 12.159-38.607 33.608-38.607h259.93c21.448 0 36.579 17.362 33.583 38.632l-15.206 108.766c-2.972 21.245-22.923 38.607-44.371 38.607zM759.575 685.434h-493.868c-28.582 0-49.879-23.302-47.29-51.781l42.595-468.262c2.563-28.48 28.1-51.781 56.682-51.781h389.896c28.582 0 54.118 23.302 56.682 51.781l42.594 468.262c2.588 28.479-18.71 51.781-47.291 51.781zM408.67 217.579h-77.98l-25.994 363.888h103.972v-363.888zM564.628 217.579h-103.972v363.888h103.972v-363.888zM694.593 217.579h-77.98v363.888h103.972l-25.992-363.888z" />
<glyph unicode="&#xe952;" glyph-name="49" d="M456.033 595.923c247.269 0 419.73 62.662 419.73 139.925v83.924c0 77.253-172.461 139.924-419.73 139.924-247.271 0-391.731-62.67-391.731-139.924v-83.924c0.001-77.264 144.461-139.925 391.731-139.925zM405.238 261.153c-169.815 6.304-269.001 45.056-321.136 96.938-13.303-13.259-19.799-27.348-19.799-41.991v-111.923c0-77.255 144.46-139.873 391.731-139.873 24.744 0 48.842 0.775 72.507 2.002-63.523 45.668-108.85 114.799-123.303 194.848zM400.135 317.363c0.297 73.972 26.626 141.805 70.385 194.724-5.311-0.026-10.431-0.087-15.898-0.087-200.462 0-313.492 41.166-370.521 97.941-13.303-13.286-19.799-27.365-19.799-41.992v-111.933c0.001-71.175 122.974-129.894 335.833-138.652zM707.863 567.949c-139.080 0-251.831-112.743-251.831-251.849 0-139.070 112.751-251.796 251.831-251.796s251.833 112.724 251.833 251.796c0 139.106-112.752 251.849-251.833 251.849zM835.957 221.537l-33.521-33.511-94.572 94.572-94.572-94.572-33.52 33.511 94.572 94.581-94.572 94.572 33.52 33.53 94.572-94.579 94.572 94.579 33.521-33.53-94.573-94.572 94.573-94.581z" />
<glyph unicode="&#xe953;" glyph-name="114" d="M512 128l320 384h-213.312v384h-213.376v-384h-213.312l320-384z" />
<glyph unicode="&#xe954;" glyph-name="50" d="M256 1024h512c141.385 0 256-114.615 256-256v0-512c0-141.385-114.615-256-256-256v0h-512c-141.385 0-256 114.615-256 256v0 512c0 141.385 114.615 256 256 256v0zM272 531.84c10.3-10.098 24.422-16.331 40-16.331s29.7 6.233 40.009 16.34l-0.009-0.009 103.040 104.32v-387.2c0-31.458 25.502-56.96 56.96-56.96s56.96 25.502 56.96 56.96v387.2l103.040-104.32c10.3-10.098 24.422-16.331 40-16.331s29.7 6.233 40.009 16.34l-0.009-0.009c10.103 10.534 16.323 24.861 16.323 40.64s-6.22 30.106-16.343 40.661l0.020-0.021-198.4 200.96c-10.297 11.386-25.111 18.521-41.593 18.56h-0.007c-0.097 0.001-0.211 0.001-0.325 0.001-16.198 0-30.723-7.164-40.579-18.496l-0.056-0.065-199.040-200.96c-10.103-10.534-16.323-24.861-16.323-40.64s6.22-30.106 16.343-40.661l-0.020 0.021z" />
<glyph unicode="&#xe955;" glyph-name="51" d="M913.94 592.172c-4.877 25.783-20.692 42.456-40.947 42.456h-3.512c-54.731 0-99.248 44.516-99.248 99.263 0 17.295 8.299 37.015 8.62 37.799 10.097 22.722 2.349 50.567-18.080 64.859l-104.21 57.922c-20.546 8.91-48.667 3.207-63.987-12.754-11.087-11.434-49.307-44.038-78.472-44.038-29.543 0-67.849 33.258-78.992 44.91-15.293 16.076-43.124 22.112-63.902 13.217l-106.357-58.272-1.597-1.016c-20.43-14.234-28.207-42.078-18.165-64.714 0.346-0.828 8.676-20.387 8.676-37.914 0-54.747-44.517-99.263-99.247-99.263h-4.15c-19.618 0-35.434-16.672-40.309-42.456-0.363-1.814-8.59-45.446-8.59-80.43 0-34.939 8.227-78.555 8.59-80.355 4.875-25.8 20.691-42.487 40.947-42.487h3.512c54.73 0 99.247-44.517 99.247-99.247 0-17.412-8.329-37.058-8.648-37.812-10.070-22.767-2.35-50.568 18.022-64.788l100.756-56.531 1.538-0.697c20.837-9.171 49.015-3.192 64.25 13.464 14.074 15.208 52.208 46.783 80.21 46.783 30.355 0 69.446-35.347 80.707-47.767 10.387-11.376 26.349-18.227 42.687-18.227 7.632 0 14.857 1.511 21.474 4.354l104.472 57.574 1.538 0.99c20.429 14.276 28.207 42.077 18.139 64.727-0.35 0.842-8.678 20.403-8.678 37.929 0 54.73 44.517 99.247 99.248 99.247h4.094c19.644 0 35.488 16.687 40.365 42.487 0.348 1.8 8.588 45.416 8.588 80.355 0 34.986-8.24 78.618-8.588 80.432zM862.982 511.742c0-22.606-4.498-51.655-6.56-63.786-82.097-6.732-145.737-75.335-145.737-158.303 0-23.42 7.43-45.851 11.377-56.17l-89.121-49.216c-4.383 4.584-17.326 17.645-34.94 30.762-30.935 22.926-60.595 34.636-88.106 34.636-27.279 0-56.704-11.42-87.494-34.055-17.528-12.77-30.296-25.48-34.766-30.18l-85.724 47.996c4.179 10.84 11.405 32.983 11.405 56.227 0 82.968-63.64 151.571-145.708 158.303-2.090 12.13-6.588 41.18-6.588 63.786 0 22.651 4.498 51.714 6.588 63.844 82.068 6.718 145.708 75.336 145.708 158.304 0 23.288-7.429 45.793-11.376 56.095l91.326 50.19c3.976-3.976 17.006-16.73 34.823-29.412 30.356-21.663 59.261-32.633 86.016-32.633 26.495 0 55.196 10.766 85.347 32.010 17.963 12.623 30.964 25.202 34.736 28.757l87.901-48.825c-3.975-10.244-11.405-32.676-11.405-56.182 0-82.968 63.64-151.586 145.738-158.304 2.062-12.158 6.56-41.338 6.56-63.844zM510.216 658.367c-80.53 0-146.057-65.528-146.057-146.058 0-80.543 65.528-146.043 146.057-146.043s146.057 65.5 146.057 146.043c0 80.53-65.527 146.058-146.057 146.058zM596.726 512.309c0-47.693-38.8-86.492-86.51-86.492-47.709 0-86.48 38.799-86.48 86.492 0 47.666 38.771 86.48 86.48 86.48 47.71-0.001 86.51-38.814 86.51-86.48z" />
<glyph unicode="&#xe956;" glyph-name="52" d="M346.112 91.136h-179.2c-23.552 0-43.008 19.456-43.008 43.008v755.712c0 23.552 19.456 43.008 43.008 43.008h608.256c21.504 0 43.008-16.384 43.008-43.008v-236.544c0-8.192 7.168-15.36 15.36-15.36h44.032c8.192 0 15.36 7.168 15.36 15.36v258.048c0 50.176-40.96 92.16-92.16 92.16h-659.456c-50.176 0-92.16-40.96-92.16-91.136v-799.744c0-50.176 40.96-91.136 92.16-91.136h205.824c8.192 0 15.36 7.168 15.36 15.36v39.936c-1.024 7.168-8.192 14.336-16.384 14.336zM596.992 555.008v45.056c0 10.24-8.192 17.408-17.408 17.408h-325.632c-10.24 0-17.408-8.192-17.408-17.408v-45.056c0-10.24 8.192-17.408 17.408-17.408h324.608c10.24 0 18.432 8.192 18.432 17.408zM253.952 441.344c-10.24 0-17.408-8.192-17.408-17.408v-45.056c0-10.24 8.192-17.408 17.408-17.408h205.824c10.24 0 17.408 8.192 17.408 17.408v45.056c0 10.24-8.192 17.408-17.408 17.408h-205.824zM684.032 733.184v45.056c0 10.24-8.192 17.408-17.408 17.408h-412.672c-10.24 0-17.408-8.192-17.408-17.408v-45.056c0-10.24 8.192-17.408 17.408-17.408h411.648c10.24-1.024 18.432 7.168 18.432 17.408zM964.608 445.44l-147.456 146.432c-6.144 3.072-13.312 6.144-19.456 6.144s-13.312 0-19.456-6.144l-367.616-369.664c-3.072-6.144-6.144-13.312-6.144-19.456v-147.456c0-13.312 10.24-26.624 26.624-26.624h147.456c6.144 0 13.312 0 19.456 6.144l219.136 222.208c10.24 10.24 10.24 29.696 0 38.912-10.24 10.24-29.696 10.24-38.912 0l-209.92-206.848c-2.048-2.048-5.12-4.096-9.216-4.096h-90.112c-7.168 0-12.288 6.144-12.288 12.288v90.112c0 3.072 1.024 6.144 4.096 9.216l327.68 327.68c5.12 5.12 13.312 5.12 18.432 0l91.136-91.136c5.12-5.12 5.12-12.288 1.024-17.408l-13.312-16.384c-5.12-6.144-13.312-6.144-18.432-1.024l-46.080 46.080c-10.24 10.24-29.696 10.24-38.912 0-10.24-10.24-10.24-29.696 0-38.912l71.68-74.752c6.144-3.072 13.312-6.144 19.456-6.144s13.312 0 19.456 6.144l71.68 74.752c3.072 6.144 6.144 13.312 6.144 19.456 0 7.168 0 13.312-6.144 20.48z" />
<glyph unicode="&#xe957;" glyph-name="53" d="M129 502.73c0 211.711 172.288 384 384 384s384-172.289 384-384c0-211.713-172.288-384-384-384s-384 172.287-384 384zM198.818 502.73c0-173.22 140.963-314.182 314.182-314.182s314.182 140.963 314.182 314.181c0 173.22-140.963 314.182-314.182 314.182s-314.182-140.963-314.182-314.182zM537 493.115v202.728c0 19.277-15.63 34.905-34.91 34.905s-34.908-15.628-34.908-34.905v-217.179c0-9.25 3.665-18.15 10.228-24.678l117.050-117.036c6.305-6.34 15.035-10.264 24.681-10.264s18.376 3.924 24.679 10.263l0.002 0.002c13.628 13.63 13.628 35.725 0 49.356l-106.822 106.809z" />
<glyph unicode="&#xe958;" glyph-name="-3" d="M725.2 346h-507.8c-22.7 0-41.1 18.4-41.1 41.1v250.8c0 22.7 18.4 41.1 41.1 41.1h507.8c22.7 0 41.1-18.4 41.1-41.1v-250.8c0-22.7-18.4-41.1-41.1-41.1z" />
<glyph unicode="&#xe959;" glyph-name="54" d="M421.44 864h181.12l-90.56-90.56-90.56 90.56zM421.44 128h181.12l-90.56 90.56-90.56-90.56zM800 277.44h-576v448h576zM288 341.44h448v320h-448zM96 591.68v-180.8l90.56 90.56-90.56 90.24zM928 591.68v-180.8l-90.56 90.56 90.56 90.24z" />
<glyph unicode="&#xe95a;" d="M592 0c-54.4 0-288 0-288 0v1024c0 0 224 0 288 0s128-73.6 128-128c0-38.4 0-518.4 0-768 0-70.4-54.4-128-128-128z" />
<glyph unicode="&#xe95b;" d="M400 432h160v-32h-160v32z" />
<glyph unicode="&#xe95c;" d="M400 624h160v-32h-160v32z" />
<glyph unicode="&#xe95d;" d="M400 528h96v-32h-96v32z" />
<glyph unicode="&#xe95e;" d="M560 528h32v-32h-32v32z" />
<glyph unicode="&#xe95f;" d="M592 496h32v-32h-32v32z" />
<glyph unicode="&#xe960;" d="M592 560h32v-32h-32v32z" />
<glyph unicode="&#xe961;" d="M624 464h32v-32h-32v32z" />
<glyph unicode="&#xe962;" d="M624 592h32v-32h-32v32z" />
<glyph unicode="&#xe963;" d="M624 496h32v-32h-32v32z" />
<glyph unicode="&#xe964;" d="M624 528h32v-32h-32v32z" />
<glyph unicode="&#xe965;" d="M624 560h32v-32h-32v32z" />
<glyph unicode="&#xe966;" d="M592 528h32v-32h-32v32z" />
<glyph unicode="&#xe967;" glyph-name="115" d="M911.2 356h-510.4c-24.8 0-44.8 21.6-44.8 48s20 48 44.8 48h510.4c24.8 0 44.8-21.6 44.8-48s-20-48-44.8-48zM911.2 580h-510.4c-24.8 0-44.8 21.6-44.8 48s20 48 44.8 48h510.4c24.8 0 44.8-21.6 44.8-48s-20-48-44.8-48zM908 796h-784c-26.4 0-48 21.6-48 48s21.6 48 48 48h784c26.4 0 48-21.6 48-48s-21.6-48-48-48zM300 356l-224 160 224 160v-320zM124 236h784c26.4 0 48-21.6 48-48s-21.6-48-48-48h-784c-26.4 0-48 21.6-48 48s21.6 48 48 48z" />
<glyph unicode="&#xe968;" glyph-name="210" d="M112.8 668h510.4c24.8 0 44.8-21.6 44.8-48.001s-20-48-44.8-48.001h-510.4c-24.8 0-44.8 21.6-44.8 48.001s20 48 44.8 48.001zM112.8 444h510.4c24.8 0 44.8-21.6 44.8-48.001s-20-48-44.8-48.001h-510.4c-24.8 0-44.8 21.6-44.8 48.001s20 48 44.8 48.001zM116 228h784c26.401 0 48.001-21.6 48-48s-21.6-48.001-48-48h-784c-26.401 0-48.001 21.6-48 48s21.6 48.001 48 48zM724 668l224-160-224-160v320zM900 788h-784c-26.401 0-48.001 21.6-48 48s21.6 48.001 48 48h784c26.401 0 48.001-21.6 48-48s-21.6-48.001-48-48z" />
<glyph unicode="&#xe969;" glyph-name="310" d="M663.552 548.352c-20.992 0-37.888 16.896-37.888 37.888v345.6c0 20.992 16.896 37.888 37.888 37.888s37.888-16.896 37.888-37.888v-346.112c0-20.48-16.896-37.376-37.888-37.376zM375.808 548.352c-20.992 0-37.888 16.896-37.888 37.888v345.6c0 20.992 16.896 37.888 37.888 37.888s37.888-16.896 37.888-37.888v-346.112c-0.512-20.48-17.408-37.376-37.888-37.376zM54.272 126.976c-20.992 0-37.888 16.896-37.888 37.888v766.976c0 20.992 16.896 37.888 37.888 37.888s37.888-16.896 37.888-37.888v-766.976c0-20.992-16.896-37.888-37.888-37.888zM978.432 126.976c-20.992 0-37.888 16.896-37.888 37.888v766.976c0 20.992 16.896 37.888 37.888 37.888s37.888-16.896 37.888-37.888v-766.976c0-20.992-16.896-37.888-37.888-37.888zM306.176 425.984h425.984l-212.48-297.984z" />
<glyph unicode="&#xe96a;" glyph-name="410" d="M209.92 276.48h614.4v-76.8h-614.4zM209.92 527.36l153.6-133.12v266.24zM440.32 547.84h384v-76.8h-384zM209.92 814.080h614.4v-76.8h-614.4z" />
<glyph unicode="&#xe96b;" glyph-name="56" d="M112.8 668h510.4c24.8 0 44.8-21.6 44.8-48.001s-20-48-44.8-48.001h-510.4c-24.8 0-44.8 21.6-44.8 48.001s20 48 44.8 48.001zM112.8 444h510.4c24.8 0 44.8-21.6 44.8-48.001s-20-48-44.8-48.001h-510.4c-24.8 0-44.8 21.6-44.8 48.001s20 48 44.8 48.001zM116 228h784c26.401 0 48.001-21.6 48-48s-21.6-48.001-48-48h-784c-26.401 0-48.001 21.6-48 48s21.6 48.001 48 48zM724 668l224-160-224-160v320zM900 788h-784c-26.401 0-48.001 21.6-48 48s21.6 48.001 48 48h784c26.401 0 48.001-21.6 48-48s-21.6-48.001-48-48z" />
<glyph unicode="&#xe96c;" glyph-name="57" d="M700.3 831.2h-308.8s-44.4 0.7-44.4-45.4l-0.2-547.2s-4.2-45.1 42.3-45.1h313.2s43-0.7 43 43.3v549c0 0.1 1.4 45.4-45.1 45.4zM501.5 809.2h88.7v-22h-88.7v22zM468.2 809.2c6.1 0 11.1-4.9 11.1-11s-5-11-11.1-11-11.1 4.9-11.1 11 5 11 11.1 11zM545.8 237.5c-12.2 0-22.2 9.8-22.2 22s9.9 22 22.2 22c12.2 0 22.2-9.9 22.2-22s-9.9-22-22.2-22zM702 325.5h-311.4v439.8h311.4v-439.8z" />
<glyph unicode="&#xe96d;" glyph-name="58" d="M602.234 548.331c-29.905 0-54.187 24.449-54.187 54.587s24.281 54.6 54.187 54.6 54.174-24.462 54.174-54.6-24.268-54.587-54.174-54.587zM602.234 766.707c-89.755 0-162.534-73.335-162.534-163.788 0-32.569 9.71-62.746 25.962-88.217l-196.267-197.779c-13.55-13.653-13.55-35.775 0-49.39 13.498-13.653 35.465-13.653 49.015 0l62.914 63.392 32.362-32.608c5.857-5.896 15.347-5.896 21.204 0 5.883 5.935 5.883 15.502 0 21.398l-32.362 32.621 51.006 51.394 32.362-32.621c5.844-5.896 15.347-5.896 21.23 0 5.857 5.935 5.857 15.515 0 21.411l-32.362 32.608 39.874 40.184c25.316-16.381 55.299-26.169 87.596-26.169 89.755 0 162.534 73.335 162.534 163.775 0 90.453-72.779 163.788-162.534 163.788zM49.778 512c0-255.276 206.946-462.222 462.222-462.222s462.222 206.946 462.222 462.222-206.946 462.222-462.222 462.222-462.222-206.946-462.222-462.222zM101.495 512c0 226.715 183.79 410.505 410.505 410.505s410.505-183.79 410.505-410.505-183.79-410.505-410.505-410.505-410.505 183.79-410.505 410.505z" />
<glyph unicode="&#xe96e;" glyph-name="59" d="M450.438 959.689c-243.743 0-386.135-60.655-386.135-135.459v-81.238c0-74.805 142.392-135.488 386.135-135.488s413.717 60.684 413.717 135.488v81.238c0 74.804-169.973 135.459-413.717 135.459zM416.301 256.909c-175.313 6.187-277.727 44.104-331.572 94.858-13.743-12.948-20.426-26.737-20.426-41.074v-109.535c0-75.584 149.139-136.847 404.439-136.847 25.548 0 50.411 0.735 74.865 1.951-65.589 44.694-112.376 112.315-127.306 190.646zM479.705 544.006c-5.437-0.033-10.682-0.093-16.243-0.093-205.013 0-320.608 40.54-378.919 96.448-13.62-13.086-20.24-26.954-20.24-41.353v-110.252c0-70.087 125.745-127.932 343.408-136.537 0.313 72.853 27.237 139.627 71.994 191.787zM703.989 575.644c-141.205 0-255.674-114.438-255.674-255.674 0-141.205 114.468-255.659 255.674-255.659s255.707 114.454 255.707 255.659c0 141.236-114.502 255.674-255.707 255.674zM863.811 256.129h-159.916v-95.948l-159.912 159.916 159.912 159.912v-95.949h159.915v-127.931z" />
<glyph unicode="&#xe96f;" glyph-name="---2" d="M898.048 823.296v-78.336c0-69.12-172.032-125.952-384-125.952s-384 56.32-384 125.952v78.336c0 69.12 172.032 125.952 384 125.952s384-56.832 384-125.952zM898.048 649.216v-177.152c0-69.12-172.032-125.952-384-125.952s-384 56.32-384 125.952v177.152c82.432-56.832 233.472-83.456 384-83.456s301.568 26.112 384 83.456zM898.048 373.248v-177.152c0-69.12-172.032-125.952-384-125.952s-384 56.32-384 125.952v177.152c82.432-56.832 233.472-83.456 384-83.456s301.568 26.112 384 83.456z" />
<glyph unicode="&#xe970;" glyph-name="60" d="M898 823.285v-78.57c0-69.242-172-125.715-384-125.715s-384 56.473-384 125.715v78.57c0 69.242 172 125.715 384 125.715s384-56.473 384-125.715zM898 649v-177.078c0-69.356-172-125.922-384-125.922s-384 56.566-384 125.922v177.078c82.5-57.059 233.5-83.621 384-83.621s301.498 26.561 384 83.621zM898 373v-177.078c0-69.356-172-125.922-384-125.922s-384 56.566-384 125.922v177.078c82.5-57.059 233.5-83.621 384-83.621s301.498 26.561 384 83.621z" />
<glyph unicode="&#xe971;" glyph-name="61" horiz-adv-x="1025" d="M921.088 17.92l-145.408 145.408c-209.92-162.816-512-124.416-674.304 85.504s-124.928 511.488 84.992 674.304 512 124.416 674.304-85.504c134.656-173.568 134.144-416.768-1.024-590.336l145.408-145.408c23.552-23.552 23.040-61.44 0-84.48s-60.928-23.040-83.968 0.512v0zM93.184 541.696c0-214.528 173.568-388.608 388.096-388.608s388.608 173.568 388.608 388.096-173.568 388.608-388.096 388.608c0 0 0 0 0 0-214.528 0-388.608-174.080-388.608-388.096zM435.712 488.96h-115.712c-24.576 0.512-44.544 20.992-44.032 45.568v6.144c-0.512 24.064 17.408 44.032 41.472 46.080h328.704c23.552-2.048 41.472-22.016 41.472-45.568v-6.656c0.512-24.576-19.456-45.056-44.032-45.568 0 0 0 0 0 0h-207.872z" />
<glyph unicode="&#xe972;" glyph-name="-ICON-" d="M517.12 863.232c-193.097-1.162-349.184-157.966-349.184-351.226 0-193.98 157.252-351.232 351.232-351.232 193.978 0 351.229 157.248 351.232 351.226v0c0 0.002 0 0.004 0 0.006 0 193.98-157.252 351.232-351.232 351.232-0.72 0-1.44-0.002-2.159-0.006l0.111 0.001zM550.912 318.464h-67.072v69.632h67.072zM534.016 440.832h-33.792l-16.384 264.704h67.072z" />
<glyph unicode="&#xe973;" glyph-name="116" horiz-adv-x="1109" d="M810.309 222.125l-75.125 132.25v276.25c0 57.625-20.875 118.375-58.875 171-38.625 53.625-92.875 95.5-152.875 118.125-0.375 0.125-0.75 0.25-1 0.375-1.375 0.5-6.5 2.125-14 4.25v9.25c0 49.875-40.5 90.375-90.375 90.375s-90.375-40.5-90.375-90.375v-8.5c-7-2-11.375-3.375-11.875-3.625-0.25-0.125-0.5-0.125-0.75-0.25-61-22.125-116.125-64.125-155.625-118.125-38.75-53-60-114.375-60-172.5v-276.25l-80.375-141.5c-9.625-16.875-9.625-37.875 0.125-54.75s27.875-27.25 47.5-27.25h198.75c11.375-74 75.5-130.875 152.625-130.875s141.25 56.875 152.625 130.875h198.625c30.25 0 54.875 24.625 54.875 54.875 0 13.5-4.875 26.375-13.875 36.375zM417.934 976.625c23.125 0 42-18.25 43.125-41-4.875 0.875-9.75 1.75-14.625 2.5-2.125 0.25-4.125 0.375-6.25 0.125l-2.625 0.375c-6 0.875-12.875 2-20.5 2s-14.5-1-20.5-1.875c-0.75-0.125-1.5-0.25-2.125-0.375-2.125 0.25-4.25 0.25-6.5 0-4.5-0.625-8.875-1.375-13.25-2.125 1.5 22.5 20.375 40.375 43.25 40.375zM417.934 47.125c-51 0-93.75 35.875-104.625 83.625h209.125c-10.625-47.875-53.375-83.625-104.5-83.625zM769.309 177.875h-702.625c-2.75 0-5.25 1.375-6.625 3.75s-1.5 5.375 0 7.875l83.5 146.875c2 3.5 3.125 7.625 3.125 11.625v282.5c0 102.125 79 207.75 183.875 246 3.5 1.125 30.625 9.5 57.875 14 1.625-0.125 3.25-0.25 5 0 3.625 0.375 7.125 0.875 10.375 1.375 5 0.75 9.375 1.375 13.375 1.375 4.125 0 8.375-0.625 13.5-1.375 3.25-0.5 6.75-1 10.375-1.375 1.5-0.125 3-0.125 4.5 0 28.375-4.75 57.375-13.875 61.75-15.25 103-39 180.625-144.125 180.625-244.75v-282.5c0-4.125 1.125-8.125 3.125-11.625l79.625-140.125c1.125-2 2.5-3.75 4.125-5.375 1.375-1.375 2.125-3.25 2.125-5.375 0.125-4.25-3.375-7.625-7.625-7.625z" />
<glyph unicode="&#xe974;" glyph-name="211" d="M966.656 231.936l-84.48 126.976v268.288c0 57.856-24.576 118.784-69.12 171.008-45.056 53.248-108.032 95.232-178.176 117.248l-2.56 0.512c-2.048 0.512-5.632 1.536-10.24 2.56v4.096c0 25.6-11.776 49.152-32.256 67.072-20.992 17.92-48.128 27.648-77.312 27.648-60.416 0-110.080-42.496-110.080-94.72v-3.584c-4.608-1.024-7.68-2.048-8.704-2.56-0.512 0-0.512 0-1.024-0.512-70.656-22.016-135.168-63.488-180.736-117.248-45.056-52.736-70.144-114.176-70.144-172.544v-268.288l-91.136-136.704c-12.8-18.432-12.288-41.984 0-60.416s35.328-29.696 59.904-29.696h222.208c16.384-73.216 92.672-128 180.224-128s163.84 54.784 180.224 128h222.208c38.4 0 69.12 26.624 69.12 59.904-0.512 16.384-6.656 30.208-17.92 40.96zM623.616 132.608c-14.848-40.96-60.416-69.632-111.104-69.632s-96.256 28.672-111.104 69.632h222.208zM546.304 934.912c-1.536 0-3.072 0.512-4.608 0.512h-3.072l-2.048 0.512c-8.192 1.024-16.384 2.048-24.576 2.048-9.216 0-17.408-1.024-24.064-2.048h-1.536c-2.56 0.512-5.632 0-8.192 0-2.048 0-4.096-0.512-6.656-1.024 5.12 15.36 22.016 26.112 41.472 26.112 19.968 0 36.352-11.264 41.472-26.624-3.072-0.512-5.632 0-8.192 0.512zM484.864 876.032l12.288 1.536c5.12 0.512 10.24 1.536 14.336 1.536s9.216-0.512 14.848-1.536c3.584-0.512 7.68-1.024 11.776-1.536h5.632c32.768-4.608 65.536-13.824 69.12-14.336 115.712-37.376 202.752-137.728 202.752-233.472v-276.48c0-5.12 1.536-10.24 4.608-14.848l91.136-137.216c1.536-2.56 3.584-4.608 6.144-6.656l0.512-0.512c0-0.512-1.024-1.536-2.56-1.536h-804.864c-1.024 0-1.536 0.512-2.048 1.024v1.024l95.744 143.872c3.072 4.608 4.608 9.728 4.608 14.848v276.48c0 97.28 88.576 198.144 205.824 234.496 5.632 1.536 34.816 9.216 65.024 13.312 1.536-0.512 3.584-0.512 5.12 0z" />
<glyph unicode="&#xe975;" glyph-name="62" d="M992.448 480.768h-84.992c-15.658 0-28.352 12.694-28.352 28.352s12.694 28.352 28.352 28.352h84.992c15.658 0 28.352-12.694 28.352-28.352s-12.694-28.352-28.352-28.352v0zM897.664 857.344c-5.011-5.257-12.068-8.527-19.888-8.527-15.164 0-27.456 12.292-27.456 27.456 0 7.836 3.283 14.905 8.548 19.908l0.012 0.011 58.304 58.304c5.011 5.257 12.068 8.527 19.888 8.527 15.164 0 27.456-12.292 27.456-27.456 0-7.836-3.283-14.905-8.548-19.908l-0.012-0.011-58.304-58.304zM730.24 377.472s-15.296-4.608-24-4.608c-15.552 0-23.68 7.36-25.472 22.848-3.2 26.368 28.288 34.368 28.288 34.368 32.96 13.76 56.704 50.112 56.704 93.184 0 43.136-23.744 79.488-56.704 93.12 0 0-23.552 6.080-22.272 29.952 0.896 15.616 7.552 24.128 18.432 27.712 8.256 2.624 25.024-4.864 25.024-4.864 53.76-22.144 92.096-78.976 92.096-145.856 0.064-66.88-38.336-123.712-92.096-145.856zM567.36 55.744c-0.512 0-1.024 0-1.536 0.128-12.8 2.496-13.888 0.896-45.76 25.28-63.424 48.384-238.912 201.28-246.016 201.28h-216.768c-31.294 0-56.668 25.351-56.704 56.637v340.099c0 31.296 25.408 56.64 56.704 56.64h185.28c7.36 0 290.688 228.352 290.688 228.352 7.552 3.712 35.456 10.304 52.224 3.2 28.8-12.16 38.528-30.144 38.528-61.44v-793.536c0-31.36-25.344-56.64-56.64-56.64zM567.36 140.736v708.48l0.64 62.72-295.488-232.768h-215.232v-340.16h243.584s4.8-2.752 10.56-8.768l256-214.72v25.216zM897.664 160.896l58.304-58.24c5.277-5.014 8.56-12.083 8.56-19.919 0-15.164-12.292-27.456-27.456-27.456-7.82 0-14.877 3.269-19.877 8.516l-0.010 0.011-58.304 58.368c-4.949 4.957-8.010 11.801-8.010 19.36 0 15.134 12.268 27.402 27.402 27.402 7.575 0 14.432-3.074 19.392-8.041v0z" />
<glyph unicode="&#xe976;" glyph-name="63" horiz-adv-x="1087" d="M1023.789 783.987v-557.855h-375.037l-3.262-8.827 229.833-164.267-38.828-52.581c-91.92 65.31-181.41 127.678-269.172 192.22-22.196 16.248-36.781 15.736-58.466-0.192-87.826-64.351-177.060-126.846-268.213-191.773 30.88-41.794 17.735-24.893 4.609-7.975l-44.716 59.916 239.364 170.919h-372.223v561.437h-67.165v148.083c117.571-1.215 235.078-2.559 352.585-3.518 49.254-0.448 98.445-0.064 150.45-0.064l4.67 94.223h74.010v-92.816h505.018v-142.326l-63.455-4.606zM957.711 782.963h-827.475v-496.191h827.475v496.191zM354.184 684.966c71.835 3.966 130.94-49.063 137.081-128.445h-130.492v-124.863c-72.155-3.646-129.533 48.359-133.179 116.612-3.838 73.562 50.79 132.603 126.59 136.697zM408.684 393.981v123.264h125.823c6.269-66.845-50.854-123.136-125.823-123.264zM808.796 431.914h-165.802v38.124h165.802v-38.124zM643.058 557.992h165.674l2.175-38.252h-167.849v38.252zM643.826 645.819h165.098v-39.659h-165.098v39.659z" />
</font>
</defs>
</svg>
